<?xml version="1.0" encoding="UTF-8" standalone="no"?>
<!-- Created with Inkscape (http://www.inkscape.org/) -->

<svg
   xmlns:dc="http://purl.org/dc/elements/1.1/"
   xmlns:cc="http://creativecommons.org/ns#"
   xmlns:rdf="http://www.w3.org/1999/02/22-rdf-syntax-ns#"
   xmlns:svg="http://www.w3.org/2000/svg"
   xmlns="http://www.w3.org/2000/svg"
   xmlns:sodipodi="http://sodipodi.sourceforge.net/DTD/sodipodi-0.dtd"
   xmlns:inkscape="http://www.inkscape.org/namespaces/inkscape"
   width="64px"
   height="64px"
   id="svg11284"
   version="1.1"
   inkscape:version="0.48.4 r9939"
   sodipodi:docname="New document 3">
  <defs
     id="defs11286">
    <clipPath
       id="clipPath2270">
      <path
         d="m 428.054,427.578 c 0,-14.623 11.854,-26.474 26.477,-26.474 l 0,0 c 14.62,0 26.473,11.851 26.473,26.474 l 0,0 c 0,14.623 -11.853,26.474 -26.473,26.474 l 0,0 c -14.623,0 -26.477,-11.851 -26.477,-26.474"
         inkscape:connector-curvature="0"
         id="path2272" />
    </clipPath>
  </defs>
  <sodipodi:namedview
     id="base"
     pagecolor="#ffffff"
     bordercolor="#666666"
     borderopacity="1.0"
     inkscape:pageopacity="0.0"
     inkscape:pageshadow="2"
     inkscape:zoom="5.5"
     inkscape:cx="32"
     inkscape:cy="32"
     inkscape:current-layer="layer1"
     showgrid="true"
     inkscape:document-units="px"
     inkscape:grid-bbox="true"
     inkscape:window-width="1015"
     inkscape:window-height="679"
     inkscape:window-x="182"
     inkscape:window-y="140"
     inkscape:window-maximized="0" />
  <metadata
     id="metadata11289">
    <rdf:RDF>
      <cc:Work
         rdf:about="">
        <dc:format>image/svg+xml</dc:format>
        <dc:type
           rdf:resource="http://purl.org/dc/dcmitype/StillImage" />
        <dc:title></dc:title>
      </cc:Work>
    </rdf:RDF>
  </metadata>
  <g
     id="layer1"
     inkscape:label="Layer 1"
     inkscape:groupmode="layer">
    <path
       style="fill:#1a1c44;fill-opacity:1;fill-rule:nonzero;stroke:none"
       id="path2252"
       inkscape:connector-curvature="0"
       d="m 0.59460318,32.091753 c 0,17.366623 14.08859082,31.496089 31.40665882,31.496089 17.317227,0 31.404136,-14.129466 31.404136,-31.496089 0,-17.367467 -14.086909,-31.497776 -31.404136,-31.497776 -17.318068,0 -31.40665882,14.130309 -31.40665882,31.497776" />
    <path
       style="fill:#ac831d;fill-opacity:1;fill-rule:nonzero;stroke:none"
       id="path2256"
       inkscape:connector-curvature="0"
       d="m 1.5095371,32.091753 c 0,16.861397 13.6790199,30.579259 30.4916409,30.579259 16.810938,0 30.489955,-13.717862 30.489955,-30.579259 0,-16.862241 -13.679017,-30.5792597 -30.489955,-30.5792597 -16.812621,0 -30.4916409,13.7170187 -30.4916409,30.5792597 m 0.5617944,0 c 0,-16.551009 13.4258755,-30.0149921 29.9298465,-30.0149921 16.503129,0 29.929002,13.4639831 29.929002,30.0149921 0,16.551008 -13.425873,30.015835 -29.929002,30.015835 -16.503971,0 -29.9298465,-13.464827 -29.9298465,-30.015835" />
    <path
       style="fill:#ac831d;fill-opacity:1;fill-rule:nonzero;stroke:none"
       id="path2260"
       inkscape:connector-curvature="0"
       d="m 8.4133841,32.168759 c 0,13.026233 10.5672839,23.624173 23.5558359,23.624173 12.986868,0 23.554149,-10.59794 23.554149,-23.624173 0,-13.024545 -10.567281,-23.6233306 -23.554149,-23.6233306 -12.988552,0 -23.5558359,10.5987856 -23.5558359,23.6233306 m 0.5659995,0 c 0,-12.712469 10.3132994,-23.0556901 22.9898364,-23.0556901 12.676536,0 22.988991,10.3432211 22.988991,23.0556901 0,12.714157 -10.312455,23.056531 -22.988991,23.056531 -12.676537,0 -22.9898364,-10.342374 -22.9898364,-23.056531" />
    <path
       style="fill:#ac831d;fill-opacity:1;fill-rule:nonzero;stroke:none"
       id="path2264"
       inkscape:connector-curvature="0"
       d="m 9.7028197,32.134178 c 0,-12.332917 9.9693273,-22.3294796 22.2665673,-22.3294796 12.296401,0 22.264042,9.9965626 22.264042,22.3294796 0,12.333761 -9.967641,22.329477 -22.264042,22.329477 -12.29724,0 -22.2665673,-9.995716 -22.2665673,-22.329477" />
    <g
       id="g2266"
       transform="matrix(0.84100951,0,0,-0.84344942,-350.29525,392.77468)">
      <g
         clip-path="url(#clipPath2270)"
         id="g2268">
        <g
           transform="translate(460.04,440.9395)"
           id="g2274">
          <path
             d="M 0,0 C -0.705,-0.013 -1.638,-0.155 -2.812,-0.155 -3.726,-0.155 -5.07,0 -5.07,0 l -0.727,0 0,-0.188 1.364,-0.508 c 0.566,-0.215 1.101,-0.375 1.101,-0.856 0,-0.377 -0.136,-0.858 -0.376,-1.554 l -4.285,-13.146 -5.622,16.601 -0.455,0 -6.372,-16.466 -3.748,12.636 c -0.243,0.803 -0.375,1.446 -0.375,1.956 0,0.481 0.563,0.748 1.392,1.018 l 0.99,0.319 0,0.188 -0.279,0 -0.217,-0.003 c -0.985,-0.024 -1.997,-0.165 -2.952,-0.165 -0.898,0 -1.781,0.1 -2.626,0.168 l -0.593,0 0,-0.188 0.885,-0.374 c 0.696,-0.294 1.204,-0.75 1.552,-1.929 l 5.115,-16.812 0.562,0 6.452,15.795 5.488,-15.795 0.643,0 5.651,16.412 c 0.399,1.392 0.856,1.901 1.445,2.221 L 0.119,-0.188 0.119,0 -0.034,0 0,0"
             inkscape:connector-curvature="0"
             id="path2276"
             style="fill:#1a1c44;fill-opacity:1;fill-rule:nonzero;stroke:none" />
        </g>
        <g
           transform="translate(474.6553,438.5234)"
           id="g2278">
          <path
             d="m 0,0 c 0.021,-0.128 0.041,-0.231 0.058,-0.392 0.055,-0.522 0.119,-2.97 0.119,-6.351 l 0,-3.166 c 0,-2.254 -0.111,-3.491 -0.633,-4.536 -0.825,-1.677 -1.822,-2.749 -4.928,-2.749 -4.153,0 -5.118,2.254 -5.118,5.278 l 0,10.425 c 0,0.673 0.013,1.092 0.067,1.365 l 0.015,0.128 c 0.1,0.508 0.562,0.705 1.392,0.973 l 0.992,0.32 0,0.19 -0.282,0 -0.217,-0.004 c -0.983,-0.026 -1.996,-0.164 -2.951,-0.164 -0.899,0 -1.782,0.097 -2.626,0.168 l -0.592,0 0,-0.19 0.882,-0.373 c 0.472,-0.199 0.858,-0.399 1.165,-0.92 l 0.047,-0.128 c 0.032,-0.273 0.045,-0.692 0.045,-1.365 l 0,-11.027 c 0,-3.026 1.181,-5.802 7.149,-5.802 4.015,0 5.044,1.542 5.978,3.601 0.523,1.157 0.604,2.256 0.604,5.116 l 0,2.86 c 0,3.381 0.066,5.829 0.121,6.351 0.017,0.161 0.036,0.289 0.095,0.394 0.266,0.45 0.492,0.699 0.834,0.886 l 1.178,0.482 0,0.187 -0.155,0 C 2.569,1.544 1.636,1.401 0.464,1.401 c -0.915,0 -2.261,0.156 -2.261,0.156 l -0.726,0 0,-0.187 1.364,-0.508 C -0.596,0.646 -0.082,0.466 0,0"
             inkscape:connector-curvature="0"
             id="path2280"
             style="fill:#1a1c44;fill-opacity:1;fill-rule:nonzero;stroke:none" />
        </g>
        <g
           transform="translate(460.9658,411.271)"
           id="g2282">
          <path
             d="m 0,0 c -1.021,-0.362 -2.507,-0.857 -4.473,-0.857 -5.007,0 -8.547,3.951 -8.547,9.567 0,5.276 3.208,8.665 8.187,8.665 2.267,0 4.231,-0.566 5.724,-1.639 0.026,-0.082 0.337,-0.236 0.387,-0.402 l 1.216,1.729 -0.082,0.086 c -1.383,0.479 -3.789,1.24 -7.024,1.24 -5.532,0 -10.842,-3.753 -10.842,-10.074 0,-6.632 4.923,-10.215 10.732,-10.215 3.009,0 5.7,0.853 6.896,1.288 l 0.007,6.616 0,0.278 c 0,0.481 0.562,0.748 1.392,1.018 l 0.989,0.321 0,0.185 -0.496,0 C 3.084,7.78 2.07,7.641 1.114,7.641 c -0.898,0 -1.782,0.099 -2.626,0.165 l -0.592,0 0,-0.185 0.884,-0.375 c 0.496,-0.211 0.897,-0.501 1.212,-1.08 L 0.008,6.004 0.006,-0.001 0,0"
             inkscape:connector-curvature="0"
             id="path2284"
             style="fill:#1a1c44;fill-opacity:1;fill-rule:nonzero;stroke:none" />
        </g>
      </g>
    </g>
    <g
       transform="matrix(0.84100951,0,0,-0.84344942,12.569986,52.576691)"
       id="g2294">
      <path
         d="M 0,0 1.003,0.12 0.988,-0.89 1.589,-0.112 2.253,-0.824 2.134,0.173 3.136,0.158 2.357,0.745 3.113,1.466 2.11,1.346 2.124,2.358 1.477,1.538 0.801,2.26 0.922,1.26 -0.071,1.266 0.705,0.682 0,0 z"
         inkscape:connector-curvature="0"
         id="path2296"
         style="fill:#ffffff;fill-opacity:1;fill-rule:nonzero;stroke:none" />
    </g>
    <g
       transform="matrix(0.84100951,0,0,-0.84344942,50.610871,53.431273)"
       id="g2298">
      <path
         d="M 0,0 -0.013,1.042 1.02,0.92 0.286,1.616 1.088,2.22 0.054,2.207 0.177,3.232 -0.509,2.498 -1.169,3.349 -1.153,2.31 -2.187,2.432 -1.417,1.679 -2.229,1.067 -1.192,1.083 -1.305,0.066 -0.623,0.799 0,0 z"
         inkscape:connector-curvature="0"
         id="path2300"
         style="fill:#ffffff;fill-opacity:1;fill-rule:nonzero;stroke:none" />
    </g>
    <g
       transform="matrix(0.84100951,0,0,-0.84344942,9.7093827,50.405901)"
       id="g2302">
      <path
         d="M 0,0 C -0.136,0.221 -0.177,0.36 0.008,0.666 0.045,0.738 1.104,2.281 2.784,4.543 L 2.684,4.725 0.342,4.569 1.63,6.479 1.523,6.652 C 0.095,6.446 -1.529,6.213 -2.85,6.058 -3.468,5.988 -3.606,6.011 -3.813,6.369 L -4.075,6.21 C -3.938,6.007 -3.8,5.805 -3.673,5.595 -3.532,5.361 -3.408,5.126 -3.272,4.873 l 0.257,0.154 c -0.106,0.181 -0.192,0.334 0.006,0.454 0.098,0.058 0.213,0.079 0.326,0.097 1.174,0.192 1.67,0.268 3.004,0.465 L -0.713,4.515 -2.057,4.442 C -2.539,4.414 -2.654,4.443 -2.85,4.767 L -3.113,4.609 c 0.125,-0.196 0.256,-0.385 0.374,-0.583 0.127,-0.211 0.247,-0.424 0.36,-0.643 l 0.26,0.155 c -0.056,0.106 -0.128,0.242 0.037,0.342 0.086,0.052 0.199,0.069 0.298,0.081 L -1.046,4.036 -1.49,3.403 C -1.543,3.328 -1.602,3.246 -1.679,3.199 -1.854,3.094 -1.937,3.233 -1.996,3.333 L -2.254,3.18 C -2.103,2.953 -1.942,2.713 -1.798,2.475 -1.649,2.228 -1.515,1.974 -1.38,1.722 l 0.266,0.157 c -0.138,0.244 -0.093,0.345 0.093,0.645 L 0.029,4.095 1.444,4.202 -0.299,1.814 C -0.375,1.72 -0.525,1.523 -0.626,1.461 -0.812,1.351 -0.907,1.523 -0.976,1.636 L -1.234,1.481 C -1.063,1.223 -0.893,0.967 -0.737,0.708 -0.568,0.426 -0.41,0.137 -0.253,-0.154 L 0,0"
         inkscape:connector-curvature="0"
         id="path2304"
         style="fill:#ffffff;fill-opacity:1;fill-rule:nonzero;stroke:none" />
    </g>
    <g
       transform="matrix(0.84100951,0,0,-0.84344942,6.1276854,44.38022)"
       id="g2306">
      <path
         d="M 0,0 C -0.13,0.414 -0.133,0.548 0.409,0.759 0.544,0.816 0.761,0.894 1.076,1.01 L 2.644,1.58 3.206,1.777 C 3.795,1.978 3.902,1.973 4.099,1.492 L 4.39,1.598 c -0.222,0.543 -0.285,0.7 -0.5,1.27 L 3.499,3.941 C 3.29,4.536 3.243,4.682 3.093,5.164 2.577,5.082 2.422,5.062 1.782,5.008 L 1.807,4.719 C 2.616,4.724 2.901,4.581 3.22,3.706 3.438,3.107 3.482,2.921 3.098,2.73 2.863,2.614 1.887,2.267 1.581,2.163 L 1.382,2.716 C 1.152,3.408 1.093,3.572 1.66,3.794 L 1.556,4.076 C 1.323,3.978 1.118,3.886 0.894,3.806 0.626,3.708 0.35,3.623 0.076,3.537 L 0.175,3.261 C 0.679,3.414 0.745,3.438 1.09,2.512 L 1.259,2.045 0.628,1.816 C 0.19,1.664 -0.13,1.547 -0.288,1.505 -0.45,1.461 -0.494,1.497 -0.625,1.858 -1.032,2.977 -0.882,3.135 -0.274,3.477 L -0.416,3.762 C -0.932,3.5 -1.055,3.446 -1.516,3.263 -1.271,2.675 -1.228,2.556 -0.987,1.889 -0.509,0.575 -0.386,0.216 -0.289,-0.106 L 0,0"
         inkscape:connector-curvature="0"
         id="path2308"
         style="fill:#ffffff;fill-opacity:1;fill-rule:nonzero;stroke:none" />
    </g>
    <g
       transform="matrix(0.84100951,0,0,-0.84344942,7.3300801,39.760648)"
       id="g2310">
      <path
         d="M 0,0 C 0.458,0.223 0.563,0.268 1.094,0.485 1.148,0.905 1.204,1.294 1.092,1.776 0.839,2.869 -0.011,3.348 -0.817,3.163 -1.526,2.998 -1.776,2.43 -1.936,2.027 -2.046,1.735 -2.13,1.436 -2.242,1.144 -2.355,0.86 -2.503,0.559 -2.837,0.481 -3.231,0.389 -3.592,0.645 -3.699,1.109 -3.856,1.785 -3.31,2.068 -3.005,2.232 L -3.138,2.569 C -3.597,2.376 -3.695,2.338 -4.123,2.198 -4.146,1.861 -4.165,1.541 -4.075,1.144 c 0.242,-1.042 1.021,-1.525 1.786,-1.347 0.75,0.172 0.987,0.736 1.334,1.781 0.143,0.413 0.284,0.764 0.708,0.86 C 0.135,2.527 0.598,2.295 0.727,1.742 0.922,0.897 0.18,0.532 -0.175,0.356 L 0,0"
         inkscape:connector-curvature="0"
         id="path2312"
         style="fill:#ffffff;fill-opacity:1;fill-rule:nonzero;stroke:none" />
    </g>
    <g
       transform="matrix(0.84100951,0,0,-0.84344942,3.4773279,36.871577)"
       id="g2314">
      <path
         d="M 0,0 C 0.51,-0.064 0.674,-0.086 1.317,-0.212 L 1.277,0.115 C 0.396,0.338 0.365,0.645 0.279,1.454 L 3.346,1.83 C 4.47,1.975 4.583,1.982 4.678,1.385 L 4.963,1.422 C 4.91,1.788 4.845,2.147 4.799,2.516 4.757,2.864 4.728,3.213 4.7,3.561 L 4.4,3.524 C 4.465,2.934 4.287,2.912 3.645,2.832 L 0.165,2.393 C 0.048,3.23 -0.009,3.633 0.492,3.694 0.59,3.706 0.703,3.706 0.838,3.703 L 0.799,4.008 C 0.279,4.05 0.137,4.066 -0.512,4.179 L -0.485,3.956 C -0.412,3.88 -0.364,3.822 -0.304,3.506 -0.283,3.394 -0.27,3.292 -0.249,3.18 -0.194,2.793 -0.099,2.013 -0.047,1.589 -0.014,1.31 0.08,0.552 0.015,0.335 0.006,0.298 -0.011,0.261 -0.027,0.222 L 0,0"
         inkscape:connector-curvature="0"
         id="path2316"
         style="fill:#ffffff;fill-opacity:1;fill-rule:nonzero;stroke:none" />
    </g>
    <g
       transform="matrix(0.84100951,0,0,-0.84344942,3.4609318,32.530343)"
       id="g2318">
      <path
         d="M 0,0 C 0.03,0.434 0.074,0.56 0.654,0.562 0.802,0.567 1.033,0.563 1.37,0.558 L 3.035,0.527 3.632,0.512 C 4.255,0.485 4.351,0.443 4.363,-0.076 L 4.672,-0.083 C 4.661,0.507 4.657,0.677 4.659,1.286 L 4.68,2.427 C 4.698,3.056 4.708,3.211 4.738,3.714 4.229,3.821 4.075,3.858 3.462,4.038 L 3.38,3.757 C 4.138,3.47 4.351,3.238 4.335,2.306 4.323,1.67 4.299,1.479 3.871,1.44 3.611,1.415 2.576,1.44 2.254,1.453 L 2.263,2.042 C 2.297,2.768 2.301,2.944 2.909,2.946 L 2.916,3.248 C 2.662,3.239 2.438,3.229 2.2,3.232 1.913,3.238 1.626,3.256 1.341,3.276 L 1.334,2.982 C 1.86,2.945 1.929,2.944 1.92,1.955 L 1.91,1.459 1.239,1.471 C 0.776,1.485 0.433,1.49 0.272,1.508 0.104,1.526 0.077,1.575 0.085,1.959 0.105,3.15 0.303,3.245 0.991,3.346 L 0.961,3.661 C 0.386,3.6 0.252,3.596 -0.244,3.59 -0.228,2.952 -0.229,2.827 -0.243,2.121 -0.268,0.719 -0.279,0.342 -0.307,0.005 L 0,0"
         inkscape:connector-curvature="0"
         id="path2320"
         style="fill:#ffffff;fill-opacity:1;fill-rule:nonzero;stroke:none" />
    </g>
    <g
       transform="matrix(0.84100951,0,0,-0.84344942,3.689269,27.828369)"
       id="g2322">
      <path
         d="M 0,0 C 0.079,0.312 0.16,0.509 0.57,0.444 0.756,0.408 2.035,0.128 2.478,0.024 2.806,-0.052 3.768,-0.275 4.035,-0.364 4.347,-0.472 4.331,-0.7 4.263,-0.992 L 4.557,-1.06 c 0.061,0.36 0.128,0.711 0.21,1.067 0.072,0.312 0.15,0.583 0.258,0.968 L 4.731,1.042 C 4.587,0.507 4.459,0.509 3.815,0.65 L 2.696,0.908 C 2.729,1.081 2.745,1.154 2.781,1.34 l 2.082,0.7 C 5.321,2.214 5.344,2.294 5.612,3.448 L 5.304,3.52 C 5.222,3.257 5.03,3.137 4.639,2.968 3.96,2.679 3.804,2.621 2.729,2.231 2.687,2.42 2.61,2.746 2.326,3.043 2.193,3.18 1.989,3.328 1.689,3.397 1.144,3.524 0.83,3.286 0.735,3.215 0.48,3.016 0.329,2.763 0.197,2.197 0.148,1.984 -0.029,1.057 -0.072,0.871 -0.135,0.599 -0.199,0.354 -0.279,0.065 L 0,0 M 0.405,1.443 C 0.478,1.786 0.544,2.137 0.813,2.341 1.102,2.562 1.463,2.478 1.565,2.456 2.61,2.214 2.447,1.39 2.366,0.977 2.102,1.037 1.833,1.094 1.566,1.154 1.179,1.243 0.9,1.315 0.405,1.443"
         inkscape:connector-curvature="0"
         id="path2324"
         style="fill:#ffffff;fill-opacity:1;fill-rule:evenodd;stroke:none" />
    </g>
    <g
       transform="matrix(0.84100951,0,0,-0.84344942,4.8226942,22.897395)"
       id="g2326">
      <path
         d="M 0,0 C 0.249,0.525 0.411,0.476 1.045,0.194 1.48,0 3.662,-0.987 3.912,-1.167 4.121,-1.314 4.126,-1.476 3.992,-1.778 l 0.269,-0.119 c 0.116,0.277 0.22,0.53 0.338,0.793 0.104,0.236 0.216,0.469 0.329,0.704 l -0.27,0.121 C 4.515,-0.585 4.414,-0.708 4.039,-0.587 3.904,-0.543 3.774,-0.493 3.264,-0.279 L 1.052,0.674 6.158,2.247 6.289,2.542 C 5.098,3.065 3.917,3.6 2.747,4.158 2.159,4.435 2.052,4.506 2.25,4.983 L 1.962,5.114 C 1.854,4.869 1.752,4.623 1.645,4.387 1.534,4.131 1.416,3.884 1.302,3.629 L 1.576,3.507 C 1.782,3.951 1.895,3.978 2.436,3.766 2.848,3.606 4.214,2.991 4.7,2.774 L 0.306,1.428 C 0.196,1.147 0.125,0.971 0.031,0.759 -0.066,0.542 -0.165,0.334 -0.27,0.119 L 0,0"
         inkscape:connector-curvature="0"
         id="path2328"
         style="fill:#ffffff;fill-opacity:1;fill-rule:nonzero;stroke:none" />
    </g>
    <g
       transform="matrix(0.84100951,0,0,-0.84344942,13.807616,12.685841)"
       id="g2330">
      <path
         d="m 0,0 c -0.27,-0.331 -0.484,-0.591 -0.731,-0.866 -0.25,-0.276 -0.438,-0.454 -0.726,-0.751 l 0.228,-0.207 c 0.489,0.542 0.547,0.565 1.118,0.048 0.308,-0.275 0.389,-0.405 0.356,-0.61 -0.018,-0.116 -0.097,-0.318 -0.295,-0.538 -0.284,-0.316 -0.811,-0.661 -1.501,-0.567 -0.175,0.025 -0.631,0.084 -1.244,0.638 -1.094,0.984 -1.092,2.198 -0.433,2.933 0.283,0.313 0.627,0.483 0.936,0.535 0.383,0.05 0.633,-0.072 0.95,-0.244 l 0.166,0.237 c -0.543,0.394 -0.682,0.501 -0.993,0.771 -0.528,-0.345 -1.018,-0.657 -1.425,-1.11 -1.128,-1.255 -1.049,-2.798 0.086,-3.818 0.531,-0.478 1.219,-0.761 1.931,-0.684 0.934,0.099 1.579,0.773 1.82,1.038 0.468,0.521 0.697,0.993 0.947,1.522 -0.264,0.199 -0.419,0.321 -0.623,0.503 -0.546,0.492 -0.592,0.63 -0.338,0.964 L 0,0"
         inkscape:connector-curvature="0"
         id="path2332"
         style="fill:#ffffff;fill-opacity:1;fill-rule:nonzero;stroke:none" />
    </g>
    <g
       transform="matrix(0.84100951,0,0,-0.84344942,14.639629,8.9689207)"
       id="g2334">
      <path
         d="m 0,0 c -1.226,-0.96 -1.464,-2.489 -0.55,-3.704 0.945,-1.253 2.484,-1.362 3.675,-0.465 1.313,0.99 1.513,2.541 0.603,3.75 C 2.85,0.745 1.322,1.039 0,0 M 0.251,-0.311 C 0.997,0.25 2.129,0.051 2.975,-1.073 3.802,-2.17 3.663,-3.264 2.94,-3.808 2.152,-4.403 0.997,-4.091 0.217,-3.056 c -0.7,0.927 -0.788,2.126 0.034,2.745"
         inkscape:connector-curvature="0"
         id="path2336"
         style="fill:#ffffff;fill-opacity:1;fill-rule:evenodd;stroke:none" />
    </g>
    <g
       transform="matrix(0.84100951,0,0,-0.84344942,16.890003,7.6485848)"
       id="g2338">
      <path
         d="M 0,0 C 0.243,0.111 0.424,0.152 0.922,-0.275 1.373,-0.657 1.831,-1.072 2.542,-1.73 L 4.175,-3.222 4.39,-3.118 C 4.329,-2.15 4.328,-2.035 4.295,-0.967 4.276,-0.315 4.252,0.389 4.227,1.094 4.194,1.818 4.221,2.019 4.587,2.214 L 4.455,2.477 C 4.215,2.351 3.971,2.225 3.727,2.105 3.48,1.986 3.231,1.871 2.978,1.756 L 3.109,1.485 C 3.279,1.568 3.518,1.684 3.652,1.408 3.729,1.251 3.745,0.946 3.772,0.445 L 3.898,-1.731 1.956,0.05 C 1.837,0.163 1.709,0.281 1.645,0.413 1.5,0.708 1.749,0.837 1.907,0.914 L 1.777,1.18 C 1.47,1.012 1.164,0.84 0.85,0.688 0.527,0.53 0.197,0.392 -0.123,0.251 L 0,0"
         inkscape:connector-curvature="0"
         id="path2340"
         style="fill:#ffffff;fill-opacity:1;fill-rule:nonzero;stroke:none" />
    </g>
    <g
       transform="matrix(0.84100951,0,0,-0.84344942,21.123813,5.6565324)"
       id="g2342">
      <path
         d="M 0,0 C 0.414,0.128 0.547,0.131 0.759,-0.411 0.816,-0.546 0.894,-0.764 1.01,-1.079 l 0.57,-1.568 0.196,-0.56 C 1.977,-3.796 1.971,-3.904 1.49,-4.101 L 1.596,-4.39 c 0.547,0.219 0.702,0.285 1.272,0.501 L 3.939,-3.5 c 0.596,0.21 0.743,0.255 1.226,0.407 -0.086,0.516 -0.103,0.67 -0.156,1.308 L 4.718,-1.808 C 4.721,-2.62 4.579,-2.902 3.703,-3.221 3.105,-3.438 2.921,-3.484 2.729,-3.1 2.613,-2.866 2.267,-1.888 2.163,-1.582 l 0.552,0.201 c 0.692,0.227 0.855,0.289 1.077,-0.28 l 0.283,0.104 c -0.098,0.231 -0.188,0.439 -0.27,0.66 -0.098,0.27 -0.184,0.544 -0.268,0.82 L 3.262,-0.178 C 3.413,-0.681 3.437,-0.746 2.514,-1.092 l -0.47,-0.17 -0.23,0.634 C 1.663,-0.194 1.547,0.13 1.504,0.287 1.46,0.448 1.496,0.491 1.858,0.623 2.978,1.031 3.137,0.88 3.476,0.274 L 3.76,0.413 C 3.497,0.93 3.446,1.052 3.264,1.515 2.674,1.27 2.556,1.228 1.891,0.985 0.573,0.506 0.217,0.384 -0.106,0.289 L 0,0"
         inkscape:connector-curvature="0"
         id="path2344"
         style="fill:#ffffff;fill-opacity:1;fill-rule:nonzero;stroke:none" />
    </g>
    <g
       transform="matrix(0.84100951,0,0,-0.84344942,25.451224,4.1965148)"
       id="g2346">
      <path
         d="m 0,0 c 0.318,0.048 0.53,0.05 0.631,-0.353 0.04,-0.185 0.28,-1.471 0.36,-1.919 C 1.048,-2.604 1.22,-3.576 1.24,-3.857 1.262,-4.186 1.05,-4.261 0.754,-4.314 l 0.052,-0.295 c 0.354,0.083 0.703,0.16 1.062,0.223 0.318,0.057 0.596,0.09 0.992,0.139 L 2.809,-3.95 c -0.549,-0.076 -0.6,0.043 -0.72,0.692 L 1.89,-2.129 c 0.172,0.037 0.246,0.052 0.43,0.091 L 3.777,-3.68 C 4.116,-4.033 4.2,-4.025 5.365,-3.818 l -0.053,0.309 c -0.274,-0.027 -0.459,0.104 -0.767,0.398 -0.531,0.51 -0.646,0.634 -1.427,1.471 0.159,0.111 0.431,0.309 0.591,0.686 0.075,0.176 0.131,0.421 0.078,0.725 C 3.691,0.322 3.35,0.518 3.246,0.578 2.964,0.735 2.671,0.776 2.098,0.675 1.886,0.637 0.961,0.438 0.772,0.405 0.498,0.358 0.249,0.32 -0.05,0.281 L 0,0 M 1.487,0.19 C 1.831,0.257 2.182,0.333 2.475,0.166 2.79,-0.014 2.853,-0.38 2.872,-0.483 3.06,-1.537 2.236,-1.711 1.823,-1.799 1.776,-1.53 1.723,-1.263 1.675,-0.993 1.604,-0.6 1.562,-0.316 1.487,0.19"
         inkscape:connector-curvature="0"
         id="path2348"
         style="fill:#ffffff;fill-opacity:1;fill-rule:evenodd;stroke:none" />
    </g>
    <g
       transform="matrix(0.84100951,0,0,-0.84344942,30.613845,3.4111829)"
       id="g2350">
      <path
         d="M 0,0 C 0.58,-0.043 0.593,-0.213 0.557,-0.905 0.53,-1.381 0.393,-3.772 0.313,-4.07 0.252,-4.319 0.101,-4.381 -0.229,-4.362 l -0.015,-0.294 c 0.303,-0.01 0.574,-0.018 0.862,-0.032 0.257,-0.014 0.517,-0.034 0.774,-0.055 l 0.015,0.294 C 1.072,-4.425 0.92,-4.375 0.898,-3.981 0.894,-3.84 0.894,-3.7 0.908,-3.148 l 0.098,2.408 3.3,-4.205 0.322,-0.015 c 0.06,1.299 0.137,2.592 0.238,3.885 0.048,0.65 0.076,0.775 0.594,0.76 L 5.478,0 C 5.212,0.014 4.944,0.022 4.687,0.034 4.407,0.05 4.135,0.07 3.854,0.086 L 3.839,-0.215 C 4.327,-0.248 4.394,-0.342 4.39,-0.924 4.388,-1.365 4.304,-2.862 4.275,-3.394 L 1.442,0.225 C 1.141,0.228 0.952,0.23 0.722,0.243 0.484,0.256 0.252,0.275 0.016,0.294 L 0,0"
         inkscape:connector-curvature="0"
         id="path2352"
         style="fill:#ffffff;fill-opacity:1;fill-rule:nonzero;stroke:none" />
    </g>
    <g
       transform="matrix(0.84100951,0,0,-0.84344942,38.15585,3.8077723)"
       id="g2354">
      <path
         d="m 0,0 c -1.523,0.323 -2.851,-0.477 -3.193,-1.957 -0.353,-1.529 0.552,-2.78 2.006,-3.117 1.602,-0.368 2.919,0.477 3.259,1.952 C 2.401,-1.704 1.644,-0.343 0,0 M -0.077,-0.391 C 0.829,-0.6 1.404,-1.596 1.089,-2.967 0.778,-4.305 -0.15,-4.903 -1.029,-4.7 c -0.963,0.223 -1.467,1.31 -1.176,2.572 0.263,1.133 1.124,1.968 2.128,1.737"
         inkscape:connector-curvature="0"
         id="path2356"
         style="fill:#ffffff;fill-opacity:1;fill-rule:evenodd;stroke:none" />
    </g>
    <g
       transform="matrix(0.84100951,0,0,-0.84344942,41.135546,4.9555382)"
       id="g2358">
      <path
         d="M 0,0 C 0.295,-0.127 0.479,-0.238 0.348,-0.632 0.284,-0.809 -0.194,-2.029 -0.364,-2.451 -0.489,-2.764 -0.859,-3.679 -0.992,-3.928 -1.147,-4.22 -1.367,-4.169 -1.646,-4.055 L -1.76,-4.336 c 0.346,-0.117 0.684,-0.236 1.02,-0.372 0.299,-0.122 0.554,-0.239 0.916,-0.408 l 0.114,0.279 c -0.506,0.226 -0.485,0.355 -0.245,0.968 l 0.43,1.063 C 0.64,-2.864 0.712,-2.894 0.89,-2.957 L 1.253,-5.123 C 1.355,-5.601 1.431,-5.64 2.528,-6.081 l 0.118,0.292 c -0.246,0.122 -0.334,0.331 -0.44,0.743 -0.179,0.715 -0.212,0.879 -0.431,2.001 0.194,0.013 0.529,0.037 0.866,0.27 0.157,0.112 0.335,0.288 0.451,0.574 0.209,0.519 0.024,0.866 -0.031,0.972 -0.158,0.282 -0.383,0.472 -0.923,0.69 C 1.937,-0.457 1.047,-0.137 0.872,-0.065 0.612,0.04 0.383,0.14 0.107,0.267 L 0,0 M 1.364,-0.627 C 1.689,-0.752 2.027,-0.873 2.186,-1.171 2.359,-1.49 2.22,-1.834 2.18,-1.931 1.78,-2.926 0.99,-2.635 0.595,-2.49 c 0.101,0.251 0.198,0.508 0.3,0.76 0.15,0.371 0.263,0.634 0.469,1.103"
         inkscape:connector-curvature="0"
         id="path2360"
         style="fill:#ffffff;fill-opacity:1;fill-rule:evenodd;stroke:none" />
    </g>
    <g
       transform="matrix(0.84100951,0,0,-0.84344942,44.083957,9.2852137)"
       id="g2362">
      <path
         d="m 0,0 c -0.159,-0.484 -0.199,-0.59 -0.414,-1.124 0.267,-0.331 0.507,-0.639 0.932,-0.895 0.961,-0.578 1.898,-0.298 2.324,0.408 0.375,0.626 0.139,1.201 -0.041,1.593 C 2.668,0.267 2.512,0.535 2.38,0.818 2.254,1.097 2.141,1.411 2.316,1.705 2.525,2.053 2.961,2.136 3.367,1.889 3.961,1.534 3.786,0.943 3.692,0.608 L 4.026,0.472 C 4.208,0.937 4.249,1.032 4.444,1.438 4.219,1.689 4.002,1.927 3.652,2.136 2.734,2.688 1.848,2.46 1.442,1.788 1.045,1.129 1.287,0.566 1.798,-0.409 1.997,-0.8 2.147,-1.145 1.926,-1.516 1.724,-1.852 1.234,-2.024 0.749,-1.732 0.006,-1.284 0.258,-0.497 0.377,-0.121 L 0,0"
         inkscape:connector-curvature="0"
         id="path2364"
         style="fill:#ffffff;fill-opacity:1;fill-rule:nonzero;stroke:none" />
    </g>
    <g
       transform="matrix(0.84100951,0,0,-0.84344942,51.750857,11.366685)"
       id="g2366">
      <path
         d="m 0,0 c 0.336,-0.394 0.196,-0.521 -0.425,-1.089 l -1.214,-1.092 c -0.483,-0.446 -0.968,-0.901 -0.87,-1.68 0.071,-0.529 0.376,-0.961 0.625,-1.236 0.356,-0.396 0.866,-0.775 1.448,-0.816 0.743,-0.049 1.297,0.434 1.783,0.859 l 0.846,0.744 c 0.271,0.244 0.62,0.548 0.765,0.614 0.256,0.125 0.42,-0.058 0.536,-0.188 L 3.72,-3.681 C 3.53,-3.483 3.333,-3.283 3.117,-3.044 2.916,-2.82 2.79,-2.67 2.633,-2.472 L 2.409,-2.675 c 0.352,-0.427 0.28,-0.491 -0.452,-1.152 l -0.96,-0.862 c -0.414,-0.365 -0.783,-0.669 -1.218,-0.729 -0.344,-0.048 -0.805,0.057 -1.174,0.468 -0.283,0.311 -0.36,0.619 -0.35,0.89 0.017,0.526 0.326,0.832 0.939,1.385 l 0.973,0.857 c 0.732,0.649 0.812,0.711 1.195,0.304 l 0.226,0.2 C 1.336,-1.078 1.087,-0.84 0.861,-0.591 0.631,-0.336 0.427,-0.067 0.223,0.202 L 0,0"
         inkscape:connector-curvature="0"
         id="path2368"
         style="fill:#ffffff;fill-opacity:1;fill-rule:nonzero;stroke:none" />
    </g>
    <g
       transform="matrix(0.84100951,0,0,-0.84344942,55.196136,15.346754)"
       id="g2370">
      <path
         d="m 0,0 c 0.287,-0.505 0.156,-0.61 -0.439,-0.964 -0.411,-0.247 -2.468,-1.469 -2.759,-1.571 -0.241,-0.086 -0.377,0.003 -0.548,0.285 l -0.25,-0.152 c 0.16,-0.254 0.308,-0.484 0.453,-0.731 0.135,-0.221 0.263,-0.448 0.39,-0.673 l 0.252,0.152 c -0.167,0.293 -0.21,0.446 0.103,0.683 0.114,0.085 0.231,0.163 0.697,0.458 l 2.049,1.267 -1.64,-5.087 0.167,-0.277 c 1.112,0.677 2.227,1.338 3.355,1.976 0.566,0.323 0.685,0.37 0.964,-0.068 l 0.27,0.163 C 2.927,-4.311 2.783,-4.088 2.649,-3.865 2.506,-3.624 2.371,-3.387 2.227,-3.147 L 1.97,-3.301 C 2.216,-3.725 2.174,-3.831 1.687,-4.155 1.322,-4.401 0.034,-5.167 -0.423,-5.441 l 1.416,4.373 C 0.826,-0.818 0.724,-0.659 0.605,-0.46 0.481,-0.257 0.368,-0.055 0.252,0.152 L 0,0"
         inkscape:connector-curvature="0"
         id="path2372"
         style="fill:#ffffff;fill-opacity:1;fill-rule:nonzero;stroke:none" />
    </g>
    <g
       transform="matrix(0.84100951,0,0,-0.84344942,57.778284,19.894634)"
       id="g2374">
      <path
         d="m 0,0 c 0.205,-0.484 0.187,-0.545 -0.939,-1.095 l -1.592,-0.778 c -0.516,-0.252 -0.617,-0.3 -0.75,-0.349 -0.342,-0.144 -0.476,-0.029 -0.641,0.294 l -0.265,-0.128 c 0.188,-0.339 0.305,-0.546 0.47,-0.885 0.164,-0.334 0.279,-0.605 0.433,-0.966 l 0.277,0.135 c -0.179,0.381 -0.185,0.51 0.293,0.776 0.165,0.087 0.359,0.188 0.811,0.411 l 1.285,0.625 c 0.252,0.122 0.597,0.292 0.799,0.374 0.382,0.172 0.518,0.136 0.726,-0.262 l 0.273,0.133 c -0.178,0.328 -0.319,0.584 -0.461,0.882 -0.157,0.321 -0.3,0.641 -0.445,0.968 L 0,0"
         inkscape:connector-curvature="0"
         id="path2376"
         style="fill:#ffffff;fill-opacity:1;fill-rule:nonzero;stroke:none" />
    </g>
    <g
       transform="matrix(0.84100951,0,0,-0.84344942,58.912556,22.386265)"
       id="g2378">
      <path
         d="M 0,0 C 0.067,-0.258 0.077,-0.445 -0.431,-0.859 -0.883,-1.235 -1.37,-1.617 -2.142,-2.203 l -1.755,-1.348 0.064,-0.23 c 0.965,-0.109 1.078,-0.127 2.136,-0.284 0.644,-0.091 1.344,-0.189 2.042,-0.287 0.718,-0.093 0.912,-0.155 1.04,-0.548 l 0.281,0.08 c -0.08,0.262 -0.162,0.522 -0.238,0.787 -0.076,0.26 -0.145,0.525 -0.215,0.796 L 0.923,-3.32 c 0.053,-0.182 0.125,-0.438 -0.17,-0.522 -0.17,-0.049 -0.47,-0.011 -0.969,0.051 l -2.164,0.253 2.089,1.604 c 0.136,0.096 0.271,0.201 0.414,0.242 0.314,0.09 0.399,-0.177 0.446,-0.344 l 0.284,0.08 c -0.111,0.333 -0.227,0.664 -0.323,1 -0.099,0.344 -0.177,0.694 -0.259,1.033 L 0,0"
         inkscape:connector-curvature="0"
         id="path2380"
         style="fill:#ffffff;fill-opacity:1;fill-rule:nonzero;stroke:none" />
    </g>
    <g
       transform="matrix(0.84100951,0,0,-0.84344942,60.108385,27.194938)"
       id="g2382">
      <path
         d="m 0,0 c 0.03,-0.434 0.005,-0.565 -0.57,-0.649 -0.146,-0.025 -0.375,-0.053 -0.708,-0.094 l -1.656,-0.204 -0.59,-0.066 c -0.622,-0.06 -0.724,-0.031 -0.807,0.481 l -0.307,-0.037 c 0.093,-0.583 0.119,-0.749 0.201,-1.353 l 0.139,-1.133 c 0.071,-0.626 0.082,-0.779 0.121,-1.282 0.522,-0.035 0.68,-0.051 1.31,-0.143 l 0.043,0.285 c -0.79,0.181 -1.033,0.383 -1.149,1.308 -0.077,0.633 -0.079,0.822 0.34,0.923 0.253,0.059 1.281,0.18 1.603,0.211 l 0.073,-0.582 c 0.066,-0.728 0.088,-0.902 -0.515,-0.99 l 0.037,-0.297 c 0.248,0.043 0.469,0.085 0.706,0.113 0.285,0.036 0.571,0.057 0.858,0.078 l -0.036,0.292 c -0.525,-0.037 -0.595,-0.045 -0.721,0.935 l -0.061,0.492 0.668,0.082 c 0.459,0.05 0.8,0.093 0.96,0.098 0.169,0.008 0.204,-0.04 0.25,-0.422 0.145,-1.181 -0.038,-1.302 -0.705,-1.498 l 0.073,-0.308 c 0.562,0.14 0.692,0.162 1.184,0.237 -0.104,0.631 -0.122,0.756 -0.206,1.458 -0.171,1.39 -0.212,1.766 -0.23,2.102 L 0,0"
         inkscape:connector-curvature="0"
         id="path2384"
         style="fill:#ffffff;fill-opacity:1;fill-rule:nonzero;stroke:none" />
    </g>
    <g
       transform="matrix(0.84100951,0,0,-0.84344942,60.546894,31.51846)"
       id="g2386">
      <path
         d="m 0,0 c -0.013,-0.322 -0.05,-0.532 -0.465,-0.553 -0.19,-0.003 -1.498,0.006 -1.955,0.013 -0.335,0.007 -1.323,0.024 -1.601,0.058 -0.33,0.04 -0.361,0.264 -0.355,0.565 l -0.301,0.006 c 0.015,-0.365 0.022,-0.723 0.016,-1.087 -0.006,-0.321 -0.026,-0.6 -0.053,-1 l 0.301,-0.005 c 0.03,0.552 0.158,0.578 0.816,0.572 l 1.149,-0.018 c 0.005,-0.174 0.002,-0.252 0.006,-0.441 l -1.89,-1.116 c -0.411,-0.267 -0.419,-0.349 -0.44,-1.534 l 0.316,-0.006 c 0.026,0.274 0.187,0.432 0.536,0.678 0.604,0.423 0.744,0.513 1.715,1.119 0.082,-0.177 0.222,-0.48 0.561,-0.71 0.16,-0.109 0.388,-0.212 0.699,-0.216 0.558,-0.009 0.816,0.288 0.895,0.376 0.207,0.248 0.303,0.527 0.313,1.108 0.003,0.217 -0.014,1.164 -0.011,1.355 0.005,0.278 0.016,0.53 0.035,0.831 L 0,0 m -0.095,-1.497 c 0,-0.35 0.007,-0.707 -0.215,-0.962 -0.236,-0.277 -0.606,-0.271 -0.711,-0.27 -1.072,0.02 -1.084,0.861 -1.091,1.28 0.272,-0.004 0.546,-0.002 0.818,-0.006 0.398,-0.007 0.687,-0.02 1.199,-0.042"
         inkscape:connector-curvature="0"
         id="path2388"
         style="fill:#ffffff;fill-opacity:1;fill-rule:evenodd;stroke:none" />
    </g>
    <g
       transform="matrix(0.84100951,0,0,-0.84344942,57.522119,35.962595)"
       id="g2390">
      <path
         d="M 0,0 C -0.51,0.002 -0.623,0.006 -1.198,0.044 -1.43,-0.311 -1.65,-0.634 -1.762,-1.12 c -0.251,-1.089 0.303,-1.893 1.109,-2.081 0.71,-0.164 1.184,0.239 1.504,0.53 0.227,0.212 0.431,0.447 0.661,0.66 0.226,0.208 0.489,0.411 0.826,0.334 C 2.732,-1.769 2.945,-2.154 2.839,-2.619 2.683,-3.295 2.067,-3.311 1.72,-3.323 l -0.028,-0.36 c 0.497,-0.029 0.603,-0.04 1.048,-0.099 0.17,0.292 0.326,0.573 0.418,0.965 0.24,1.045 -0.248,1.819 -1.01,1.997 -0.752,0.173 -1.213,-0.231 -1.982,-1.016 -0.309,-0.309 -0.591,-0.561 -1.013,-0.464 -0.382,0.088 -0.697,0.499 -0.57,1.053 0.194,0.844 1.022,0.848 1.419,0.85 L 0,0"
         inkscape:connector-curvature="0"
         id="path2392"
         style="fill:#ffffff;fill-opacity:1;fill-rule:nonzero;stroke:none" />
    </g>
    <g
       transform="matrix(0.84100951,0,0,-0.84344942,59.356024,40.300119)"
       id="g2394">
      <path
         d="M 0,0 C -0.198,-0.489 -0.253,-0.521 -1.437,-0.113 L -3.112,0.465 C -3.657,0.651 -3.763,0.687 -3.89,0.746 -4.233,0.887 -4.248,1.062 -4.136,1.409 L -4.414,1.504 C -4.521,1.133 -4.584,0.905 -4.707,0.547 -4.828,0.194 -4.937,-0.078 -5.083,-0.442 l 0.29,-0.1 c 0.143,0.395 0.23,0.492 0.754,0.338 0.182,-0.052 0.389,-0.119 0.866,-0.281 l 1.35,-0.466 c 0.266,-0.091 0.631,-0.216 0.829,-0.299 0.394,-0.151 0.464,-0.271 0.331,-0.7 l 0.285,-0.098 c 0.108,0.356 0.191,0.638 0.296,0.95 0.117,0.338 0.244,0.664 0.374,0.997 L 0,0"
         inkscape:connector-curvature="0"
         id="path2396"
         style="fill:#ffffff;fill-opacity:1;fill-rule:nonzero;stroke:none" />
    </g>
    <g
       transform="matrix(0.84100951,0,0,-0.84344942,58.815592,42.943746)"
       id="g2398">
      <path
         d="M 0,0 C -0.402,0.318 -0.533,0.422 -1.02,0.86 L -1.153,0.561 c 0.64,-0.647 0.507,-0.926 0.166,-1.663 L -3.811,0.155 C -4.85,0.611 -4.949,0.661 -4.724,1.22 L -4.985,1.338 C -5.129,0.995 -5.259,0.655 -5.409,0.317 -5.552,-0.004 -5.707,-0.319 -5.862,-0.632 l 0.275,-0.123 c 0.248,0.541 0.413,0.468 1.003,0.205 l 3.212,-1.414 c -0.334,-0.78 -0.492,-1.154 -0.952,-0.948 -0.089,0.04 -0.186,0.098 -0.299,0.171 l -0.126,-0.282 c 0.424,-0.303 0.538,-0.393 1.038,-0.823 l 0.089,0.206 c -0.023,0.101 -0.034,0.176 0.077,0.481 0.039,0.104 0.081,0.2 0.121,0.305 0.153,0.36 0.474,1.078 0.646,1.469 0.115,0.254 0.424,0.952 0.592,1.107 0.029,0.027 0.061,0.05 0.095,0.074 L 0,0"
         inkscape:connector-curvature="0"
         id="path2400"
         style="fill:#ffffff;fill-opacity:1;fill-rule:nonzero;stroke:none" />
    </g>
    <g
       transform="matrix(0.84100951,0,0,-0.84344942,56.564459,46.924144)"
       id="g2402">
      <path
         d="m 0,0 c -0.251,-0.274 -0.39,-0.328 -1.054,-0.256 l -2.249,0.249 -0.759,0.588 C -4.578,0.979 -4.68,1.064 -4.361,1.544 L -4.58,1.708 C -4.84,1.35 -5.01,1.104 -5.208,0.839 -5.416,0.565 -5.629,0.305 -5.841,0.035 l 0.229,-0.172 c 0.33,0.401 0.445,0.401 0.954,0.018 l 0.825,-0.604 0.957,-2.105 c 0.244,-0.546 0.212,-0.693 -0.02,-1.024 L -2.67,-4.02 c 0.17,0.25 0.318,0.471 0.479,0.683 0.168,0.222 0.353,0.444 0.537,0.666 l -0.236,0.177 c -0.119,-0.146 -0.269,-0.323 -0.464,-0.176 -0.09,0.067 -0.144,0.16 -0.177,0.221 -0.221,0.393 -0.512,1.042 -0.756,1.578 l 1.636,-0.224 c 0.133,-0.022 0.27,-0.039 0.377,-0.118 0.212,-0.159 0.074,-0.353 -0.019,-0.477 l 0.235,-0.179 c 0.204,0.295 0.403,0.582 0.619,0.869 0.214,0.285 0.441,0.561 0.664,0.833 L 0,0"
         inkscape:connector-curvature="0"
         id="path2404"
         style="fill:#ffffff;fill-opacity:1;fill-rule:nonzero;stroke:none" />
    </g>
    <g
       transform="matrix(0.84100951,0,0,-0.84344942,18.908762,55.016034)"
       id="g2406">
      <path
         d="M 0,0 C 0.013,0.06 0.025,0.155 0.06,0.211 0.17,0.398 0.418,0.188 0.494,0.313 0.534,0.38 0.491,0.421 0.386,0.483 0.314,0.526 0.226,0.551 -0.071,0.729 -0.345,0.893 -0.452,0.986 -0.517,1.026 -0.577,1.063 -0.649,1.105 -0.696,1.022 -0.758,0.925 -0.618,0.856 -0.595,0.76 -0.551,0.586 -0.584,0.269 -0.676,0.115 -0.722,0.04 -0.759,0.016 -0.826,-0.024 l -0.621,-0.374 c -0.032,-0.018 -0.164,-0.101 -0.192,-0.085 -0.039,0.024 -0.008,0.138 0.006,0.197 l 0.199,1.065 c 0.029,0.146 0.063,0.275 0.093,0.325 0.093,0.152 0.297,-0.039 0.372,0.089 0.058,0.093 -0.035,0.126 -0.101,0.165 -0.077,0.046 -0.22,0.103 -0.441,0.235 -0.283,0.171 -0.352,0.243 -0.419,0.281 -0.077,0.048 -0.142,0.109 -0.201,0.011 -0.077,-0.128 0.153,-0.212 0.127,-0.406 l -0.325,-2.293 c -0.025,-0.165 -0.065,-0.304 0.013,-0.35 0.071,-0.042 0.126,0.037 0.23,0.1 l 1.229,0.752 c 0.059,0.038 0.092,0.055 0.108,0.047 0.021,-0.014 0.026,-0.046 0.014,-0.114 l -0.182,-1.284 c -0.025,-0.164 -0.062,-0.305 0.012,-0.349 0.071,-0.043 0.129,0.026 0.233,0.098 l 2.041,1.426 c 0.151,0.103 0.263,0.006 0.325,0.109 0.038,0.061 -0.02,0.089 -0.077,0.121 C 1.579,-0.234 1.476,-0.2 1.337,-0.118 1.146,-0.004 1.082,0.063 1.012,0.109 0.95,0.142 0.899,0.159 0.868,0.106 0.752,-0.088 1.187,-0.096 1.013,-0.385 0.935,-0.517 0.821,-0.592 0.687,-0.689 l -0.725,-0.526 c -0.062,-0.043 -0.121,-0.09 -0.154,-0.071 -0.037,0.023 0,0.135 0.006,0.199 L 0,0"
         inkscape:connector-curvature="0"
         id="path2408"
         style="fill:#ffffff;fill-opacity:1;fill-rule:nonzero;stroke:none" />
    </g>
    <g
       transform="matrix(0.84100951,0,0,-0.84344942,22.424686,56.760199)"
       id="g2410">
      <path
         d="M 0,0 C 0.008,0.06 0.013,0.158 0.039,0.217 0.128,0.412 0.396,0.23 0.458,0.363 0.492,0.434 0.443,0.469 0.334,0.52 0.26,0.556 0.168,0.571 -0.145,0.716 -0.434,0.851 -0.551,0.934 -0.619,0.967 -0.685,0.996 -0.76,1.03 -0.8,0.944 -0.847,0.84 -0.703,0.787 -0.67,0.694 -0.608,0.523 -0.608,0.206 -0.685,0.044 -0.723,-0.037 -0.754,-0.064 -0.819,-0.112 l -0.577,-0.436 c -0.031,-0.02 -0.155,-0.119 -0.182,-0.105 -0.041,0.02 -0.023,0.138 -0.016,0.197 l 0.088,1.081 c 0.014,0.149 0.033,0.281 0.057,0.333 0.077,0.161 0.3,-0.007 0.363,0.128 0.045,0.097 -0.05,0.12 -0.119,0.153 -0.082,0.037 -0.232,0.078 -0.461,0.187 -0.303,0.141 -0.379,0.205 -0.449,0.236 -0.08,0.039 -0.153,0.094 -0.201,-0.011 -0.063,-0.133 0.176,-0.197 0.17,-0.389 l -0.085,-2.315 c -0.006,-0.165 -0.032,-0.309 0.05,-0.348 0.075,-0.035 0.12,0.051 0.218,0.124 l 1.143,0.875 c 0.055,0.046 0.087,0.067 0.104,0.06 0.023,-0.011 0.029,-0.042 0.026,-0.112 l -0.048,-1.295 c -0.006,-0.166 -0.032,-0.31 0.051,-0.347 0.074,-0.036 0.124,0.041 0.218,0.123 l 1.882,1.631 c 0.14,0.119 0.263,0.033 0.314,0.143 0.029,0.063 -0.031,0.085 -0.09,0.111 C 1.598,-0.067 1.487,-0.046 1.343,0.023 1.142,0.118 1.069,0.177 0.996,0.213 0.931,0.244 0.879,0.253 0.853,0.195 0.756,-0.008 1.192,0.029 1.049,-0.278 0.983,-0.416 0.881,-0.502 0.756,-0.613 l -0.664,-0.6 c -0.059,-0.05 -0.113,-0.103 -0.149,-0.086 -0.039,0.018 -0.013,0.135 -0.013,0.197 L 0,0"
         inkscape:connector-curvature="0"
         id="path2412"
         style="fill:#ffffff;fill-opacity:1;fill-rule:nonzero;stroke:none" />
    </g>
    <g
       transform="matrix(0.84100951,0,0,-0.84344942,26.501652,57.930989)"
       id="g2414">
      <path
         d="M 0,0 C -0.009,0.059 -0.026,0.155 -0.014,0.217 0.032,0.43 0.335,0.314 0.364,0.456 0.381,0.532 0.326,0.557 0.208,0.582 0.128,0.6 0.035,0.592 -0.302,0.665 -0.615,0.731 -0.747,0.785 -0.823,0.801 -0.891,0.814 -0.973,0.834 -0.993,0.739 -1.016,0.626 -0.864,0.608 -0.81,0.525 -0.711,0.372 -0.64,0.064 -0.679,-0.11 -0.695,-0.2 -0.722,-0.233 -0.773,-0.293 l -0.465,-0.554 c -0.025,-0.027 -0.124,-0.149 -0.157,-0.144 -0.042,0.01 -0.05,0.127 -0.055,0.188 l -0.159,1.071 c -0.021,0.149 -0.032,0.283 -0.018,0.339 0.035,0.174 0.293,0.06 0.323,0.205 0.024,0.106 -0.075,0.106 -0.149,0.122 -0.087,0.02 -0.244,0.026 -0.492,0.079 -0.326,0.07 -0.414,0.115 -0.489,0.13 C -2.521,1.162 -2.605,1.198 -2.63,1.088 -2.66,0.942 -2.414,0.937 -2.376,0.745 l 0.438,-2.273 c 0.03,-0.163 0.039,-0.309 0.126,-0.326 0.082,-0.019 0.108,0.073 0.186,0.169 l 0.916,1.111 c 0.045,0.055 0.07,0.082 0.088,0.08 0.025,-0.007 0.039,-0.037 0.051,-0.103 l 0.246,-1.274 c 0.028,-0.163 0.038,-0.309 0.124,-0.327 0.082,-0.018 0.114,0.067 0.187,0.169 l 1.466,2.014 C 1.562,0.131 1.699,0.075 1.727,0.194 1.74,0.263 1.676,0.27 1.615,0.283 1.57,0.292 1.458,0.29 1.303,0.324 1.085,0.369 1.003,0.414 0.921,0.43 0.852,0.445 0.799,0.443 0.785,0.382 0.74,0.162 1.153,0.295 1.082,-0.036 1.051,-0.185 0.968,-0.292 0.875,-0.429 L 0.359,-1.161 C 0.314,-1.224 0.274,-1.286 0.236,-1.281 0.194,-1.269 0.192,-1.151 0.18,-1.09 L 0,0"
         inkscape:connector-curvature="0"
         id="path2416"
         style="fill:#ffffff;fill-opacity:1;fill-rule:nonzero;stroke:none" />
    </g>
    <g
       transform="matrix(0.84100951,0,0,-0.84344942,28.185265,59.033128)"
       id="g2418">
      <path
         d="m 0,0 c -0.159,0.021 -0.622,-0.342 -0.641,-0.499 -0.018,-0.159 0.343,-0.622 0.501,-0.642 0.159,-0.02 0.621,0.342 0.64,0.5 C 0.521,-0.481 0.156,-0.019 0,0"
         inkscape:connector-curvature="0"
         id="path2420"
         style="fill:#ffffff;fill-opacity:1;fill-rule:nonzero;stroke:none" />
    </g>
    <g
       transform="matrix(0.84100951,0,0,-0.84344942,31.494301,58.504285)"
       id="g2422">
      <path
         d="M 0,0 C -0.018,0.058 -0.056,0.148 -0.054,0.212 -0.051,0.429 0.268,0.372 0.271,0.519 0.272,0.596 0.215,0.61 0.093,0.612 0.011,0.612 -0.079,0.588 -0.424,0.593 -0.745,0.6 -0.885,0.627 -0.96,0.629 -1.031,0.63 -1.113,0.631 -1.114,0.536 -1.117,0.42 -0.964,0.431 -0.893,0.36 c 0.124,-0.131 0.253,-0.419 0.25,-0.599 -0.001,-0.089 -0.022,-0.128 -0.062,-0.197 l -0.35,-0.633 c -0.019,-0.033 -0.091,-0.17 -0.123,-0.17 -0.044,0.001 -0.075,0.117 -0.093,0.175 l -0.36,1.021 c -0.047,0.142 -0.084,0.271 -0.083,0.327 0.004,0.18 0.277,0.118 0.279,0.264 0.002,0.109 -0.093,0.092 -0.171,0.093 -0.088,0 -0.242,-0.022 -0.499,-0.017 -0.332,0.006 -0.427,0.033 -0.504,0.034 -0.088,0.001 -0.177,0.023 -0.18,-0.092 -0.002,-0.148 0.241,-0.108 0.313,-0.288 l 0.864,-2.148 c 0.062,-0.154 0.098,-0.296 0.189,-0.297 0.082,-0.001 0.09,0.094 0.15,0.201 l 0.686,1.266 c 0.032,0.062 0.052,0.095 0.071,0.095 0.026,0 0.046,-0.027 0.069,-0.091 l 0.484,-1.203 c 0.062,-0.155 0.097,-0.295 0.185,-0.297 0.084,-0.002 0.098,0.088 0.152,0.202 L 1.431,0.261 C 1.509,0.426 1.655,0.4 1.657,0.519 1.657,0.59 1.593,0.585 1.53,0.585 1.486,0.587 1.376,0.562 1.218,0.566 0.994,0.57 0.904,0.596 0.822,0.599 0.751,0.599 0.7,0.588 0.699,0.524 0.695,0.3 1.075,0.511 1.069,0.172 1.066,0.02 1.008,-0.102 0.941,-0.252 L 0.576,-1.072 C 0.541,-1.141 0.515,-1.211 0.478,-1.211 0.433,-1.21 0.408,-1.094 0.385,-1.036 L 0,0"
         inkscape:connector-curvature="0"
         id="path2424"
         style="fill:#ffffff;fill-opacity:1;fill-rule:nonzero;stroke:none" />
    </g>
    <g
       transform="matrix(0.84100951,0,0,-0.84344942,35.028392,60.633488)"
       id="g2426">
      <path
         d="m 0,0 c 0.033,-0.433 -0.492,-0.54 -0.824,-0.562 -0.293,-0.022 -0.718,0.019 -0.747,0.439 -0.011,0.154 0.06,0.327 0.231,0.336 C -0.243,0.291 -0.019,0.293 0,0 M -0.571,2.324 C -0.547,1.979 -0.636,1.602 -1.045,1.573 -1.433,1.545 -1.598,1.982 -1.619,2.301 c -0.05,0.694 0.33,0.771 0.445,0.781 0.426,0.03 0.578,-0.403 0.603,-0.758 M -1.027,-0.77 c 0.402,0.029 0.604,0.056 0.969,0.23 0.324,0.149 0.563,0.459 0.538,0.836 -0.028,0.391 -0.23,0.644 -1.124,0.581 -0.929,-0.064 -0.97,-0.035 -0.988,0.214 -0.011,0.152 0.057,0.284 0.249,0.3 0.126,0.008 0.23,0.002 0.325,0.008 0.95,0.067 1.151,0.683 1.109,1.084 C 0.035,2.648 0.046,2.566 0.033,2.673 0.131,2.743 0.307,2.769 0.265,3.375 0.255,3.49 0.239,3.546 0.183,3.541 0.087,3.536 0.128,3.135 -0.249,3.108 -0.458,3.094 -0.723,3.299 -1.163,3.269 -1.793,3.223 -2.278,2.838 -2.234,2.226 -2.205,1.799 -2.016,1.646 -1.656,1.454 -1.869,1.28 -1.969,1.08 -1.951,0.818 -1.924,0.431 -1.704,0.304 -1.635,0.251 -1.701,0.247 -2.107,0.104 -2.08,-0.279 c 0.036,-0.504 0.797,-0.508 1.053,-0.491"
         inkscape:connector-curvature="0"
         id="path2428"
         style="fill:#ffffff;fill-opacity:1;fill-rule:evenodd;stroke:none" />
    </g>
    <g
       transform="matrix(0.84100951,0,0,-0.84344942,37.721384,57.503528)"
       id="g2430">
      <path
         d="M 0,0 C -0.012,0.082 -0.021,0.139 -0.099,0.127 -0.134,0.122 -0.168,0.085 -0.257,0.029 c -0.376,-0.216 -0.817,-0.187 -0.794,-0.363 0.026,-0.178 0.405,0.056 0.447,-0.248 l 0.19,-1.348 c 0.038,-0.271 -0.252,-0.454 -0.498,-0.487 -0.444,-0.062 -0.584,0.168 -0.64,0.567 l -0.225,1.599 c -0.012,0.084 -0.021,0.14 -0.097,0.129 -0.038,-0.004 -0.07,-0.042 -0.16,-0.099 -0.376,-0.216 -0.82,-0.188 -0.794,-0.363 0.024,-0.178 0.405,0.056 0.448,-0.249 l 0.152,-1.074 c 0.08,-0.57 0.265,-1.065 1.017,-0.959 0.538,0.074 0.734,0.432 0.853,0.553 0.041,-0.291 0.062,-0.359 0.101,-0.418 l 0.94,0.252 c 0.081,0.025 0.159,0.024 0.143,0.125 -0.024,0.176 -0.479,-0.119 -0.533,0.272 L 0,0"
         inkscape:connector-curvature="0"
         id="path2432"
         style="fill:#ffffff;fill-opacity:1;fill-rule:nonzero;stroke:none" />
    </g>
    <g
       transform="matrix(0.84100951,0,0,-0.84344942,39.24084,58.315689)"
       id="g2434">
      <path
         d="m 0,0 c -0.154,-0.042 -0.448,-0.551 -0.405,-0.705 0.041,-0.152 0.549,-0.447 0.702,-0.405 0.155,0.04 0.449,0.549 0.408,0.702 C 0.663,-0.252 0.157,0.041 0,0"
         inkscape:connector-curvature="0"
         id="path2436"
         style="fill:#ffffff;fill-opacity:1;fill-rule:nonzero;stroke:none" />
    </g>
    <g
       transform="matrix(0.84100951,0,0,-0.84344942,42.016003,57.026648)"
       id="g2438">
      <path
         d="m 0,0 c 0.036,0.013 0.071,0.027 0.021,0.157 -0.12,0.31 -0.703,0.866 -1.501,0.56 -0.77,-0.295 -0.873,-1.189 -0.608,-1.876 0.313,-0.816 1.042,-0.968 1.634,-0.74 0.612,0.236 0.933,0.897 0.876,1.048 -0.026,0.065 -0.064,0.057 -0.088,0.047 -0.095,-0.034 -0.267,-0.465 -0.618,-0.599 -0.519,-0.2 -1.062,0.127 -1.257,0.639 -0.073,0.192 -0.034,0.159 0.073,0.199 L 0,0 m -1.655,-0.397 c -0.018,-0.007 -0.036,0.007 -0.072,0.103 -0.106,0.273 -0.111,0.676 0.248,0.812 0.376,0.145 0.676,-0.142 0.764,-0.37 0.065,-0.167 0.028,-0.174 -0.075,-0.212 l -0.865,-0.333 z"
         inkscape:connector-curvature="0"
         id="path2440"
         style="fill:#ffffff;fill-opacity:1;fill-rule:evenodd;stroke:none" />
    </g>
    <g
       transform="matrix(0.84100951,0,0,-0.84344942,44.094642,56.776225)"
       id="g2442">
      <path
         d="m 0,0 c 0.057,-0.117 0.106,-0.176 0.054,-0.303 -0.061,-0.136 -0.208,-0.257 -0.339,-0.321 -0.484,-0.236 -1.046,0.337 -1.226,0.703 -0.174,0.356 -0.319,0.917 0.134,1.138 0.27,0.132 0.57,0.087 0.817,-0.07 L 0,0 M -0.778,1.593 C -0.94,1.652 -1.222,1.556 -1.371,1.482 -1.968,1.193 -2.143,0.488 -1.99,-0.12 c 0.162,-0.666 0.778,-1.446 1.563,-1.063 0.34,0.164 0.518,0.443 0.625,0.774 0.144,-0.293 0.186,-0.378 0.26,-0.341 0.029,0.013 0.101,0.083 0.203,0.182 0.244,0.241 0.634,0.43 0.578,0.546 C 1.15,0.161 0.886,-0.272 0.653,0.204 L -1.05,3.694 C -1.095,3.786 -1.113,3.855 -1.177,3.824 -1.216,3.803 -1.235,3.767 -1.254,3.737 -1.636,3.144 -1.983,3.089 -1.908,2.935 -1.81,2.733 -1.55,3.174 -1.341,2.75 l 0.563,-1.157 z"
         inkscape:connector-curvature="0"
         id="path2444"
         style="fill:#ffffff;fill-opacity:1;fill-rule:evenodd;stroke:none" />
    </g>
    <g
       transform="matrix(0.84100951,0,0,-0.84344942,46.439457,53.717034)"
       id="g2446">
      <path
         d="M 0,0 C -0.044,0.071 -0.072,0.121 -0.139,0.081 -0.17,0.06 -0.189,0.014 -0.247,-0.074 -0.51,-0.419 -0.928,-0.565 -0.835,-0.718 c 0.093,-0.154 0.349,0.211 0.507,-0.052 L 0.373,-1.935 C 0.514,-2.172 0.318,-2.455 0.105,-2.583 -0.278,-2.813 -0.5,-2.654 -0.708,-2.309 l -0.832,1.383 c -0.042,0.072 -0.072,0.123 -0.138,0.082 C -1.71,-0.862 -1.728,-0.91 -1.785,-1 c -0.264,-0.341 -0.68,-0.488 -0.591,-0.644 0.092,-0.153 0.353,0.213 0.509,-0.05 l 0.559,-0.931 c 0.296,-0.492 0.662,-0.877 1.313,-0.487 0.466,0.28 0.506,0.685 0.568,0.843 0.152,-0.253 0.199,-0.309 0.258,-0.345 l 0.766,0.6 C 1.662,-1.96 1.732,-1.933 1.68,-1.843 1.588,-1.692 1.285,-2.141 1.081,-1.801 L 0,0"
         inkscape:connector-curvature="0"
         id="path2448"
         style="fill:#ffffff;fill-opacity:1;fill-rule:nonzero;stroke:none" />
    </g>
  </g>
</svg>
