<?xml version="1.0" encoding="utf-8"?>
<!-- Generator: Adobe Illustrator 19.1.0, SVG Export Plug-In . SVG Version: 6.00 Build 0)  -->
<svg version="1.1" id="Layer_1" xmlns="http://www.w3.org/2000/svg" xmlns:xlink="http://www.w3.org/1999/xlink" x="0px" y="0px"
	 viewBox="0 0 500 500" style="enable-background:new 0 0 500 500;" xml:space="preserve">
<style type="text/css">
	.st0{fill:#333333;}
	.st1{fill:none;stroke:#000000;stroke-width:3;stroke-miterlimit:10;}
	.st2{fill:#1E72B9;}
	.st3{fill:#A1C44B;}
	.st4{fill:#333333;stroke:#333333;stroke-miterlimit:10;}
</style>
<g>
	<path class="st0" d="M153.4,264.2l3.1,1.4c-1,1.7-2.2,3.1-3.5,4.1s-2.8,1.8-4.4,2.4c-1.6,0.5-3.5,0.8-5.6,0.8
		c-4.6,0-8.2-1.3-10.8-3.9c-2.6-2.6-3.9-5.6-3.9-8.9c0-3.1,1.1-5.9,3.3-8.3c2.8-3.1,6.5-4.6,11.2-4.6c4.8,0,8.6,1.6,11.5,4.7
		c2,2.2,3.1,5,3.1,8.4h-25.4c0.1,2.8,1.1,5.2,3.1,7s4.5,2.7,7.5,2.7c1.4,0,2.8-0.2,4.2-0.6c1.4-0.4,2.5-1,3.5-1.7
		S152.3,265.8,153.4,264.2z M153.4,257.6c-0.5-1.7-1.2-3-2.1-4s-2.1-1.8-3.7-2.4c-1.5-0.6-3.1-0.9-4.8-0.9c-2.8,0-5.1,0.8-7.1,2.3
		c-1.5,1.1-2.6,2.8-3.3,5.1H153.4z"/>
	<path class="st0" d="M162.8,247.9h3.7v3.6c1.1-1.4,2.3-2.5,3.5-3.2c1.2-0.7,2.5-1,3.8-1c1,0,2.1,0.3,3.2,0.8l-1.9,2.7
		c-0.8-0.3-1.4-0.4-1.9-0.4c-1.2,0-2.4,0.4-3.5,1.3c-1.1,0.9-2,2.2-2.6,4c-0.4,1.4-0.7,4.2-0.7,8.4v8.3h-3.7V247.9z"/>
	<path class="st0" d="M178.8,247.9h3.7v3.6c1.1-1.4,2.3-2.5,3.5-3.2c1.2-0.7,2.5-1,3.8-1c1,0,2.1,0.3,3.2,0.8l-1.9,2.7
		c-0.8-0.3-1.4-0.4-1.9-0.4c-1.2,0-2.4,0.4-3.5,1.3c-1.1,0.9-2,2.2-2.6,4c-0.4,1.4-0.7,4.2-0.7,8.4v8.3h-3.7V247.9z"/>
	<path class="st0" d="M193.1,247.9h3.8l9.7,18.8l9.4-18.8h3.9L203,281.3h-3.8l5.4-10.8L193.1,247.9z"/>
</g>
<g>
	<path class="st0" d="M356.4,247.2c3.8,0,6.9,1.4,9.4,4.1c2.3,2.5,3.4,5.4,3.4,8.8c0,3.4-1.2,6.4-3.6,9c-2.4,2.6-5.4,3.8-9.2,3.8
		c-3.8,0-6.8-1.3-9.2-3.8c-2.4-2.6-3.6-5.5-3.6-9c0-3.4,1.1-6.3,3.4-8.8C349.5,248.6,352.6,247.2,356.4,247.2z M356.4,250.3
		c-2.6,0-4.9,1-6.7,2.9c-1.9,1.9-2.8,4.3-2.8,7c0,1.8,0.4,3.4,1.3,4.9s2,2.7,3.5,3.5c1.5,0.8,3.1,1.2,4.8,1.2s3.3-0.4,4.8-1.2
		c1.5-0.8,2.6-2,3.5-3.5c0.9-1.5,1.3-3.2,1.3-4.9c0-2.7-0.9-5.1-2.8-7C361.2,251.3,359,250.3,356.4,250.3z"/>
	<path class="st0" d="M371.7,247.9h3.2l7.5,17.7l7.8-17.7h0.6l7.9,17.7l7.6-17.7h3.3l-10.6,24.4h-0.6l-7.8-17.5l-7.8,17.5h-0.6
		L371.7,247.9z"/>
	<path class="st0" d="M433.8,264.2l2.7,1.4c-0.9,1.7-1.9,3.1-3,4.1c-1.1,1-2.4,1.8-3.8,2.4c-1.4,0.5-3,0.8-4.8,0.8
		c-4,0-7.1-1.3-9.4-3.9c-2.2-2.6-3.4-5.6-3.4-8.9c0-3.1,1-5.9,2.9-8.3c2.4-3.1,5.6-4.6,9.7-4.6c4.2,0,7.5,1.6,10,4.7
		c1.8,2.2,2.7,5,2.7,8.4h-22c0.1,2.8,1,5.2,2.7,7c1.8,1.8,3.9,2.7,6.5,2.7c1.2,0,2.5-0.2,3.6-0.6c1.2-0.4,2.2-1,3-1.7
		C431.9,267,432.8,265.8,433.8,264.2z M433.8,257.6c-0.4-1.7-1-3-1.8-4c-0.8-1-1.9-1.8-3.2-2.4s-2.7-0.9-4.2-0.9
		c-2.4,0-4.5,0.8-6.2,2.3c-1.3,1.1-2.2,2.8-2.9,5.1H433.8z"/>
	<path class="st0" d="M442.6,238.4h3.1v33.9h-3.1V238.4z"/>
	<path class="st0" d="M451.8,238.4h3.1v33.9h-3.1V238.4z"/>
</g>
<line class="st1" x1="6.3" y1="285.7" x2="486.3" y2="285.7"/>
<rect x="277.6" y="201.2" transform="matrix(-0.9601 -0.2797 0.2797 -0.9601 482.8973 598.0249)" class="st2" width="13" height="126.8"/>
<polygon class="st3" points="303.9,257 389.3,215 389.3,226.3 303.9,270 "/>
<polygon class="st2" points="389.3,226.3 303.9,200 303.9,187.5 389.3,215 "/>
<polygon class="st3" points="123.8,200.5 38.4,242.4 38.4,231.1 123.8,187.5 "/>
<polygon class="st2" points="38.4,231.1 123.7,257.5 123.6,270 38.4,242.4 "/>
<g>
	<path class="st4" d="M166.8,291.9h1.9l3.8,13.2l5.3-13.2h0.4l5.2,13.2l3.8-13.2h1.9l-5.3,18.4h-0.3l-5.4-13.9l-5.6,13.9H172
		L166.8,291.9z"/>
	<path class="st4" d="M192.4,291.9h10.5v1.8h-8.7v5.8h8.6v1.8h-8.6v7.2h8.6v1.8h-10.5V291.9z"/>
	<path class="st4" d="M206.1,291.9h3.6c1.5,0,2.6,0.2,3.4,0.5c0.8,0.3,1.4,0.9,1.9,1.6c0.5,0.7,0.7,1.5,0.7,2.4
		c0,0.8-0.2,1.6-0.6,2.2c-0.4,0.7-1,1.2-1.8,1.6c1,0.3,1.7,0.7,2.2,1.1c0.5,0.4,0.9,1,1.2,1.6c0.3,0.6,0.4,1.3,0.4,2
		c0,1.5-0.5,2.7-1.6,3.7c-1.1,1-2.5,1.5-4.3,1.5h-5V291.9z M207.9,293.7v5.9h1.1c1.3,0,2.2-0.1,2.8-0.4c0.6-0.2,1.1-0.6,1.4-1.1
		c0.4-0.5,0.5-1.1,0.5-1.7c0-0.8-0.3-1.5-0.9-2c-0.6-0.5-1.5-0.7-2.8-0.7H207.9z M207.9,301.4v7h2.3c1.3,0,2.3-0.1,3-0.4
		c0.6-0.3,1.1-0.7,1.5-1.2c0.4-0.6,0.6-1.2,0.6-1.8c0-0.8-0.3-1.5-0.8-2.1c-0.5-0.6-1.3-1-2.2-1.2c-0.6-0.1-1.7-0.2-3.3-0.2H207.9z"
		/>
	<path class="st4" d="M227.9,291.9h1.8V303c0,1.3,0,2.1,0.1,2.5c0.1,0.7,0.3,1.3,0.6,1.8c0.3,0.5,0.8,0.9,1.5,1.2
		c0.7,0.3,1.4,0.5,2.1,0.5c0.6,0,1.2-0.1,1.7-0.4c0.6-0.3,1-0.6,1.4-1.1c0.4-0.5,0.6-1,0.8-1.7c0.1-0.5,0.2-1.4,0.2-2.9v-11.1h1.8
		V303c0,1.6-0.2,3-0.5,4c-0.3,1-1,1.9-1.9,2.6c-1,0.7-2.1,1.1-3.5,1.1c-1.5,0-2.8-0.4-3.8-1.1c-1.1-0.7-1.8-1.6-2.1-2.8
		c-0.2-0.7-0.3-2-0.3-3.9V291.9z"/>
	<path class="st4" d="M244.3,291.9h1.8v18.4h-1.8V291.9z"/>
	<path class="st4" d="M291.1,310.5v-16.4h3.4c2.5,0,4.2,0.2,5.3,0.6c1.6,0.6,2.8,1.5,3.7,2.9c0.9,1.4,1.3,3,1.3,4.9
		c0,1.6-0.4,3.1-1.1,4.3c-0.7,1.2-1.6,2.2-2.8,2.8c-1.1,0.6-2.7,0.9-4.8,0.9H291.1z M292.7,308.9h1.9c2.3,0,3.8-0.1,4.7-0.4
		c1.2-0.4,2.2-1.1,2.9-2.2c0.7-1,1.1-2.3,1.1-3.8c0-1.6-0.4-2.9-1.1-4.1c-0.8-1.1-1.8-1.9-3.2-2.3c-1-0.3-2.7-0.5-5.1-0.5h-1.2
		V308.9z"/>
	<path class="st4" d="M308.1,294.1h9.4v1.6h-7.8v5.1h7.7v1.6h-7.7v6.4h7.7v1.6h-9.3V294.1z"/>
	<path class="st4" d="M319.1,294.1h1.8l5.4,12.7l5.5-12.7h1.8l-7.1,16.4h-0.4L319.1,294.1z"/>
	<path class="st4" d="M336.4,294.1h9.4v1.6H338v5.1h7.7v1.6H338v6.4h7.7v1.6h-9.3V294.1z"/>
	<path class="st4" d="M348.6,294.1h1.6v14.8h6.3v1.6h-7.9V294.1z"/>
	<path class="st4" d="M367,293.7c2.5,0,4.6,0.8,6.2,2.5c1.7,1.7,2.5,3.7,2.5,6.1c0,2.4-0.8,4.4-2.5,6.1c-1.7,1.7-3.7,2.5-6.1,2.5
		c-2.4,0-4.5-0.8-6.2-2.5c-1.7-1.7-2.5-3.7-2.5-6c0-1.6,0.4-3,1.1-4.4c0.8-1.3,1.8-2.4,3.1-3.2C364,294.1,365.4,293.7,367,293.7z
		 M367,295.3c-1.2,0-2.4,0.3-3.5,0.9c-1.1,0.6-1.9,1.5-2.5,2.6c-0.6,1.1-0.9,2.3-0.9,3.6c0,1.9,0.7,3.6,2,4.9c1.4,1.3,3,2,4.9,2
		c1.3,0,2.5-0.3,3.5-0.9c1.1-0.6,1.9-1.5,2.5-2.5c0.6-1.1,0.9-2.3,0.9-3.6c0-1.3-0.3-2.5-0.9-3.5c-0.6-1.1-1.5-1.9-2.6-2.5
		C369.4,295.6,368.3,295.3,367,295.3z"/>
	<path class="st4" d="M379,294.1h3.3c1.9,0,3.1,0.1,3.8,0.2c0.9,0.2,1.7,0.7,2.3,1.4c0.6,0.7,0.9,1.6,0.9,2.7c0,1.1-0.3,2-0.9,2.7
		c-0.6,0.7-1.4,1.2-2.4,1.4c-0.7,0.2-2.1,0.3-4.2,0.3h-1.2v7.6H379V294.1z M380.6,295.7v5.6l2.8,0c1.1,0,1.9-0.1,2.5-0.3
		c0.5-0.2,0.9-0.5,1.2-1c0.3-0.5,0.4-1,0.4-1.5c0-0.5-0.1-1.1-0.4-1.5c-0.3-0.5-0.7-0.8-1.2-1c-0.5-0.2-1.3-0.3-2.4-0.3H380.6z"/>
	<path class="st4" d="M392.5,294.1h9.4v1.6h-7.8v5.1h7.7v1.6h-7.7v6.4h7.7v1.6h-9.3V294.1z"/>
	<path class="st4" d="M404.8,294.1h3.3c1.8,0,3.1,0.1,3.7,0.2c1,0.2,1.8,0.7,2.4,1.4c0.6,0.7,0.9,1.6,0.9,2.7c0,0.9-0.2,1.7-0.6,2.4
		c-0.4,0.7-1,1.2-1.8,1.5c-0.8,0.3-1.9,0.5-3.2,0.5l5.9,7.6h-2l-5.9-7.6h-0.9v7.6h-1.6V294.1z M406.5,295.7v5.6l2.8,0
		c1.1,0,1.9-0.1,2.4-0.3c0.5-0.2,0.9-0.5,1.2-1c0.3-0.5,0.4-1,0.4-1.5c0-0.5-0.1-1-0.4-1.5c-0.3-0.4-0.7-0.8-1.2-1
		c-0.5-0.2-1.3-0.3-2.4-0.3H406.5z"/>
</g>
<rect x="34.8" y="187.5" class="st0" width="4.4" height="82.5"/>
</svg>
