<?xml version="1.0" encoding="utf-8"?>
<!-- Generator: Adobe Illustrator 19.1.0, SVG Export Plug-In . SVG Version: 6.00 Build 0)  -->
<svg version="1.1"
	 id="svg6329" inkscape:version="0.48.4 r9939" sodipodi:docname="images.svg" xmlns:dc="http://purl.org/dc/elements/1.1/" xmlns:cc="http://creativecommons.org/ns#" xmlns:rdf="http://www.w3.org/1999/02/22-rdf-syntax-ns#" xmlns:svg="http://www.w3.org/2000/svg" xmlns:inkscape="http://www.inkscape.org/namespaces/inkscape" xmlns:sodipodi="http://sodipodi.sourceforge.net/DTD/sodipodi-0.dtd"
	 xmlns="http://www.w3.org/2000/svg" xmlns:xlink="http://www.w3.org/1999/xlink" x="0px" y="0px" viewBox="-233 235 32 32"
	 style="enable-background:new -233 235 32 32;" xml:space="preserve">
<style type="text/css">
	.st0{fill:#A1C44B;fill-opacity:0;stroke:#A1C44B;stroke-width:2.6074;}
	.st1{fill:#A1C44B;stroke:#A1C44B;stroke-miterlimit:10;}
	.st2{fill:#A1C44B;stroke:#A1C44B;stroke-width:3;}
</style>
<sodipodi:namedview  id="base" inkscape:window-width="1920" inkscape:window-maximized="1" inkscape:pageshadow="2" inkscape:window-height="1019" inkscape:current-layer="layer1" inkscape:document-units="px" inkscape:grid-bbox="true" inkscape:window-x="1911" inkscape:pageopacity="0.0" inkscape:window-y="-9" bordercolor="#666666" inkscape:zoom="22.395604" inkscape:cx="15.278728" showgrid="true" pagecolor="#ffffff" borderopacity="1.0" inkscape:cy="15.881344">
	</sodipodi:namedview>
<g id="layer1" inkscape:groupmode="layer" inkscape:label="Layer 1">
	<path id="rect6337-7" inkscape:connector-curvature="0" class="st0" d="M-226.2,245.7h23.1v14.6h-23.1V245.7z M-230.4,241.4V256
		h4.2v-10.3h18.9v-4.3C-207.3,241.4-230.4,241.4-230.4,241.4z"/>
	<path id="path6380" sodipodi:nodetypes="ccccccssc" inkscape:connector-curvature="0" class="st1" d="M-224.2,258.3l19-0.1
		l-3.2-8.2l-0.9,1.8l-2.5-4l-3.1,7.4c0,0-0.3,0.7-1.5,1c-0.4,0.1-1.3-0.2-2.7-0.4C-222.5,255.3-224.2,258.3-224.2,258.3z"/>
	
		<path id="path6382" sodipodi:ry="0.83721787" sodipodi:rx="0.83721787" sodipodi:cx="12.826178" sodipodi:type="arc" sodipodi:cy="14.574705" class="st2" d="
		M-218.8,250.2c0,0.5-0.4,0.8-0.8,0.8c-0.5,0-0.8-0.4-0.8-0.8c0,0,0,0,0,0c0-0.5,0.4-0.8,0.8-0.8
		C-219.2,249.4-218.8,249.8-218.8,250.2C-218.8,250.2-218.8,250.2-218.8,250.2z"/>
</g>
</svg>
