<?xml version="1.0" encoding="UTF-8" standalone="no"?>
<!-- Created with Inkscape (http://www.inkscape.org/) -->

<svg
   xmlns:dc="http://purl.org/dc/elements/1.1/"
   xmlns:cc="http://creativecommons.org/ns#"
   xmlns:rdf="http://www.w3.org/1999/02/22-rdf-syntax-ns#"
   xmlns:svg="http://www.w3.org/2000/svg"
   xmlns="http://www.w3.org/2000/svg"
   xmlns:sodipodi="http://sodipodi.sourceforge.net/DTD/sodipodi-0.dtd"
   xmlns:inkscape="http://www.inkscape.org/namespaces/inkscape"
   width="750"
   height="750"
   id="svg3559"
   version="1.1"
   inkscape:version="0.48.4 r9939"
   sodipodi:docname="New document 2">
  <defs
     id="defs3561">
    <filter
       color-interpolation-filters="sRGB"
       id="googleDropShadow">
      <feOffset
         result="offOut"
         in="SourceGraphic"
         dx="0.3"
         dy="0.5"
         id="feOffset3131" />
      <feGaussianBlur
         stdDeviation="0.25"
         result="blurOut"
         in="offOut"
         id="feGaussianBlur3133" />
      <feColorMatrix
         type="matrix"
         result="blurTransOut"
         in="blurOut"
         values="1 0 0 0 0 0 1 0 0 0 0 0 1 0 0 0 0 0 .8 0"
         id="feColorMatrix3135" />
      <feBlend
         in="SourceGraphic"
         mode="normal"
         in2="blurTransOut"
         id="feBlend3137" />
    </filter>
  </defs>
  <sodipodi:namedview
     id="base"
     pagecolor="#ffffff"
     bordercolor="#666666"
     borderopacity="1.0"
     inkscape:pageopacity="0.0"
     inkscape:pageshadow="2"
     inkscape:zoom="0.49497475"
     inkscape:cx="868.07877"
     inkscape:cy="642.17743"
     inkscape:document-units="px"
     inkscape:current-layer="layer1"
     showgrid="false"
     inkscape:window-width="1920"
     inkscape:window-height="1019"
     inkscape:window-x="1911"
     inkscape:window-y="-9"
     inkscape:window-maximized="1" />
  <metadata
     id="metadata3564">
    <rdf:RDF>
      <cc:Work
         rdf:about="">
        <dc:format>image/svg+xml</dc:format>
        <dc:type
           rdf:resource="http://purl.org/dc/dcmitype/StillImage" />
        <dc:title></dc:title>
      </cc:Work>
    </rdf:RDF>
  </metadata>
  <g
     inkscape:label="Layer 1"
     inkscape:groupmode="layer"
     id="layer1"
     transform="translate(0,-302.36218)">
    <g
       id="g3998"
       transform="matrix(0.67771669,0.00315309,-0.00315309,0.67771669,299.49355,351.66446)">
      <path
         id="path3421"
         d="m 87.360794,916.22028 0.001,-0.005 c 0,0 -3.352,11.88 -3.352,11.88 0,0 3.3508,-11.875 3.3508,-11.875 z"
         inkscape:connector-curvature="0"
         style="fill:#131b28;fill-rule:nonzero" />
      <path
         id="path3423"
         d="m 104.60079,942.01128 c 0,0 -3.6938,-0.022 -3.6938,-0.022 0,0 3.6938,0.022 3.6938,0.022 z"
         inkscape:connector-curvature="0"
         style="fill:#131b28;fill-rule:nonzero" />
      <path
         id="path3425"
         d="m 103.65079,959.75228 h 0.004 c 0,0 -22.130996,0.0806 -22.130996,0.0806 0,0 22.127996,-0.0806 22.127996,-0.0806 z"
         inkscape:connector-curvature="0"
         style="fill:#131b28;fill-rule:nonzero" />
      <path
         id="path3427"
         d="m 108.29079,942.03328 c 0,0 -3.6951,-0.022 -3.6951,-0.022 0,0 3.6951,0.022 3.6951,0.022 z"
         inkscape:connector-curvature="0"
         style="fill:#131b28;fill-rule:nonzero" />
      <path
         id="path3429"
         d="m 105.59079,958.24428 c 0,0 3.855,-14.702 3.855,-14.702 0,0 -3.855,14.705 -3.855,14.705 v -0.002 z"
         inkscape:connector-curvature="0"
         style="fill:#131b28;fill-rule:nonzero" />
      <path
         id="path3431"
         d="m 187.07079,890.53928 c 0,0 -7.1814,33.76 -7.1814,33.76 0,0 7.1814,-33.76 7.1814,-33.76 z"
         inkscape:connector-curvature="0"
         style="fill:#131b28;fill-rule:nonzero" />
      <path
         id="path3433"
         d="m 168.61079,890.53928 c 0,0 -5.4517,25.22 -5.4517,25.22 0,0 5.4517,-25.222 5.4517,-25.222 v 0.002 z"
         inkscape:connector-curvature="0"
         style="fill:#131b28;fill-rule:nonzero" />
      <path
         id="path3435"
         d="m 185.84079,889.02028 h -15.356 c -0.85205,0 -1.698,0.68359 -1.8799,1.5161 0,0 -5.4516,25.222 -5.4516,25.222 0,0 -5.4517,25.222 -5.4517,25.222 -0.18066,0.83251 -1.0254,1.5137 -1.8774,1.5137 h -9.3176 -1.5515 c -10.753,0 -9.5093,-7.4365 -7.3071,-17.627 0.022,-0.1025 0.044,-0.20263 0.0659,-0.30761 0,0 0.24169,-1.2842 0.24169,-1.2842 0.0146,-0.083 0.0317,-0.16603 0.0451,-0.2417 0,0 0.49072,-2.6148 0.49072,-2.6148 0,0 0.52612,-2.8027 0.52612,-2.8027 0.15992,-0.84473 0.40283,-2.0801 0.56153,-2.8564 0,0 2.478,-12.109 2.478,-12.109 0,0 2.4805,-12.109 2.4805,-12.109 0.1709,-0.83496 -0.38819,-1.521 -1.2402,-1.521 h -15.762 c -0.85206,0 -1.6956,0.68604 -1.8701,1.5186 0,0 -3.3887,16.079 -3.3887,16.079 0,0 -3.3887,16.077 -3.3887,16.077 -0.003,0.007 -0.004,0.0171 -0.005,0.0244 0,0 -0.31494,1.4942 -0.31494,1.4942 -3.9038,17.822 -2.8686,34.817 18.347,35.349 0.3467,0.01 0.61525,0.0125 0.61525,0.0125 h 33.302 c 0.85206,0 1.6956,-0.6836 1.8738,-1.5186 0,0 7.1814,-33.757 7.1814,-33.757 0,0 7.1814,-33.76 7.1814,-33.76 0.17701,-0.83497 -0.37598,-1.5186 -1.228,-1.5186 z"
         inkscape:connector-curvature="0"
         style="fill:#131b28;fill-rule:nonzero" />
      <path
         id="path3437"
         d="m 247.10079,942.67028 c 0.85327,0 1.4111,0.6836 1.2402,1.5186 0,0 -1.4917,7.2876 -1.4917,7.2876"
         inkscape:connector-curvature="0"
         style="fill:#131b28;fill-rule:nonzero" />
      <path
         id="path3439"
         d="m 245.36079,958.76828 c 0,0 1.4905,-7.2925 1.4905,-7.2925 0,0 -1.4917,7.2949 -1.4917,7.2949 0,-0.002 9.9e-4,-0.002 9.9e-4,-0.002 z"
         inkscape:connector-curvature="0"
         style="fill:#131b28;fill-rule:nonzero" />
      <path
         id="path3441"
         d="m 243.49079,960.30228 c 0.002,0 0.005,-0.002 0.007,-0.002 -4.519,0.0366 -18.099,0.13916 -28.306,0.13916 12.422,0 28.298,-0.13672 28.298,-0.13672 z"
         inkscape:connector-curvature="0"
         style="fill:#131b28;fill-rule:nonzero" />
      <path
         id="path3443"
         d="m 206.03079,933.28328 c -0.0125,-0.79835 0.896,-2.1729 1.7493,-2.1729 0,0 -1.9177,-0.0317 -1.9177,-0.0317 -0.86426,8.6914 0.16845,2.2046 0.16845,2.2046 z"
         inkscape:connector-curvature="0"
         style="fill:#131b28;fill-rule:nonzero" />
      <path
         id="path3445"
         d="m 216.59079,960.43628 c -0.0976,0 -0.19775,0 -0.29542,0.002 0.0976,-0.002 0.19777,-0.002 0.29542,-0.002 z"
         inkscape:connector-curvature="0"
         style="fill:#131b28;fill-rule:nonzero" />
      <path
         id="path3447"
         d="m 247.10079,942.67028 c 0.85327,0 1.4111,0.6836 1.2402,1.5186 0,0 -1.4917,7.2876 -1.4917,7.2876 0,0 -0.24293,1.189 -0.24293,1.189"
         inkscape:connector-curvature="0"
         style="fill:#131b28;fill-rule:nonzero" />
      <path
         id="path3449"
         d="m 223.86079,960.41928 h -0.0623 0.0623 z"
         inkscape:connector-curvature="0"
         style="fill:#131b28;fill-rule:nonzero" />
      <path
         id="path3451"
         d="m 220.09079,960.43128 h -0.21852 0.21852 z"
         inkscape:connector-curvature="0"
         style="fill:#131b28;fill-rule:nonzero" />
      <path
         id="path3453"
         d="m 218.94079,960.43428 c -0.12201,0 -0.2417,0 -0.36134,0.002 0.11963,-0.002 0.23927,-0.002 0.36134,-0.002 z"
         inkscape:connector-curvature="0"
         style="fill:#131b28;fill-rule:nonzero" />
      <path
         id="path3455"
         d="m 217.77079,960.43628 h -0.31737 0.31737 z"
         inkscape:connector-curvature="0"
         style="fill:#131b28;fill-rule:nonzero" />
      <path
         id="path3457"
         d="m 219.87079,960.43128 c -0.31127,0 -0.62255,0.002 -0.93016,0.002 0.30761,0 0.61889,-0.002 0.93016,-0.002 z"
         inkscape:connector-curvature="0"
         style="fill:#131b28;fill-rule:nonzero" />
      <path
         id="path3459"
         d="m 223.80079,960.41928 c -1.2427,0.005 -2.4829,0.01 -3.7048,0.0125 1.2219,-0.002 2.4634,-0.007 3.7048,-0.0125 z"
         inkscape:connector-curvature="0"
         style="fill:#131b28;fill-rule:nonzero" />
      <path
         id="path3461"
         d="m 243.50079,960.29928 h 0.001 c -3.3118,0.0269 -11.49,0.0879 -19.646,0.11963 8.1518,-0.0292 16.332,-0.0927 19.645,-0.11963 z"
         inkscape:connector-curvature="0"
         style="fill:#131b28;fill-rule:nonzero" />
      <path
         id="path3463"
         d="m 245.36079,958.77128 c 0,0 1.2488,-6.106 1.2488,-6.106 0,0 -1.25,6.1108 -1.25,6.1108 0,-0.002 0.001,-0.002 0.001,-0.005 z"
         inkscape:connector-curvature="0"
         style="fill:#131b28;fill-rule:nonzero" />
      <path
         id="path3465"
         d="m 218.58079,960.43628 h -0.81054 0.81054 z"
         inkscape:connector-curvature="0"
         style="fill:#131b28;fill-rule:nonzero" />
      <path
         id="path3467"
         d="m 216.29079,960.43828 h -1.0962 1.0962 z"
         inkscape:connector-curvature="0"
         style="fill:#131b28;fill-rule:nonzero" />
      <path
         id="path3469"
         d="m 217.45079,960.43628 h -0.86426 0.86426 z"
         inkscape:connector-curvature="0"
         style="fill:#131b28;fill-rule:nonzero" />
      <path
         id="path3471"
         d="m -7.1792057,933.46628 c 0,0 2.3852,-10.574 2.3852,-10.574 0,0 -2.727,12.087 -2.727,12.087 0,0 -2.6172003,12.312 -2.6172003,12.312 0,0 2.2937003,-10.793 2.2937003,-10.793 0.177,-0.83497 0.4773,-2.1997 0.66529,-3.0322 z"
         inkscape:connector-curvature="0"
         style="fill:#131b28;fill-rule:nonzero" />
      <path
         id="path3473"
         d="M 21.370794,888.84228 H 4.5067943 c -0.85326,0 -1.7041,0.68115 -1.8945,1.5112 0,0 -1.5991,7.0581 -1.5991,7.0581 0,0 -1.59909997,7.0606 -1.59909997,7.0606 -0.18799,0.83008 0.35523,1.5112 1.2085,1.5112 H 17.617594 c 0.85205,0 1.6992,-0.68115 1.8823,-1.5137 0,0 1.5454,-7.0581 1.5454,-7.0581 0,0 1.5454,-7.0532 1.5454,-7.0532 v -0.002 c 0.18189,-0.83253 -0.36621,-1.5137 -1.2195,-1.5137 z"
         inkscape:connector-curvature="0"
         style="fill:#131b28;fill-rule:nonzero" />
      <path
         id="path3475"
         d="m 17.700794,912.32128 v -0.002 c 0,0 -4.9463,22.883 -4.9463,22.883 0,0 4.9463,-22.881 4.9463,-22.881 z"
         inkscape:connector-curvature="0"
         style="fill:#131b28;fill-rule:nonzero" />
      <path
         id="path3477"
         d="m -31.289206,988.13928 c 0,0 8.501,0.10988 13.905,0.10988 -4.1052,0 -10.885,-0.0756 -13.912,-0.11225 0.003,0 0.005,0.002 0.008,0.002 z"
         inkscape:connector-curvature="0"
         style="fill:#131b28;fill-rule:nonzero" />
      <path
         id="path3479"
         d="m -2.4092057,912.31828 c 0,0 -2.3877,10.574 -2.3877,10.574 0,0 2.3877,-10.574 2.3877,-10.574 z"
         inkscape:connector-curvature="0"
         style="fill:#131b28;fill-rule:nonzero" />
      <path
         id="path3481"
         d="M 16.480794,910.80528 H -0.51620567 c -0.85205003,0 -1.70410003,0.68117 -1.89210003,1.5137 0,0 -2.3877,10.574 -2.3877,10.574 0,0 -2.3852,10.574 -2.3852,10.574 -0.18799,0.83253 -0.48829,2.1973 -0.66529,3.0322 0,0 -2.2937003,10.793 -2.2937003,10.793 0,0 -2.2925,10.793 -2.2925,10.793 -0.17822,0.83252 -0.54443,2.1777 -0.81787,2.9858 0,0 -3.175,9.4482 -8.5132,9.3408 -0.22705,-0.005 -0.448,-0.007 -0.6665,-0.0125 -2.5867,-0.0489 -4.6191,-0.0855 -4.6191,-0.0855 h -0.004 c -0.85083,-0.0125 -1.7066,0.65185 -1.9055,1.4795 0,0 -1.7627,7.4097 -1.7627,7.4097 0,0 -1.7603,7.4072 -1.7603,7.4072 -0.19775,0.82762 0.33692,1.5112 1.1841,1.5259 3.0274,0.0366 9.8071,0.11225 13.912,0.11225 13.3340003,0 20.3630003,-7.3877 24.8690003,-28.647 0,0 5.2733997,-24.399 5.2733997,-24.399 0,0 4.9463,-22.883 4.9463,-22.883 0.17945,-0.83251 -0.3711,-1.5137 -1.2232,-1.5137 z"
         inkscape:connector-curvature="0"
         style="fill:#131b28;fill-rule:nonzero" />
      <path
         id="path3483"
         d="m 257.93079,959.57428 c -0.85205,0 -1.405,-0.6836 -1.2256,-1.5186 0,0 12.786,-59.89 12.786,-59.89"
         inkscape:connector-curvature="0"
         style="fill:#131b28;fill-rule:nonzero" />
      <path
         id="path3485"
         d="m 275.70079,958.05328 c 0,0 5.1709,-25.562 5.1709,-25.562 0,0 -5.1709,25.562 -5.1709,25.562 z"
         inkscape:connector-curvature="0"
         style="fill:#131b28;fill-rule:nonzero" />
      <path
         id="path3487"
         d="m 256.89079,958.81528 c -0.10375,-0.41749 -0.0428,-1.4404 0.13793,-2.2754 0,0 6.0681,-28.428 6.0681,-28.428 0,0 -6.3928,29.944 -6.3928,29.944 -0.17944,0.83495 0.37354,1.5186 1.2256,1.5186 h 1.5528 c -0.85328,0 -2.489,-0.3418 -2.5916,-0.75927 z"
         inkscape:connector-curvature="0"
         style="fill:#131b28;fill-rule:nonzero" />
      <path
         id="path3489"
         d="m 274.69079,959.23228 c -0.46388,0.18799 -1.543,0.3418 -2.3962,0.3418 h 1.5527 c 0.85205,0 1.6894,-0.6836 1.8579,-1.521 0,0 0.30761,-1.5186 0.30761,-1.5186 -0.16967,0.83496 -0.85692,2.5098 -1.322,2.6978 z"
         inkscape:connector-curvature="0"
         style="fill:#131b28;fill-rule:nonzero" />
      <path
         id="path3491"
         d="m 278.29079,945.27228 c 0,0 2.2827,-11.282 2.2827,-11.282 -10e-4,0.007 -0.002,0.0171 -0.004,0.022 0,0 -2.279,11.26 -2.279,11.26 z"
         inkscape:connector-curvature="0"
         style="fill:#131b28;fill-rule:nonzero" />
      <path
         id="path3493"
         d="m 328.74079,902.17728 c 0,0 0.70434,2.9102 0.70434,2.9102 0.1941,0.83251 -0.34424,1.5088 -1.1951,1.5112"
         inkscape:connector-curvature="0"
         style="fill:#131b28;fill-rule:nonzero" />
      <path
         id="path3495"
         d="m 276.01079,956.53528 c 0,0 2.2766,-11.262 2.2766,-11.262 0,0 -2.2766,11.262 -2.2766,11.262 z"
         inkscape:connector-curvature="0"
         style="fill:#131b28;fill-rule:nonzero" />
      <path
         id="path3497"
         d="m 328.04079,899.19628 c 0,0 0.69703,2.981 0.69703,2.981 0,0 -0.69703,-2.981 -0.69703,-2.981 z"
         inkscape:connector-curvature="0"
         style="fill:#131b28;fill-rule:nonzero" />
      <path
         id="path3499"
         d="m 280.57079,933.99128 c 0.16969,-0.83496 0.45045,-2.1875 0.62746,-3.0151 0,0 2.4377,-11.421 2.4377,-11.421 0,0 -2.7612,12.937 -2.7612,12.937 0,0 -0.30397,1.499 -0.30397,1.499 z"
         inkscape:connector-curvature="0"
         style="fill:#131b28;fill-rule:nonzero" />
      <path
         id="path3501"
         d="m 269.70079,897.18428 c -0.16967,0.80567 -0.38696,1.8237 -0.53101,2.4976 0,0 -6.0681,28.43 -6.0681,28.43 0,0 6.3928,-29.946 6.3928,-29.946 0,0 0.2063,-0.98145 0.2063,-0.98145 z"
         inkscape:connector-curvature="0"
         style="fill:#131b28;fill-rule:nonzero" />
      <path
         id="path3503"
         d="m 329.44079,905.08728 c 0,0 -0.70434,-2.9102 -0.70434,-2.9102 0,0 -0.69703,-2.981 -0.69703,-2.981 0,0 -0.35278,-1.5088 -0.35278,-1.5088 -1.3806,-5.3638 -5.4334,-8.4595 -14.233,-8.4595 0,0 -13.7,-0.0146 -13.7,-0.0146 0,0 -12.617,-0.0146 -12.617,-0.0146 h -1.0828 -13.114 c -0.85205,0 -1.6956,0.68115 -1.8713,1.5161 h -10e-4 c 0,0 -0.62743,2.9663 -0.62743,2.9663 0,0 -0.74096,3.5034 -0.74096,3.5034 0,0 -0.2063,0.98145 -0.2063,0.98145 0,0 -6.3928,29.946 -6.3928,29.946 0,0 -6.0681,28.428 -6.0681,28.428 -0.18065,0.83496 -0.24169,1.8579 -0.13792,2.2754 0.1025,0.41747 1.7383,0.75927 2.5915,0.75927 h 12.808 c 0.85327,0 1.9324,-0.15381 2.3962,-0.3418 0.46508,-0.18799 1.1523,-1.8628 1.322,-2.6978 0,0 2.2766,-11.262 2.2766,-11.262 0,0 2.279,-11.26 2.279,-11.26 10e-4,-0.005 0.002,-0.0146 0.004,-0.022 0,0 0.30396,-1.499 0.30396,-1.499 0,0 2.7612,-12.937 2.7612,-12.937 0,0 2.439,-11.426 2.439,-11.426 0.18068,-0.83007 1.0205,-1.5088 1.8713,-1.5112 0,0 40.3,-0.0195 40.3,-0.0195 0.85083,-0.002 1.3892,-0.67872 1.1951,-1.5112 z"
         inkscape:connector-curvature="0"
         style="fill:#131b28;fill-rule:nonzero" />
      <path
         id="path3505"
         d="m 381.32079,878.77368 c -0.85326,0.006 -2.2485,0.0113 -3.1018,0.0113 h -12.899 c -0.85328,0 -1.9458,0.57618 -2.4268,1.2805 0,0 -28.523,41.787 -28.523,41.787 -0.48218,0.70557 -1.0315,0.60059 -1.2207,-0.22949 0,0 -2.0984,-9.2065 -2.0984,-9.2065 -0.18921,-0.83252 -1.0437,-1.5112 -1.8958,-1.5112 h -18.337 c -0.85327,0 -1.3586,0.66895 -1.1255,1.4893 0,0 8.2166,28.784 8.2166,28.784 0.23437,0.82032 0.25147,2.168 0.0403,2.9932 0,0 -3.5815,13.931 -3.5815,13.931 -0.2124,0.82764 0.3125,1.5039 1.1658,1.5039 h 18.123 c 0.85205,0 1.7236,-0.67627 1.9348,-1.5039 0,0 3.5828,-13.931 3.5828,-13.931 0.21119,-0.82519 0.80445,-2.0605 1.3184,-2.7417 0,0 46.306,-61.459 46.306,-61.459 0.51393,-0.68115 0.2356,-1.2354 -0.61645,-1.2292 0,0 -4.8608,0.0317 -4.8608,0.0317 z"
         inkscape:connector-curvature="0"
         style="fill:#131b28;fill-rule:nonzero" />
      <path
         id="path3507"
         d="m 235.64079,914.82328 c 0,0 -0.001,-0.0171 -0.001,-0.0171 -0.10737,0.92528 -0.96069,1.604 -1.8128,1.604 h -23.248 c -0.80323,0 -1.2122,-0.54688 -1.0938,-1.2207 0.007,-0.0195 0.01,-0.0366 0.022,-0.0537 0,0 -0.008,0.002 -0.0146,0.007 0.005,-0.0269 0.005,-0.0512 0.0125,-0.0781 0,0 0.044,-0.16358 0.10625,-0.39552 2.2204,-5.9033 6.7432,-9.7778 15.243,-9.7778 9.5691,0 11.437,4.6753 10.787,9.9316 z m -6.8201,-26.834 c -29.841,0 -36.912,18.113 -40.879,36.394 -3.9673,18.633 -3.6255,36.055 27.253,36.055 h 1.0962 c 0.0976,-0.002 0.19777,-0.002 0.29542,-0.002 h 0.86426 0.31737 0.81055 c 0.11963,-0.002 0.23927,-0.002 0.36133,-0.002 0.30762,0 0.6189,-0.002 0.93017,-0.002 h 0.21852 c 1.2219,-0.002 2.4622,-0.008 3.7048,-0.0125 h 0.0623 c 8.1555,-0.0317 16.334,-0.0927 19.647,-0.11962 0.84717,-0.0125 1.676,-0.6958 1.8506,-1.5234 0,0 1.25,-6.1108 1.25,-6.1108 0,0 0.24293,-1.189 0.24293,-1.189 0,0 1.4917,-7.2876 1.4917,-7.2876 0.1709,-0.83496 -0.38696,-1.5186 -1.2402,-1.5186 h -27.761 c -11.041,0 -14.32,-2.9346 -13.112,-11.56 h 44.377 c 0,0 -0.004,0.005 -0.004,0.005 0.0113,0 0.0208,-0.005 0.0305,-0.005 0.70556,-0.0125 1.3574,-0.49804 1.6162,-1.145 0.0489,-0.1245 0.0904,-0.25391 0.10737,-0.38818 0,0 -0.005,0.005 -0.005,0.005 6.5894,-24.854 4.6997,-41.592 -23.528,-41.592 z"
         inkscape:connector-curvature="0"
         style="fill:#131b28;fill-rule:nonzero" />
      <path
         id="path3509"
         d="m 87.780794,914.72828 c 0,0 -0.41993,1.4868 -0.41993,1.4868 0,0.005 -0.001,0.005 -0.001,0.005 0,0 -3.3508,11.875 -3.3508,11.875 0,0 -3.3496,11.873 -3.3496,11.873 -0.23193,0.82031 -1.1182,1.4917 -1.9727,1.4917 h -17.736 c -13.453,0 -16.729,-10.522 -13.453,-26.042 3.2752,-15.874 9.6973,-25.742 22.938,-26.741 18.094,-1.3648 21.714,11.362 17.345,26.052 z m 12.163,25.818 c 0,0 8.361796,-20.303 10.260996,-32.031 2.59,-15.699 -5.27,-38.466 -35.629996,-38.466 -30.187,0 -43.295,21.737 -48.297,45.367 -5.0012,23.801 1.5515,44.675 31.567,44.504 0,0 23.679,-0.0879 23.679,-0.0879 0,0 22.130996,-0.0806 22.130996,-0.0806 0.85205,-0.007 1.7236,-0.6836 1.9409,-1.5064 0,0 3.855,-14.705 3.855,-14.705 0.21485,-0.8252 -0.30639,-1.5039 -1.1584,-1.5088 0,0 -3.6951,-0.022 -3.6951,-0.022 0,0 -3.6938,-0.022 -3.6938,-0.022 -0.7251,-0.005 -1.140096,-0.47364 -1.052196,-1.0962 0.0159,-0.11225 0.0415,-0.22705 0.0904,-0.34668 z"
         inkscape:connector-curvature="0"
         style="fill:#131b28;fill-rule:nonzero" />
      <path
         id="path3511"
         d="m 249.38079,926.95728 c 0,0.56153 -0.45532,1.0181 -1.0181,1.0181 -0.56152,0 -1.0181,-0.45654 -1.0181,-1.0181 0,-0.56152 0.45655,-1.0156 1.0181,-1.0156 0.56274,0 1.0181,0.4541 1.0181,1.0156 z"
         inkscape:connector-curvature="0"
         style="fill:#131b28;fill-rule:nonzero" />
      <path
         id="path3513"
         d="m -130.56071,900.55828 c -8.335,11.98 -7.2974,27.566 -0.93018,40.295 0.15138,0.30518 0.31006,0.60546 0.46631,0.90576 0.10012,0.19043 0.19409,0.38574 0.29785,0.57373 0.0586,0.11225 0.1245,0.22216 0.18555,0.32959 0.10862,0.20263 0.21972,0.39551 0.33202,0.59326 0.19776,0.34912 0.4004,0.6958 0.60791,1.0425 0.11475,0.19042 0.22828,0.38085 0.34669,0.57128 0.22949,0.37109 0.46509,0.7373 0.70556,1.1035 0.10012,0.15625 0.19775,0.3125 0.30029,0.46386 0.33204,0.49561 0.67139,0.98877 1.0217,1.4746 0.009,0.0125 0.0183,0.0269 0.0293,0.039 0.055,0.0781 0.116,0.15381 0.17212,0.23194 0.30274,0.41747 0.61524,0.83007 0.9314,1.2378 0.116,0.14892 0.23315,0.29785 0.35034,0.44677 0.28199,0.35401 0.56885,0.70558 0.8606,1.0571 0.10862,0.13184 0.2185,0.26366 0.32836,0.39306 0.39185,0.46143 0.79101,0.92041 1.1987,1.3696 0.007,0.007 0.0171,0.0171 0.0244,0.0244 0.0171,0.0195 0.0317,0.0317 0.0464,0.0512 0.39795,0.43457 0.80566,0.85937 1.2183,1.2842 0.12816,0.13184 0.25879,0.26368 0.39062,0.39308 0.31982,0.32226 0.64452,0.63965 0.9729,0.95458 0.13305,0.12695 0.26489,0.25635 0.39795,0.37842 0.43822,0.4126 0.88134,0.81787 1.333,1.2134 0.007,0.007 0.0134,0.0125 0.0207,0.0171 0.0769,0.0684 0.15625,0.13184 0.23194,0.19775 0.39795,0.34424 0.80322,0.68604 1.2109,1.023 0.16601,0.13428 0.33448,0.26612 0.50171,0.40039 0.33325,0.26611 0.67016,0.52979 1.0095,0.78858 0.17945,0.13672 0.35889,0.27343 0.53956,0.41016 0.37475,0.27587 0.75195,0.54687 1.1328,0.81299 0.13915,0.10012 0.27344,0.19775 0.41259,0.29296 0.039,0.0269 0.0745,0.0537 0.1135,0.0806 0.36134,0.24902 0.7312,0.48827 1.0999,0.72754 0.15869,0.105 0.31616,0.21483 0.47608,0.31737 0.5664,0.35889 1.1414,0.7129 1.7224,1.0547 0.15746,0.0904 0.31738,0.17822 0.47606,0.26856 0.42725,0.24658 0.85694,0.48828 1.2927,0.7251 0.2356,0.12695 0.4773,0.24658 0.71534,0.36865 0.30761,0.16113 0.61279,0.3247 0.92529,0.48095 0.0708,0.0343 0.14405,0.0684 0.21362,0.1025 0.12574,0.061 0.25269,0.11963 0.37842,0.18311 0.48461,0.23194 0.9729,0.45899 1.4661,0.67872 0.105,0.0464 0.2063,0.0928 0.31006,0.13916 0.56518,0.24657 1.1352,0.48339 1.7102,0.71045 0.13794,0.0561 0.2771,0.10987 0.41626,0.16356 0.53222,0.20509 1.0718,0.40773 1.6138,0.59815 0.0684,0.0244 0.13429,0.0464 0.20264,0.0707 0.59449,0.20753 1.1951,0.40039 1.7993,0.58838 0.14404,0.0415 0.2893,0.0879 0.43456,0.1294 0.61524,0.18555 1.2232,0.40771 1.8579,0.5249 40.31,7.3511 52.019,-24.224 52.019,-24.224 -9.834,12.812 -27.29,16.191 -43.829,12.429 -0.62622,-0.1416 -1.2341,-0.33691 -1.8457,-0.51758 -0.15504,-0.0464 -0.30762,-0.0927 -0.46021,-0.13916 -0.59692,-0.1831 -1.189,-0.37597 -1.7773,-0.57861 -0.08062,-0.0292 -0.16236,-0.0586 -0.24415,-0.0879 -0.52734,-0.18555 -1.0486,-0.38086 -1.5674,-0.58105 -0.14649,-0.0586 -0.29298,-0.11475 -0.43945,-0.17334 -0.56885,-0.22461 -1.134,-0.45899 -1.6919,-0.70312 -0.11475,-0.0489 -0.22461,-0.10013 -0.33814,-0.14894 -0.47974,-0.21728 -0.95459,-0.437 -1.427,-0.66406 -0.13671,-0.0659 -0.27344,-0.12939 -0.4126,-0.19775 -0.371,-0.181 -0.738,-0.374 -1.104,-0.562 -0.245,-0.129 -0.494,-0.251 -0.737,-0.386 -0.447,-0.239 -0.886,-0.488 -1.323,-0.742 -0.148,-0.083 -0.298,-0.163 -0.447,-0.249 -0.581,-0.342 -1.155,-0.696 -1.723,-1.055 -0.157,-0.1 -0.31,-0.207 -0.465,-0.31 -0.412,-0.266 -0.822,-0.537 -1.226,-0.815 -0.134,-0.091 -0.263,-0.188 -0.395,-0.278 -0.39,-0.276 -0.776,-0.555 -1.159,-0.838 -0.174,-0.129 -0.345,-0.259 -0.514,-0.388 -0.351,-0.269 -0.7,-0.54 -1.046,-0.818 -0.15625,-0.1245 -0.3125,-0.24902 -0.46631,-0.37354 -0.43945,-0.36132 -0.87402,-0.7251 -1.3025,-1.0986 -0.0451,-0.039 -0.094,-0.0781 -0.14282,-0.11963 -0.46386,-0.40771 -0.91919,-0.8252 -1.3696,-1.2451 -0.13062,-0.1245 -0.25758,-0.24659 -0.38575,-0.3711 -0.33325,-0.31738 -0.66161,-0.6372 -0.98389,-0.96435 -0.12939,-0.1294 -0.25879,-0.25635 -0.38574,-0.38575 -0.41015,-0.41991 -0.81299,-0.84473 -1.2073,-1.2768 -0.0195,-0.022 -0.0403,-0.0415 -0.0597,-0.0635 -0.41749,-0.45655 -0.8252,-0.92285 -1.2244,-1.394 -0.10862,-0.12939 -0.21362,-0.2539 -0.32105,-0.38085 -0.29785,-0.35889 -0.59326,-0.72266 -0.88135,-1.0889 -0.108,-0.132 -0.216,-0.267 -0.323,-0.403 -0.347,-0.45 -0.686,-0.899 -1.018,-1.355 -9.1823,-12.525 -12.481,-29.8 -5.142,-43.987"
         inkscape:connector-curvature="0"
         style="fill:#0868ac;fill-rule:nonzero" />
      <path
         id="path3515"
         d="m -104.68721,890.46528 c -6.0278,8.6743 -5.7007,20.286 -0.99854,29.46 0.78858,1.5381 1.6748,3.0298 2.666,4.4507 0.90331,1.2939 1.9043,2.8345 3.103,3.8745 0.43458,0.47852 0.88868,0.94482 1.3525,1.4038 0.11712,0.11963 0.23681,0.23438 0.35645,0.35157 0.45044,0.43701 0.9082,0.8667 1.3818,1.2842 0.0195,0.0146 0.03663,0.0341 0.05613,0.0489 0.005,0.005 0.01,0.007 0.01337,0.0125 0.52368,0.45899 1.0644,0.90089 1.6138,1.3354 0.12212,0.0927 0.24292,0.19044 0.36621,0.28565 0.55054,0.42237 1.1121,0.8374 1.6882,1.2329 0.01713,0.0125 0.03175,0.0244 0.04888,0.0366 0.25391,0.17578 0.5127,0.33936 0.77026,0.50781 0.12325,0.0806 0.24049,0.16602 0.365,0.2417 0.41138,0.26367 0.82762,0.52002 1.2512,0.7666 0.05987,0.0366 0.11838,0.0684 0.177,0.1025 0.365,0.20995 0.73486,0.41747 1.106,0.61767 0.12939,0.0732 0.26122,0.13672 0.39306,0.20508 0.25635,0.13427 0.5127,0.271 0.77392,0.40039 0.039,0.0195 0.07937,0.0366 0.11712,0.0538 0.53101,0.26122 1.0669,0.5127 1.6138,0.75195 0.11712,0.0513 0.23804,0.0976 0.35644,0.14648 0.43701,0.18555 0.87891,0.36622 1.3232,0.53712 0.18799,0.0708 0.37841,0.13916 0.5664,0.20751 0.40284,0.14892 0.80689,0.28565 1.2146,0.42236 0.18432,0.0586 0.365,0.11963 0.54932,0.17579 0.57982,0.18066 1.1523,0.40771 1.7566,0.50781 31.123,5.1562 38.308,-18.806 38.308,-18.806 -6.477,9.3286 -19.02,13.779 -32.405,10.305 -0.59449,-0.15625 -1.1804,-0.32715 -1.7627,-0.51027 -0.17822,-0.0537 -0.35279,-0.11225 -0.52979,-0.17088 -0.41381,-0.13429 -0.82519,-0.27589 -1.2329,-0.42482 -0.18676,-0.0684 -0.37352,-0.13671 -0.55664,-0.20751 -0.44678,-0.1709 -0.88868,-0.34912 -1.3269,-0.53467 -0.11962,-0.0513 -0.24049,-0.0976 -0.35768,-0.15137 -0.54931,-0.23926 -1.0901,-0.49072 -1.6235,-0.7544 -0.27466,-0.13427 -0.54444,-0.27587 -0.81421,-0.41503 -0.15625,-0.0805 -0.31372,-0.16113 -0.46998,-0.2417 -0.34668,-0.18799 -0.69091,-0.3833 -1.0303,-0.58105 -0.0805,-0.0464 -0.16479,-0.0904 -0.24658,-0.13917 -0.42115,-0.24658 -0.83619,-0.50048 -1.2476,-0.76171 -0.12695,-0.0806 -0.24902,-0.16846 -0.37598,-0.25147 -0.271,-0.17578 -0.54199,-0.354 -0.8081,-0.53467 -0.57374,-0.39551 -1.1316,-0.81055 -1.6821,-1.2305 -0.12695,-0.10013 -0.2539,-0.19775 -0.37841,-0.29785 -5.859,-4.626 -10.503,-10.947 -12.711,-18.115 -2.314,-7.434 -1.815,-15.779 2.194,-22.551"
         inkscape:connector-curvature="0"
         style="fill:#0868ac;fill-rule:nonzero" />
      <path
         id="path3517"
         d="m -82.92621,882.92428 c -3.5535,5.2295 -3.9026,11.724 -1.4368,17.5 2.6001,6.1304 7.9285,10.94 14.147,13.22 0.25635,0.0953 0.5127,0.18066 0.77271,0.26855 0.1135,0.0342 0.22582,0.0733 0.34058,0.10737 0.36621,0.11475 0.72998,0.24903 1.1084,0.31983 17.185,3.3203 21.846,-8.8184 23.087,-10.605 -4.0832,5.8789 -10.945,7.29 -19.364,5.2466 -0.665,-0.162 -1.396,-0.402 -2.037,-0.629 -0.822,-0.293 -1.632,-0.627 -2.419,-1.005 -1.495,-0.718 -2.92,-1.59 -4.241,-2.588 -7.534,-5.716 -12.214,-16.621 -7.298,-25.502"
         inkscape:connector-curvature="0"
         style="fill:#0868ac;fill-rule:nonzero" />
      <path
         id="path3519"
         d="m 110.62079,984.77928 c 0,0 -4.9536,11.282 -4.9536,11.282 h -5.4688 c 0,0 0.448,-10.251 0.448,-10.251 0,0 -4.025896,10.251 -4.025896,10.251 h -5.2954 c 0,0 -0.13916,-11.282 -0.13916,-11.282 0,0 0.58471,-2.7856 0.58471,-2.7856 h 3.75 c 0,0 -0.72264,11.143 -0.72264,11.143 0,0 4.1626,-11.143 4.1626,-11.143 h 5.228296 c 0,0 -0.37841,11.282 -0.37841,11.282 0,0 4.1284,-11.282 4.1284,-11.282 h 3.2666 c 0,0 -0.58471,2.7856 -0.58471,2.7856 z"
         inkscape:connector-curvature="0"
         style="fill:#0868ac;fill-rule:nonzero" />
      <path
         id="path3521"
         d="m 119.25079,988.11928 c 0.48217,-2.2022 0.34424,-2.6148 -0.79103,-2.6148 h -1.72 c 0,0 -1.1011,5.1611 -1.1011,5.1611 0,0 -1.6858,5.398 -1.6858,5.398 h -3.1982 c 0,0 2.6135,-12.244 2.6135,-12.244 0,0 0.37964,-1.7896 0.37964,-1.7896 h 2.9236 c 0,0 0.37841,0.82518 0.37841,0.82518 0,0 1.6858,-0.99608 3.335,-0.99608 3.5095,0 3.2348,2.6465 2.4768,6.2598 h -3.6108 z"
         inkscape:connector-curvature="0"
         style="fill:#0868ac;fill-rule:nonzero" />
      <path
         id="path3523"
         d="m 129.64079,980.23928 c -1.4087,0 -2.3035,-0.4126 -1.9604,-2.1314 0.37841,-1.7212 1.4795,-2.1338 2.854,-2.1338 1.3782,0 2.3059,0.41259 1.9275,2.1338 -0.34424,1.6846 -1.4441,2.1314 -2.821,2.1314 z m -1.5124,15.823 h -3.1665 c 0,0 0.62011,-5.5029 0.62011,-5.5029 0,0 1.1011,-5.0903 1.1011,-5.0903 0,0 -2.2009,-0.4834 -2.2009,-0.4834 0,0 0.6189,-2.9907 0.6189,-2.9907 h 6.0181 c 0,0 -2.9907,14.067 -2.9907,14.067 z"
         inkscape:connector-curvature="0"
         style="fill:#0868ac;fill-rule:nonzero" />
      <path
         id="path3525"
         d="m 141.85079,984.97928 c 0,0 -3.9551,0.4834 -3.9551,0.4834 0,0 -1.1365,5.3662 -1.1365,5.3662 -0.31005,1.4795 -0.31005,1.8921 0.99853,1.8921 h 2.6477 c 0,0 -0.55054,2.8198 -0.55054,2.8198 0,0 -2.406,0.72265 -3.4399,0.72265 -4.0588,0 -4.0247,-2.2363 -3.3008,-5.5737 0,0 1.1011,-5.2612 1.1011,-5.2612 0,0 -2.2022,-0.48096 -2.2022,-0.48096 0,0 0.65308,-2.9932 0.65308,-2.9932 h 2.3059 c 0,0 1.3074,-3.5449 1.3074,-3.5449 h 3.1299 c 0,0 -0.75805,3.5449 -0.75805,3.5449 h 3.8525 c 0,0 -0.65308,3.0249 -0.65308,3.0249 z"
         inkscape:connector-curvature="0"
         style="fill:#0868ac;fill-rule:nonzero" />
      <path
         id="path3527"
         d="m 150.07079,985.15928 c -1.8567,0 -2.821,0.96436 -3.1982,2.6831 0,0 5.2966,-0.44677 5.2966,-0.44677 0.24048,-1.1694 0,-2.2363 -2.0984,-2.2363 z m -3.7134,5.227 c -0.24293,1.7212 0.41138,2.3047 2.6123,2.3047 h 5.5371 c 0,0 -0.54933,2.6148 -0.54933,2.6148 0,0 -3.3362,0.92774 -5.813,0.92774 -6.1572,0 -6.2268,-3.4717 -5.4346,-7.1875 0.791,-3.6475 2.2009,-7.2559 8.1506,-7.2559 5.7459,0 6.0217,3.4717 4.6106,8.5962 h -9.1138 z"
         inkscape:connector-curvature="0"
         style="fill:#0868ac;fill-rule:nonzero" />
      <path
         id="path3529"
         d="m 168.09079,996.05928 h -3.1628 c 0,0 0.61888,-5.5029 0.61888,-5.5029 0,0 2.2363,-10.457 2.2363,-10.457 0,0 -2.2034,-0.51514 -2.2034,-0.51514 0,0 0.65431,-2.9932 0.65431,-2.9932 h 6.0205 c 0,0 -4.1638,19.468 -4.1638,19.468 z"
         inkscape:connector-curvature="0"
         style="fill:#0868ac;fill-rule:nonzero" />
      <path
         id="path3531"
         d="m 179.52079,985.15928 c -1.8591,0 -2.821,0.96436 -3.2007,2.6831 0,0 5.2978,-0.44677 5.2978,-0.44677 0.23925,-1.1694 0,-2.2363 -2.0972,-2.2363 z m -3.7158,5.227 c -0.24049,1.7212 0.41381,2.3047 2.6135,2.3047 h 5.5383 c 0,0 -0.55054,2.6148 -0.55054,2.6148 0,0 -3.3374,0.92774 -5.8142,0.92774 -6.1572,0 -6.2244,-3.4717 -5.4334,-7.1875 0.79222,-3.6475 2.2021,-7.2559 8.1519,-7.2559 5.7446,0 6.0193,3.4717 4.6106,8.5962 h -9.1162 z"
         inkscape:connector-curvature="0"
         style="fill:#0868ac;fill-rule:nonzero" />
      <path
         id="path3533"
         d="m 199.43079,985.32928 c 0,0 -4.0246,0.0343 -5.1245,0.0343 -2.3401,0 -2.5806,0.72021 -2.7515,1.477 0,0 -0.13915,0.68847 -0.13915,0.68847 0,0 7.4304,0.55177 7.4304,0.55177 0,0 0.0341,2.373 -0.27587,3.7134 -0.44677,2.2363 -2.7515,4.5044 -6.9128,4.5044 -2.0654,0 -5.4016,-0.78857 -5.4016,-0.78857 0,0 0.58471,-2.7173 0.58471,-2.7173 h 5.1257 c 2.2705,0 2.5806,-0.62013 2.7197,-1.2378 0,0 0.17088,-0.89355 0.17088,-0.89355 0,0 -7.2925,-0.55176 -7.2925,-0.55176 0,0 -0.27466,-1.8237 0.1025,-3.645 0.55176,-2.478 2.8198,-4.6094 6.9824,-4.6094 2.0642,0 5.4004,0.75439 5.4004,0.75439 0,0 -0.6189,2.7197 -0.6189,2.7197 z"
         inkscape:connector-curvature="0"
         style="fill:#0868ac;fill-rule:nonzero" />
      <path
         id="path3535"
         d="m 213.26079,985.32928 c 0,0 -4.0234,0.0343 -5.1245,0.0343 -2.3389,0 -2.5793,0.72021 -2.7515,1.477 0,0 -0.13917,0.68847 -0.13917,0.68847 0,0 7.4316,0.55177 7.4316,0.55177 0,0 0.0341,2.373 -0.27587,3.7134 -0.44678,2.2363 -2.7515,4.5044 -6.9141,4.5044 -2.063,0 -5.4004,-0.78857 -5.4004,-0.78857 0,0 0.58471,-2.7173 0.58471,-2.7173 h 5.1257 c 2.2693,0 2.5793,-0.62013 2.7185,-1.2378 0,0 0.1709,-0.89355 0.1709,-0.89355 0,0 -7.2925,-0.55176 -7.2925,-0.55176 0,0 -0.27465,-1.8237 0.1025,-3.645 0.55175,-2.478 2.8198,-4.6094 6.9836,-4.6094 2.063,0 5.3992,0.75439 5.3992,0.75439 0,0 -0.6189,2.7197 -0.6189,2.7197 z"
         inkscape:connector-curvature="0"
         style="fill:#0868ac;fill-rule:nonzero" />
      <path
         id="path3537"
         d="m 217.59079,998.29928 h -2.7502 c 0,0 0.1025,-2.0654 0.1025,-2.0654 -0.99854,-0.0659 -1.5137,-0.78858 -1.2732,-1.9946 0.37842,-1.7188 1.4453,-2.1313 2.8552,-2.1313 1.3757,0 2.3022,0.41259 1.9263,2.1313 0,0 -0.8606,4.0601 -0.8606,4.0601 z"
         inkscape:connector-curvature="0"
         style="fill:#0868ac;fill-rule:nonzero" />
      <path
         id="path3539"
         d="m 235.99079,985.46928 c -2.063,0 -2.7844,1.2378 -3.2666,3.5083 -0.48218,2.2705 -0.34424,3.6108 1.7188,3.6108 h 2.8552 c 0,0 1.5832,-7.1191 1.5832,-7.1191 h -2.8906 z m 4.7131,8.7695 c 0,0 -0.37964,1.8237 -0.37964,1.8237 0,0 -2.887,-0.0341 -2.887,-0.0341 0,0 -0.41381,-0.89356 -0.41381,-0.89356 0,0 -2.5464,1.0986 -4.2639,1.0986 -4.4043,0 -4.6106,-3.6108 -3.8196,-7.2559 0.79102,-3.7158 2.511,-7.2241 6.8799,-7.2241 1.5832,0 3.7146,0.79102 3.7146,0.79102 0,0 1.7542,-5.9497 1.7542,-5.9497 h 3.1653 c 0,0 -3.75,17.644 -3.75,17.644 z"
         inkscape:connector-curvature="0"
         style="fill:#0868ac;fill-rule:nonzero" />
      <path
         id="path3541"
         d="m 252.09079,985.32928 c -2.6819,0 -3.5437,1.5112 -4.0247,3.7134 -0.44677,2.2363 -0.23925,3.75 2.4072,3.75 2.7527,0 3.5791,-1.4795 4.0588,-3.75 0.48339,-2.1338 0.34424,-3.7134 -2.4414,-3.7134 z m -2.3376,10.938 c -5.6763,0 -6.1243,-3.5425 -5.3674,-7.2241 0.79224,-3.6792 2.7869,-7.1875 8.4631,-7.1875 5.6396,0 6.1572,3.5083 5.3638,7.1875 -0.78979,3.75 -2.7856,7.2241 -8.4595,7.2241 z"
         inkscape:connector-curvature="0"
         style="fill:#0868ac;fill-rule:nonzero" />
      <path
         id="path3543"
         d="m 281.95079,996.05928 c 0,0 0.62012,-5.4346 0.62012,-5.4346 0,0 0.30883,-1.5478 0.30883,-1.5478 0.448,-2.063 0.72266,-3.5767 -1.4453,-3.5767 h -1.6846 c 0.0696,1.0669 -0.13794,2.2705 -0.41259,3.5425 0,0 -1.4783,7.0166 -1.4783,7.0166 h -3.1995 c 0,0 0.6189,-5.4346 0.6189,-5.4346 0,0 0.30883,-1.5478 0.30883,-1.5478 0.44799,-2.063 0.72143,-3.5767 -1.4429,-3.5767 h -1.377 c 0,0 -2.2705,10.559 -2.2705,10.559 h -3.6816 c 0,0 2.9932,-14.067 2.9932,-14.067 h 2.8894 c 0,0 0.44678,0.85937 0.44678,0.85937 0,0 1.9617,-1.0327 3.5437,-1.0327 1.2036,0 2.0984,0.55176 2.4084,1.2378 0.68726,-0.37842 2.6489,-1.2378 4.0601,-1.2378 4.3994,0 4.2639,3.5767 3.4717,7.2241 0,0 -1.4783,7.0166 -1.4783,7.0166 h -3.1995 z"
         inkscape:connector-curvature="0"
         style="fill:#0868ac;fill-rule:nonzero" />
      <path
         id="path3545"
         d="m 296.57079,985.32928 c -2.6843,0 -3.5437,1.5112 -4.0247,3.7134 -0.44677,2.2363 -0.23925,3.75 2.4072,3.75 2.7515,0 3.5791,-1.4795 4.0601,-3.75 0.48096,-2.1338 0.34301,-3.7134 -2.4426,-3.7134 z m -2.3389,10.938 c -5.6775,0 -6.123,-3.5425 -5.3662,-7.2241 0.79101,-3.6792 2.7856,-7.1875 8.4619,-7.1875 5.6421,0 6.1572,3.5083 5.365,7.1875 -0.7898,3.75 -2.7856,7.2241 -8.4607,7.2241 z"
         inkscape:connector-curvature="0"
         style="fill:#0868ac;fill-rule:nonzero" />
      <path
         id="path3547"
         d="m 312.25079,988.11928 c 0.48096,-2.2022 0.34424,-2.6148 -0.7898,-2.6148 h -1.7212 c 0,0 -1.1011,5.1611 -1.1011,5.1611 0,0 -1.6858,5.398 -1.6858,5.398 h -3.1982 c 0,0 2.6135,-12.244 2.6135,-12.244 0,0 0.37963,-1.7896 0.37963,-1.7896 h 2.9236 c 0,0 0.3772,0.82518 0.3772,0.82518 0,0 1.6858,-0.99608 3.3386,-0.99608 3.5071,0 3.2312,2.6465 2.4744,6.2598 h -3.6108 z"
         inkscape:connector-curvature="0"
         style="fill:#0868ac;fill-rule:nonzero" />
      <path
         id="path3549"
         d="m 324.57079,985.15928 c -1.8555,0 -2.8198,0.96436 -3.197,2.6831 0,0 5.2942,-0.44677 5.2942,-0.44677 0.24292,-1.1694 0,-2.2363 -2.0972,-2.2363 z m -3.7146,5.227 c -0.23925,1.7212 0.4126,2.3047 2.6135,2.3047 h 5.5383 c 0,0 -0.54932,2.6148 -0.54932,2.6148 0,0 -3.3374,0.92774 -5.813,0.92774 -6.1572,0 -6.2256,-3.4717 -5.437,-7.1875 0.79223,-3.6475 2.2034,-7.2559 8.1531,-7.2559 5.7434,0 6.0205,3.4717 4.6094,8.5962 h -9.115 z"
         inkscape:connector-curvature="0"
         style="fill:#0868ac;fill-rule:nonzero" />
      <path
         id="path3551"
         d="m 333.06079,996.26928 c -1.4453,0 -2.3376,-0.41259 -1.9592,-2.0972 0.34179,-1.7236 1.4087,-2.1338 2.8552,-2.1338 1.3403,0 2.2681,0.41015 1.9263,2.1338 -0.38086,1.6504 -1.4795,2.0972 -2.8223,2.0972 z"
         inkscape:connector-curvature="0"
         style="fill:#0868ac;fill-rule:nonzero" />
    </g>
    <g
       id="g3773"
       transform="matrix(1.2051067,-0.49310546,0.49310546,1.2051067,-536.78122,354.74058)">
      <g
         id="g4098"
         transform="matrix(0.58628447,0.24440412,-0.24440412,0.58628447,295.78295,-53.427509)">
        <polygon
           transform="translate(276.35039,270.07271)"
           style="fill:#e44d26"
           points="74.633,100.62 437.367,100.62 404.321,470.819 255.778,512 107.644,470.877 "
           id="polygon3253" />
        <polygon
           transform="translate(276.35039,270.07271)"
           style="fill:#f16529"
           points="256,480.523 376.03,447.246 404.27,130.894 256,130.894 "
           id="polygon3255" />
        <polygon
           transform="translate(276.35039,270.07271)"
           style="fill:#ebebeb"
           points="142.132,176.305 143.219,188.488 154.38,313.627 256,313.627 256,268.217 195.91,268.217 191.76,221.716 256,221.716 256,176.305 255.843,176.305 "
           id="polygon3257" />
        <polygon
           transform="translate(276.35039,270.07271)"
           style="fill:#ebebeb"
           points="256,386.153 255.801,386.206 205.227,372.55 201.994,336.333 177.419,336.333 156.409,336.333 162.771,407.634 255.791,433.457 256,433.399 "
           id="polygon3259" />
        <path
           inkscape:connector-curvature="0"
           d="m 384.73239,270.07271 h 23.077 v 22.8 h 21.11 v -22.8 h 23.078 v 69.044 h -23.077 v -23.12 h -21.11 v 23.12 h -23.077 v -69.044 z"
           id="path3261" />
        <path
           inkscape:connector-curvature="0"
           d="m 482.34439,292.96871 h -20.316 v -22.896 h 63.72 v 22.896 h -20.325 v 46.148 h -23.078 v -46.148 z"
           id="path3263" />
        <path
           inkscape:connector-curvature="0"
           d="m 535.86139,270.07271 h 24.063 l 14.802,24.26 14.787,-24.26 h 24.072 v 69.044 h -22.982 v -34.222 l -15.877,24.549 h -0.397 l -15.888,-24.549 v 34.222 h -22.58 v -69.044 z"
           id="path3265" />
        <path
           inkscape:connector-curvature="0"
           d="m 625.07039,270.07271 h 23.084 v 46.222 h 32.453 v 22.822 h -55.537 v -69.044 z"
           id="path3267" />
        <polygon
           transform="translate(276.35039,270.07271)"
           style="fill:#ffffff"
           points="306.49,372.521 255.843,386.191 255.843,433.435 348.937,407.634 349.62,399.962 360.291,280.411 361.399,268.217 349.162,268.217 255.843,268.217 255.843,313.627 311.761,313.627 "
           id="polygon3269" />
        <polygon
           transform="translate(276.35039,270.07271)"
           style="fill:#ffffff"
           points="365.531,221.716 366.442,211.509 368.511,188.488 369.597,176.305 255.843,176.305 255.843,204.509 255.843,221.605 255.843,221.716 365.385,221.716 365.385,221.716 "
           id="polygon3271" />
      </g>
    </g>
    <g
       id="g4253"
       transform="translate(499.01536,-103.03556)">
      <g
         id="g4182"
         transform="translate(-563.42036,394.60381)">
        <path
           id="path4184"
           d="m 685.164,96.681 h -24.688 l 25.674,27.859 v 13.261 h -52.882 v -15.526 h 25.669 l -25.669,-27.86 v -13.28 h 51.896 v 15.546 l 0,0 z m -62.378,0 h -24.688 l 25.673,27.859 v 13.261 h -52.882 v -15.526 h 25.672 l -25.672,-27.86 v -13.28 h 51.897 v 15.546 z m -61.768,0.631 h -26.64 v 24.313 h 26.64 v 16.176 H 515.444 V 81.135 h 45.574 v 16.177 z"
           inkscape:connector-curvature="0"
           style="fill:#131313" />
      </g>
      <polygon
         id="polygon4186"
         points="722.425,467.241 600.614,501.011 479.142,467.29 452.071,163.67 749.521,163.67 "
         style="fill:#1572b6"
         transform="translate(-563.42036,394.60381)" />
      <polygon
         id="polygon4188"
         points="722.382,188.496 600.798,188.496 600.798,475.199 699.225,447.911 "
         style="fill:#33a9dc"
         transform="translate(-563.42036,394.60381)" />
      <g
         id="g4190"
         transform="translate(-563.42036,394.60381)">
        <polygon
           id="polygon4192"
           points="684.127,335.732 600.797,335.732 600.797,298.496 650.072,298.496 653.475,260.364 600.797,260.364 600.797,223.125 600.926,223.125 694.172,223.125 693.279,233.116 "
           style="fill:#ffffff" />
        <polygon
           id="polygon4194"
           points="601.02,395.204 600.857,395.25 559.385,384.051 556.733,354.353 536.582,354.353 519.354,354.353 524.57,412.82 600.848,433.996 601.02,433.948 "
           style="fill:#ebebeb" />
        <polygon
           id="polygon4196"
           points="677.23,412.82 677.79,406.53 684.268,334.156 646.907,334.156 642.423,384.026 600.891,395.236 600.891,433.978 "
           style="fill:#ffffff" />
        <polygon
           id="polygon4198"
           points="508.535,233.116 507.645,223.125 600.926,223.125 600.926,246.253 600.926,260.272 600.926,260.364 511.098,260.364 511.098,260.364 510.979,260.364 510.232,251.994 "
           style="fill:#ebebeb" />
        <polygon
           id="polygon4200"
           points="557.406,308.491 556.516,298.5 600.797,298.5 600.797,321.629 600.797,335.646 600.797,335.738 559.969,335.738 559.969,335.738 559.85,335.738 559.104,327.369 "
           style="fill:#ebebeb" />
      </g>
    </g>
    <g
       id="g4270"
       transform="translate(-9.7338693,244.37281)">
      <polygon
         transform="matrix(1.8082311,0,0,1.6730109,239.26772,408.83454)"
         style="fill:#b3b3b3"
         points="0.554,29.975 13.621,138.311 83.331,176.625 153.4,137.792 166.462,29.46 83.243,0.875 "
         id="polygon3177" />
      <polygon
         transform="matrix(-1.8082311,0,0,1.6730109,540.16835,405.80408)"
         style="fill:#a6120d"
         points="146.041,132.609 158.214,35.721 83.05,10.089 83.05,167.471 "
         id="polygon3179" />
      <polygon
         transform="matrix(-1.8082311,0,0,1.6730109,539.80237,405.55155)"
         style="fill:#dd1b16"
         points="83.049,167.471 83.049,10.086 9.833,36.183 21.03,133.072 "
         id="polygon3181" />
      <path
         style="fill:#f2f2f2"
         inkscape:connector-curvature="0"
         d="m 352.17509,565.08037 37.4123,16.18638 h 39.43209 l 18.53618,42.896 34.47754,0.59057 -92.44581,-190.2799 -37.4123,130.60695 z m 3.61646,-8.14924 33.54811,-61.44802 27.51766,60.39068 H 389.5892 l -33.79765,1.05734 z"
         id="path3183" />
      <polygon
         transform="matrix(-1.8082311,0,0,1.6730109,539.71966,407.90688)"
         style="fill:#b3b3b3"
         points="107.062,103.546 118.285,129.543 136.529,129.881 83.049,15.804 83.186,52.271 100.454,88.396 83.088,88.396 83.049,103.523 "
         id="polygon3185" />
    </g>
  </g>
</svg>
