<?xml version="1.0" encoding="utf-8"?>
<!-- Generator: Adobe Illustrator 19.1.0, SVG Export Plug-In . SVG Version: 6.00 Build 0)  -->
<svg version="1.1" id="Layer_1" xmlns="http://www.w3.org/2000/svg" xmlns:xlink="http://www.w3.org/1999/xlink" x="0px" y="0px"
	 viewBox="0 163.3 500 174.7" style="enable-background:new 0 163.3 500 174.7;" xml:space="preserve">
<style type="text/css">
	.st0{fill:#333333;}
	.st1{fill:#1E72B9;}
	.st2{fill:#A1C44B;}
	.st3{fill:#333333;stroke:#333333;stroke-miterlimit:10;}
</style>
<g>
	<path class="st0" d="M157.4,262.2l3.1,1.4c-1,1.7-2.2,3.1-3.5,4.1s-2.8,1.8-4.4,2.4c-1.6,0.5-3.5,0.8-5.6,0.8
		c-4.6,0-8.2-1.3-10.8-3.9c-2.6-2.6-3.9-5.6-3.9-8.9c0-3.1,1.1-5.9,3.3-8.3c2.8-3.1,6.5-4.6,11.2-4.6c4.8,0,8.6,1.6,11.5,4.7
		c2,2.2,3.1,5,3.1,8.4H136c0.1,2.8,1.1,5.2,3.1,7s4.5,2.7,7.5,2.7c1.4,0,2.8-0.2,4.2-0.6c1.4-0.4,2.5-1,3.5-1.7
		S156.3,263.8,157.4,262.2z M157.4,255.6c-0.5-1.7-1.2-3-2.1-4s-2.1-1.8-3.7-2.4c-1.5-0.6-3.1-0.9-4.8-0.9c-2.8,0-5.1,0.8-7.1,2.3
		c-1.5,1.1-2.6,2.8-3.3,5.1h21L157.4,255.6L157.4,255.6z"/>
	<path class="st0" d="M166.8,245.9h3.7v3.6c1.1-1.4,2.3-2.5,3.5-3.2s2.5-1,3.8-1c1,0,2.1,0.3,3.2,0.8l-1.9,2.7
		c-0.8-0.3-1.4-0.4-1.9-0.4c-1.2,0-2.4,0.4-3.5,1.3c-1.1,0.9-2,2.2-2.6,4c-0.4,1.4-0.7,4.2-0.7,8.4v8.3h-3.7L166.8,245.9
		L166.8,245.9z"/>
	<path class="st0" d="M182.8,245.9h3.7v3.6c1.1-1.4,2.3-2.5,3.5-3.2s2.5-1,3.8-1c1,0,2.1,0.3,3.2,0.8l-1.9,2.7
		c-0.8-0.3-1.4-0.4-1.9-0.4c-1.2,0-2.4,0.4-3.5,1.3c-1.1,0.9-2,2.2-2.6,4c-0.4,1.4-0.7,4.2-0.7,8.4v8.3h-3.7L182.8,245.9
		L182.8,245.9z"/>
	<path class="st0" d="M197.1,245.9h3.8l9.7,18.8l9.4-18.8h3.9L207,279.3h-3.8l5.4-10.8L197.1,245.9z"/>
</g>
<g>
	<path class="st0" d="M364.4,245.2c3.8,0,6.9,1.4,9.4,4.1c2.3,2.5,3.4,5.4,3.4,8.8c0,3.4-1.2,6.4-3.6,9c-2.4,2.6-5.4,3.8-9.2,3.8
		c-3.8,0-6.8-1.3-9.2-3.8c-2.4-2.6-3.6-5.5-3.6-9c0-3.4,1.1-6.3,3.4-8.8C357.5,246.6,360.6,245.2,364.4,245.2z M364.4,248.3
		c-2.6,0-4.9,1-6.7,2.9c-1.9,1.9-2.8,4.3-2.8,7c0,1.8,0.4,3.4,1.3,4.9s2,2.7,3.5,3.5s3.1,1.2,4.8,1.2s3.3-0.4,4.8-1.2s2.6-2,3.5-3.5
		s1.3-3.2,1.3-4.9c0-2.7-0.9-5.1-2.8-7C369.2,249.3,367,248.3,364.4,248.3z"/>
	<path class="st0" d="M379.7,245.9h3.2l7.5,17.7l7.8-17.7h0.6l7.9,17.7l7.6-17.7h3.3L407,270.3h-0.6l-7.8-17.5l-7.8,17.5h-0.6
		L379.7,245.9z"/>
	<path class="st0" d="M441.8,262.2l2.7,1.4c-0.9,1.7-1.9,3.1-3,4.1s-2.4,1.8-3.8,2.4c-1.4,0.5-3,0.8-4.8,0.8c-4,0-7.1-1.3-9.4-3.9
		c-2.2-2.6-3.4-5.6-3.4-8.9c0-3.1,1-5.9,2.9-8.3c2.4-3.1,5.6-4.6,9.7-4.6c4.2,0,7.5,1.6,10,4.7c1.8,2.2,2.7,5,2.7,8.4h-22
		c0.1,2.8,1,5.2,2.7,7c1.8,1.8,3.9,2.7,6.5,2.7c1.2,0,2.5-0.2,3.6-0.6c1.2-0.4,2.2-1,3-1.7C439.9,265,440.8,263.8,441.8,262.2z
		 M441.8,255.6c-0.4-1.7-1-3-1.8-4s-1.9-1.8-3.2-2.4s-2.7-0.9-4.2-0.9c-2.4,0-4.5,0.8-6.2,2.3c-1.3,1.1-2.2,2.8-2.9,5.1h18.3
		L441.8,255.6L441.8,255.6z"/>
	<path class="st0" d="M450.6,236.4h3.1v33.9h-3.1V236.4z"/>
	<path class="st0" d="M459.8,236.4h3.1v33.9h-3.1V236.4z"/>
</g>
<rect x="269.6" y="174.2" transform="matrix(-0.9654 -0.2607 0.2607 -0.9654 480.7 538.9852)" class="st1" width="13" height="126.8"/>
<polygon class="st2" points="303.9,255 389.3,213 389.3,224.3 303.9,268 "/>
<polygon class="st1" points="389.3,224.3 303.9,198 303.9,185.5 389.3,213 "/>
<polygon class="st2" points="123.8,198.5 38.4,240.4 38.4,229.1 123.8,185.5 "/>
<polygon class="st1" points="38.4,229.1 123.7,255.5 123.6,268 38.4,240.4 "/>
<g>
	<path class="st3" d="M156.8,291.9h1.9l3.8,13.2l5.3-13.2h0.4l5.2,13.2l3.8-13.2h1.9l-5.3,18.4h-0.3l-5.4-13.9l-5.6,13.9H162
		L156.8,291.9z"/>
	<path class="st3" d="M182.4,291.9h10.5v1.8h-8.7v5.8h8.6v1.8h-8.6v7.2h8.6v1.8h-10.5L182.4,291.9L182.4,291.9z"/>
	<path class="st3" d="M196.1,291.9h3.6c1.5,0,2.6,0.2,3.4,0.5c0.8,0.3,1.4,0.9,1.9,1.6s0.7,1.5,0.7,2.4c0,0.8-0.2,1.6-0.6,2.2
		c-0.4,0.7-1,1.2-1.8,1.6c1,0.3,1.7,0.7,2.2,1.1c0.5,0.4,0.9,1,1.2,1.6c0.3,0.6,0.4,1.3,0.4,2c0,1.5-0.5,2.7-1.6,3.7
		s-2.5,1.5-4.3,1.5h-5L196.1,291.9L196.1,291.9z M197.9,293.7v5.9h1.1c1.3,0,2.2-0.1,2.8-0.4c0.6-0.2,1.1-0.6,1.4-1.1
		c0.4-0.5,0.5-1.1,0.5-1.7c0-0.8-0.3-1.5-0.9-2c-0.6-0.5-1.5-0.7-2.8-0.7H197.9L197.9,293.7z M197.9,301.4v7h2.3
		c1.3,0,2.3-0.1,3-0.4s1.1-0.7,1.5-1.2c0.4-0.6,0.6-1.2,0.6-1.8c0-0.8-0.3-1.5-0.8-2.1c-0.5-0.6-1.3-1-2.2-1.2
		c-0.6-0.1-1.7-0.2-3.3-0.2L197.9,301.4L197.9,301.4z"/>
	<path class="st3" d="M217.9,291.9h1.8V303c0,1.3,0,2.1,0.1,2.5c0.1,0.7,0.3,1.3,0.6,1.8s0.8,0.9,1.5,1.2c0.7,0.3,1.4,0.5,2.1,0.5
		c0.6,0,1.2-0.1,1.7-0.4c0.6-0.3,1-0.6,1.4-1.1s0.6-1,0.8-1.7c0.1-0.5,0.2-1.4,0.2-2.9v-11.1h1.8V303c0,1.6-0.2,3-0.5,4
		s-1,1.9-1.9,2.6c-1,0.7-2.1,1.1-3.5,1.1c-1.5,0-2.8-0.4-3.8-1.1c-1.1-0.7-1.8-1.6-2.1-2.8c-0.2-0.7-0.3-2-0.3-3.9L217.9,291.9
		L217.9,291.9z"/>
	<path class="st3" d="M234.3,291.9h1.8v18.4h-1.8V291.9z"/>
	<path class="st3" d="M287.1,310.5v-16.4h3.4c2.5,0,4.2,0.2,5.3,0.6c1.6,0.6,2.8,1.5,3.7,2.9c0.9,1.4,1.3,3,1.3,4.9
		c0,1.6-0.4,3.1-1.1,4.3c-0.7,1.2-1.6,2.2-2.8,2.8c-1.1,0.6-2.7,0.9-4.8,0.9H287.1L287.1,310.5z M288.7,308.9h1.9
		c2.3,0,3.8-0.1,4.7-0.4c1.2-0.4,2.2-1.1,2.9-2.2c0.7-1,1.1-2.3,1.1-3.8c0-1.6-0.4-2.9-1.1-4.1c-0.8-1.1-1.8-1.9-3.2-2.3
		c-1-0.3-2.7-0.5-5.1-0.5h-1.2L288.7,308.9L288.7,308.9z"/>
	<path class="st3" d="M304.1,294.1h9.4v1.6h-7.8v5.1h7.7v1.6h-7.7v6.4h7.7v1.6h-9.3L304.1,294.1L304.1,294.1z"/>
	<path class="st3" d="M315.1,294.1h1.8l5.4,12.7l5.5-12.7h1.8l-7.1,16.4h-0.4L315.1,294.1z"/>
	<path class="st3" d="M332.4,294.1h9.4v1.6H334v5.1h7.7v1.6H334v6.4h7.7v1.6h-9.3L332.4,294.1L332.4,294.1z"/>
	<path class="st3" d="M344.6,294.1h1.6v14.8h6.3v1.6h-7.9V294.1z"/>
	<path class="st3" d="M363,293.7c2.5,0,4.6,0.8,6.2,2.5c1.7,1.7,2.5,3.7,2.5,6.1c0,2.4-0.8,4.4-2.5,6.1s-3.7,2.5-6.1,2.5
		s-4.5-0.8-6.2-2.5s-2.5-3.7-2.5-6c0-1.6,0.4-3,1.1-4.4c0.8-1.3,1.8-2.4,3.1-3.2C360,294.1,361.4,293.7,363,293.7z M363,295.3
		c-1.2,0-2.4,0.3-3.5,0.9c-1.1,0.6-1.9,1.5-2.5,2.6c-0.6,1.1-0.9,2.3-0.9,3.6c0,1.9,0.7,3.6,2,4.9c1.4,1.3,3,2,4.9,2
		c1.3,0,2.5-0.3,3.5-0.9c1.1-0.6,1.9-1.5,2.5-2.5c0.6-1.1,0.9-2.3,0.9-3.6c0-1.3-0.3-2.5-0.9-3.5c-0.6-1.1-1.5-1.9-2.6-2.5
		C365.4,295.6,364.3,295.3,363,295.3z"/>
	<path class="st3" d="M375,294.1h3.3c1.9,0,3.1,0.1,3.8,0.2c0.9,0.2,1.7,0.7,2.3,1.4c0.6,0.7,0.9,1.6,0.9,2.7c0,1.1-0.3,2-0.9,2.7
		s-1.4,1.2-2.4,1.4c-0.7,0.2-2.1,0.3-4.2,0.3h-1.2v7.6H375V294.1z M376.6,295.7v5.6h2.8c1.1,0,1.9-0.1,2.5-0.3
		c0.5-0.2,0.9-0.5,1.2-1c0.3-0.5,0.4-1,0.4-1.5s-0.1-1.1-0.4-1.5c-0.3-0.5-0.7-0.8-1.2-1s-1.3-0.3-2.4-0.3L376.6,295.7L376.6,295.7z
		"/>
	<path class="st3" d="M388.5,294.1h9.4v1.6h-7.8v5.1h7.7v1.6h-7.7v6.4h7.7v1.6h-9.3L388.5,294.1L388.5,294.1z"/>
	<path class="st3" d="M400.8,294.1h3.3c1.8,0,3.1,0.1,3.7,0.2c1,0.2,1.8,0.7,2.4,1.4c0.6,0.7,0.9,1.6,0.9,2.7c0,0.9-0.2,1.7-0.6,2.4
		s-1,1.2-1.8,1.5s-1.9,0.5-3.2,0.5l5.9,7.6h-2l-5.9-7.6h-0.9v7.6H401v-16.3H400.8L400.8,294.1z M402.5,295.7v5.6h2.8
		c1.1,0,1.9-0.1,2.4-0.3c0.5-0.2,0.9-0.5,1.2-1s0.4-1,0.4-1.5s-0.1-1-0.4-1.5c-0.3-0.4-0.7-0.8-1.2-1s-1.3-0.3-2.4-0.3L402.5,295.7
		L402.5,295.7z"/>
</g>
<rect x="34.8" y="185.5" class="st0" width="4.4" height="82.5"/>
</svg>
