<?xml version="1.0" encoding="UTF-8" standalone="no"?>
<svg
        xmlns:dc="http://purl.org/dc/elements/1.1/"
        xmlns:cc="http://creativecommons.org/ns#"
        xmlns:rdf="http://www.w3.org/1999/02/22-rdf-syntax-ns#"
        xmlns:svg="http://www.w3.org/2000/svg"
        xmlns="http://www.w3.org/2000/svg"
        version="1.1">
    <defs>
        <font

                id="Powell">
            <font-face
                    id="Powell"
                    font-family="Powell"/>
            <missing-glyph
                    d="M0,0h1000v1024h-1000z" />
            <glyph
                    glyph-name="space"
                    unicode=" "
                    d=" "
                    horiz-adv-x="300"
                    id="glyph3208" />
            <glyph
                    glyph-name="a"
                    unicode="a"
                    horiz-adv-x="800"
                    d="m 502.18699,740.07168 c -143.667,0 -260.125,-116.45788 -260.125,-260.12497 0,-127.2635 91.396,-233.1865 212.125,-255.7188 l 96,0 c 40.9692,7.6476 78.5523,24.8881 110.3438,49.3125 l 0,-49.3125 101.625,0 0,246.5 c 0.1067,3.0619 0.1875,6.1309 0.1875,9.2188 0,3.0247 -0.085,6.0314 -0.1875,9.0312 -4.7631,139.48209 -119.3265,251.09377 -259.9688,251.09377 z m -3.625,-96.03128 c 89.2293,0 161.5625,-72.3332 161.5625,-161.56249 0,-89.2292 -72.3332,-161.5625 -161.5625,-161.5625 -89.2292,0 -161.5625,72.3333 -161.5625,161.5625 0,89.22929 72.3333,161.56249 161.5625,161.56249 z"
                    id="glyph3210" />
            <glyph
                    glyph-name="b"
                    unicode="b"
                    horiz-adv-x="600"
                    d="m 229.03359,982.71704 0,-489.49998 c -0.1067,-3.0619 -0.1875,-6.1309 -0.1875,-9.2188 0,-3.0247 0.085,-6.0314 0.1875,-9.0312 4.7631,-139.482 119.3265,-251.0938 259.9688,-251.0938 143.667,0 260.12513,116.458 260.12513,260.125 0,143.667 -116.45813,260.15628 -260.12513,260.15628 -59.579,0 -114.4824,-20.0526 -158.3438,-53.75 l 0,292.3125 -101.625,0 z m 263.5938,-339.68748 c 89.2292,0 161.5626,-72.3333 161.5626,-161.5625 0,-89.2293 -72.3334,-161.5625 -161.5626,-161.5625 -89.2293,0 -161.5625,72.3332 -161.5625,161.5625 0,89.2292 72.3332,161.5625 161.5625,161.5625 z"
                    id="glyph3212" />
            <glyph
                    glyph-name="c"
                    unicode="c"
                    horiz-adv-x="550"
                    d="m 549.65061,744.49301 c -143.667,0 -260.1562,-116.48918 -260.1562,-260.15618 0,-143.6671 116.4892,-260.12497 260.1562,-260.12497 51.9791,0 100.4025,15.26917 141.0312,41.53117 l 0,131.0625 c -28.4887,-45.9381 -79.3761,-76.5625 -137.4062,-76.5625 -89.2292,0 -161.5625,72.3333 -161.5625,161.5625 0,89.2293 72.3333,161.5625 161.5625,161.5625 58.0301,0 108.9175,-30.5931 137.4062,-76.5312 l 0,136.15618 c -40.6287,26.2673 -89.0521,41.5 -141.0312,41.5 z"
                    id="glyph3214" />
            <glyph
                    glyph-name="d"
                    unicode="d"
                    horiz-adv-x="600"
                    d="m 762.15583,983.81836 0,-489.49998 c 0.1067,-3.0619 0.1875,-6.1309 0.1875,-9.2188 0,-3.0247 -0.085,-6.0314 -0.1875,-9.0312 -4.7631,-139.482 -119.32658,-251.09382 -259.96888,-251.09382 -143.667,0 -260.125,116.45802 -260.125,260.12502 0,143.667 116.458,260.15628 260.125,260.15628 59.579,0 114.4824,-20.0526 158.3438,-53.75 l 0,292.3125 101.62508,0 z M 498.56195,644.13088 c -89.2292,0 -161.5625,-72.3333 -161.5625,-161.5625 0,-89.2293 72.3333,-161.5625 161.5625,-161.5625 89.2293,0 161.5625,72.3332 161.5625,161.5625 0,89.2292 -72.3332,161.5625 -161.5625,161.5625 z"
                    id="glyph3216" />
            <glyph
                    glyph-name="e"
                    unicode="e"
                    horiz-adv-x="600"
                    d="m 500,745 c -143.667,0 -260.1563,-116.48918 -260.1563,-260.15618 0,-143.667 116.4893,-260.125 260.1563,-260.125 115.8426,0 213.9826,75.7298 247.6563,180.375 l -102.125,0 c -27.3875,-50.2498 -80.6438,-84.3438 -141.9063,-84.3438 -88.4489,0 -160.2814,71.067 -161.5312,159.2188 l 278.4687,0 44.5938,0 94.9062,0 c 0.03,1.6216 0.062,3.2462 0.062,4.875 0,143.667 -116.458,260.15618 -260.125,260.15618 z m 3.625,-101.12498 c 58.6466,0 110.0038,-31.246 138.3125,-78 l -276.5937,0 c 28.3088,46.7535 79.635,78 138.2812,78 z"
                    id="glyph3218" />
            <glyph
                    glyph-name="f"
                    unicode="f"
                    horiz-adv-x="500"
                    d="m 540,985 c -140.6423,0 -255.2057,-111.6119 -259.9688,-251.0938 -0.1025,-2.9998 -0.1875,-6.0064 -0.1875,-9.0312 0,-3.0879 0.081,-6.1569 0.1875,-9.2188 l 0,-115.99998 -74.8437,0 0,-102 74.8437,0 0,-271.50004 101.625,0 0,226.00004 -0.375,0 c 0.073,5.8582 0.072,23.4309 0.031,45.5 l 284.2188,0 0,102 -284.4375,0 c -0.081,67.08998 0.04,131.28128 1,131.28128 1.8715,87.6046 73.4776,158.0312 161.5312,158.0312 88.0534,0 159.6284,-70.4267 161.5,-158.0312 l 94.90628,0 c -3.2202,140.8675 -118.38988,254.0625 -260.03128,254.0625 z"
                    id="glyph3220" />
            <glyph
                    glyph-name="g"
                    unicode="g"
                    horiz-adv-x="600"
                    d="m 450.77799,745.0936 c -143.667,0 -260.1562,-116.48918 -260.1562,-260.15618 0,-143.667 116.4892,-260.125 260.1562,-260.125 62.6235,0 120.0765,22.1369 164.96877,59 -2.4759,-9.4242 1.6612,-27.6533 -3.3125,-58.75 -4.6398,-29.0088 -30.096,-50.3274 -53.50617,-67.4608 -26.7184,-19.5545 -59.6659,-31.1017 -95.3063,-31.1017 -39.2829,0 -75.2868,14.0304 -103.2813,37.3437 l -130.3125,0 c 43.6684,-82.35197 130.2702,-138.79457 229.9688,-138.46887 144.18337,0.4711 241.95007,93.25219 250.46857,199.68767 7.0098,87.5849 0,244.9687 0,244.9687 0.2793,4.9385 0.4375,9.8979 0.4375,14.9063 0,143.667 -116.4579,260.15618 -260.12487,260.15618 z m 3.625,-101.12498 c 87.1957,0 158.24377,-69.085 161.43747,-155.5 l -0.094,0 0,-14.375 c -4.3271,-85.3654 -74.90287,-153.25 -161.34367,-153.25 -89.2293,0 -161.5625,72.3332 -161.5625,161.5625 0,89.2292 72.3332,161.5625 161.5625,161.5625 z"
                    id="glyph3222" />
            <glyph
                    glyph-name="h"
                    unicode="h"
                    horiz-adv-x="600"
                    d="m 232.86885,1002.6521 c -0.4675,-276.71749 -0.5938,-505.08347 -0.5938,-776.68752 l 100.8125,0 c -0.05,85.43665 1.3276,174.71205 1.2188,258.25005 0,89.2293 72.3332,161.5625 161.5625,161.5625 85.7752,0 155.9156,-66.8432 161.2188,-151.2813 -1.2103,-87.6291 -0.5937,-178.276 -0.5937,-266.96875 l 95.81247,0 c -0.5364,92.17125 0,183.74195 0,266.96875 l -0.25,0 c -6.6847,137.7099 -120.44527,247.31248 -259.81257,247.31248 -59.9486,0 -115.1679,-20.3033 -159.1563,-54.375 l 0,315.21879 z"
                    id="glyph3224" />
            <glyph
                    glyph-name="i"
                    unicode="i"
                    horiz-adv-x="200"
                    d="m 299.55442,796.50283 c -25.8055,0 -46.7187,-20.9131 -46.7187,-46.7187 0,-25.8056 20.9131,-46.7187 46.7187,-46.7187 25.8055,0 46.7188,20.9131 46.7188,46.7187 0,25.8056 -20.9133,46.7187 -46.7188,46.7187 z m -46.125,-139.5937 c -0.1964,-4.5893 -0.3373,-9.18308 -0.4374,-13.81248 -0.1025,-4.7369 -0.1876,-9.4425 -0.1876,-14.2188 0,-4.876 0.081,-9.7588 0.1876,-14.5937 l 0,-389.2187 96.4062,0 0,431.84368 -95.9688,0 z"
                    id="glyph3226" />
            <glyph
                    glyph-name="j"
                    unicode="j"
                    horiz-adv-x="550"
                    d="m 698.15562,829.10947 c -26.6753,0 -48.3125,-21.6371 -48.3125,-48.3124 0,-26.6755 21.6372,-48.2813 48.3125,-48.2813 26.6754,0 48.2812,21.6058 48.2812,48.2813 0,26.6753 -21.6058,48.3124 -48.2812,48.3124 z m -46.9062,-137.3437 c -0.4314,-57.60998 -0.2624,4.4166 -1.4063,-79.18748 -1.1438,-83.6041 -3.1925,-290.6034 -4.0625,-422.4375 0.1183,-89.22921 -72.3332,-161.56257 -161.5625,-161.56257 -77.9759,0 -143.0455,55.2375 -158.2187,128.71887 l -95.875,0 C 247.38462,30.36762 356.17722,-67.453 487.84312,-67.453 c 140.6423,0 255.2056,111.61172 259.9687,251.09379 0.084,167.7689 0,338.8476 0,507.74998 l -96.5624,0.375 z"
                    id="glyph3228" />
            <glyph
                    glyph-name="k"
                    unicode="k"
                    horiz-adv-x="600"
                    d="m 241.42108,1002.9334 c -0.4675,-276.71753 -0.5938,-505.08351 -0.5938,-776.68747 l 99.7813,0 0,217.56246 51.1875,51 73.5625,-112.9375 -0.1875,-0.125 101.625,-156.06246 128.5,0.5 -229.0938,331.74996 203.4375,213.81248 -0.8437,0.8437 -127.7813,-1.0937 -200.4062,-194.31248 0,425.75001 -99.1875,0 z"
                    id="glyph3230" />
            <glyph
                    glyph-name="l"
                    unicode="l"
                    horiz-adv-x="200"
                    d="m 200.66428,1002.6521 c -0.4675,-276.71749 -0.5937,-505.08347 -0.5937,-776.68748 l 97.65621,0 0,776.68748 -97.06251,0 z"
                    id="glyph3232" />
            <glyph
                    glyph-name="m"
                    unicode="m"
                    d="m 712.86695,741.37609 c -87.3863,0 -164.67603,-43.0971 -211.84373,-109.18748 -47.1954,65.85448 -124.39273,108.78128 -211.59383,108.78128 -140.6423,0 -255.205602,-111.61168 -259.968702,-251.09378 -0.1025,-2.9998 -0.1875,-6.0065 -0.1875,-9.0312 0,-3.0879 0.081,-6.1569 0.1875,-9.2188 l 0,-246.5 100.812502,0 c -0.05,85.4366 1.3275,174.712 1.2187,258.25 0,89.2293 72.3332,161.5625 161.5625,161.5625 82.9871,0 151.37263,-62.5574 160.53133,-143.0937 -0.3003,-3.8322 -0.5551,-7.6854 -0.6875,-11.5625 -0.1025,-2.9998 -0.1875,-6.0066 -0.1875,-9.0313 0,-3.0879 0.081,-6.1568 0.1875,-9.2187 l 0,-246.5 100.8125,0 c -0.05,85.4366 1.3275,174.712 1.2187,258.25 0,89.2293 72.33323,161.5625 161.56253,161.5625 85.77522,0 155.91562,-66.8433 161.21882,-151.2813 -1.2103,-87.6292 -0.5938,-178.2759 -0.5938,-266.9687 l 95.8125,0 c -0.5364,92.1713 0,183.7419 0,266.9687 l -0.25,0 c -6.6847,137.7098 -120.4453,247.31248 -259.81252,247.31248 z"
                    id="glyph3234"
                    horiz-adv-x="900"/>
            <glyph
                    glyph-name="n"
                    unicode="n"
                    horiz-adv-x="550"
                    d="m 501.14821,740.07162 c -140.64227,0 -255.20567,-111.61158 -259.96877,-251.09368 -0.1025,-2.9998 -0.1875,-6.0066 -0.1875,-9.0313 0,-3.0879 0.081,-6.1568 0.1875,-9.2187 l 0,-246.5 100.8125,0 c -0.05,85.4365 1.3276,174.712 1.2188,258.25 0,89.2293 72.33317,161.5625 161.56247,161.5625 85.7752,0 155.9155,-66.8432 161.2187,-151.2813 -1.2103,-87.6291 -0.5937,-178.276 -0.5937,-266.9687 l 95.81248,0 c -0.5364,92.1712 0,183.7419 0,266.9687 l -0.25,0 c -6.6847,137.7099 -120.44528,247.31248 -259.81248,247.31248 z"
                    id="glyph3236" />
            <glyph
                    glyph-name="o"
                    unicode="o"
                    horiz-adv-x="600"
                    d="m 504.42093,731.1739 c -139.3501,0 -252.3438,-112.99368 -252.3438,-252.34368 0,-139.3501 112.9937,-252.3125 252.3438,-252.3125 139.35012,0 252.31255,112.9624 252.31255,252.3125 0,139.35 -112.96243,252.34368 -252.31255,252.34368 z m -0.7813,-77.87498 c 96.3408,0 174.43752,-78.1279 174.43752,-174.4687 0,-96.3408 -78.09672,-174.4375 -174.43752,-174.4375 -96.3408,0 -174.4375,78.0967 -174.4375,174.4375 0,96.3408 78.0967,174.4687 174.4375,174.4687 z"
                    id="glyph3238" />
            <glyph
                    glyph-name="p"
                    unicode="p"
                    horiz-adv-x="700"
                    d="m 200,-13 0,490 c -0.1067,3.0619 -0.1875,6.1309 -0.1875,9.2188 0,3.0247 0.085,6.0314 0.1875,9.0312 4.7631,139.482 119.3265,251.09377 259.9688,251.09377 143.66705,0 260.12505,-116.45797 260.12505,-260.12497 0,-143.667 -116.458,-260.1563 -260.12505,-260.1563 -59.579,0 -114.4824,20.0526 -158.3438,53.75 l 0,-292.31251 -101.625,0 z m 263.5938,339.68751 c 89.22925,0 161.56255,72.3333 161.56255,161.5625 0,89.2293 -72.3333,161.5625 -161.56255,161.5625 -89.2293,0 -161.5625,-72.3332 -161.5625,-161.5625 0,-89.2292 72.3332,-161.5625 161.5625,-161.5625 z"
                    id="glyph3240" />
            <glyph
                    glyph-name="q"
                    unicode="q"
                    horiz-adv-x="600"
                    d="m 758.85176,-14.0122 0,489.49999 c 0.1067,3.0619 0.1875,6.1309 0.1875,9.2188 0,3.0247 -0.085,6.0314 -0.1875,9.0312 -4.7631,139.482 -119.32639,251.09378 -259.96869,251.09378 -143.667,0 -260.125,-116.45798 -260.125,-260.12498 0,-143.667 116.458,-260.1563 260.125,-260.1563 59.579,0 114.4824,20.0526 158.3438,53.75 l 0,-292.31249 101.62489,0 z M 495.25807,325.67529 c -89.2292,0 -161.5625,72.3333 -161.5625,161.5625 0,89.2293 72.3333,161.5625 161.5625,161.5625 89.2293,0 161.5625,-72.3332 161.5625,-161.5625 0,-89.2292 -72.3332,-161.5625 -161.5625,-161.5625 z"
                    id="glyph3242" />
            <glyph
                    glyph-name="r"
                    unicode="r"
                    horiz-adv-x="600"
                    d="m 500,750 c -140.6423,0 -255.2056,-111.61158 -259.9687,-251.09368 -0.022,-90.923 0.01,-185.9948 0,-264.74999 l 100.8125,0 c -3.0029,85.20779 -0.9709,174.77659 1.2187,258.24999 2.3398,89.1986 72.3332,161.5625 161.5625,161.5625 89.2292,0 161.5625,-72.3332 161.5625,-161.5625 0,-3.528 -0.1523,-7.0284 -0.375,-10.5 l 95.1563,0 c 0.08,2.6494 0.1562,5.3 0.1562,7.9687 0,143.6671 -116.458,260.12498 -260.125,260.12498 z"
                    id="glyph3244" />
            <glyph
                    glyph-name="s"
                    unicode="s"
                    horiz-adv-x="600"
                    d="m 501.84333,717.71171 c -111.9518,0 -210.6366,-66.68668 -210.6366,-150.82758 0,-84.1412 116.3305,-127.5783 206.8355,-127.5783 89.2855,0 107.3621,-48.9762 107.3621,-73.7545 0,-35.5483 -25.758,-72.5947 -95.2897,-72.5947 -83.8259,0 -96.3258,44.1476 -96.3258,78.9367 l -112.4795,0 c 0.015,-0.092 -0.015,-0.1831 0,-0.2746 3.7115,-81.69 92.9846,-147.0573 202.5796,-147.0573 111.952,0 202.7017,68.2057 202.7017,152.3467 -9.1453,79.5205 -68.6193,130.1972 -201.1664,130.1972 -46.7522,0 -117.4282,25.6994 -117.4282,58.9825 0,66.7602 56.2281,83.2287 111.0227,83.2287 46.4168,0 101.7849,-28.3178 104.2611,-78.9368 l 101.1434,0 c -0.015,0.092 0.015,0.1831 0,0.2746 -3.7116,81.6901 -92.9845,147.05738 -202.5799,147.05738 z"
                    id="glyph3246" />
            <glyph
                    glyph-name="t"
                    unicode="t"
                    horiz-adv-x="600"
                    d="m 450.10426,790.10542 c -0.1139,-49.0585 -0.2361,-95.9356 -0.3126,-141.7812 -54.6195,0.057 -109.5613,0.062 -168.5312,0.062 l 0,-97.65628 168.4375,0 c -0.1272,-106.59 -0.1875,-211.116 -0.1875,-325.875 l 97.6562,0 0,325.875 147.3438,0 0,97.06258 c -51.6973,0.1641 -99.8804,0.2856 -147.3438,0.375 l 0,141.9374 -97.0624,0 z"
                    id="glyph3248" />
            <glyph
                    glyph-name="u"
                    unicode="u"
                    horiz-adv-x="600"
                    d="m 502.15514,224.22794 c 140.643,0 255.206,111.6116 259.969,251.0937 0.103,2.9998 0.188,6.0066 0.188,9.0313 0,3.0879 -0.08,6.1568 -0.188,9.2187 l 0,246.49998 -100.812,0 c 0.05,-85.43648 -1.328,-174.71198 -1.219,-258.24998 0,-89.2293 -72.333,-161.5625 -161.563,-161.5625 -85.775,0 -155.915,66.8432 -161.2182,151.2813 1.2103,87.6291 0.5937,178.276 0.5937,266.96868 l -95.8125,0 c 0.5364,-92.17118 0,-183.74188 0,-266.96868 l 0.25,0 c 6.6847,-137.7099 120.4453,-247.3125 259.812,-247.3125 z"
                    id="glyph3250" />
            <glyph
                    glyph-name="v"
                    unicode="v"
                    horiz-adv-x="550"
                    d="m 343.93851,738.21907 -101.4463,1.2222 c 166.6803,-325.19978 164.4213,-333.61468 258.2783,-514.58298 63.76,124.4887 163.679,337.8334 252.33197,513.62988 l -87.65997,0.2017 c -71.173,-140.58458 -94.109,-170.27068 -160.161,-301.17718 z"
                    id="glyph3252" />
            <glyph
                    glyph-name="w"
                    unicode="w"
                    d="m 500,225.12611 c 87.387,0 164.676,43.0971 211.844,109.1875 47.195,-65.8545 124.3933,-108.7813 211.5943,-108.7813 140.64195,0 255.20495,111.6117 259.96895,251.0938 0.102,2.9998 0.187,6.0065 0.187,9.0312 0,3.0879 -0.08,6.1569 -0.187,9.2188 l 0,246.49998 -100.813,0 c 0.05,-85.43658 -1.327,-174.71198 -1.219,-258.24998 0,-89.2293 -72.333,-161.5625 -161.56195,-161.5625 -82.987,0 -151.3733,62.5574 -160.5313,143.0937 0.3,3.8322 0.555,7.6854 0.687,11.5625 0.103,2.9998 0.188,6.0066 0.188,9.0313 0,3.0879 -0.08,6.1568 -0.188,9.2187 l 0,246.49998 -100.812,0 c 0.05,-85.43658 -1.328,-174.71198 -1.219,-258.24998 0,-89.2293 -72.333,-161.5625 -161.563,-161.5625 -85.775,0 -155.915,66.8433 -161.218,151.2813 1.21,87.6292 0.593,178.2759 0.593,266.96868 l -95.812197,0 c 0.536,-92.17128 0,-183.74188 0,-266.96868 l 0.25,0 c 6.685,-137.7098 120.445197,-247.3125 259.812197,-247.3125 z"
                    id="glyph3254"
                    horiz-adv-x="900"/>
            <glyph
                    glyph-name="x"
                    unicode="x"
                    horiz-adv-x="600"
                    d="m 251.69385,726.38584 -1.788,-2.3726 c 65.464,-87.20138 125.8503,-167.54688 185.5773,-246.94898 l -187.0383,-248.1352 3.189,-4.2312 125.3383,0 c 42.23,56.0456 83.609,110.9618 124.265,164.9754 40.268,-53.4963 82.427,-109.4485 124.265,-164.9754 l 120.42,0 5.633,7.4737 -184.594,244.8927 c 58.945,78.3632 118.556,157.6463 183.134,243.66678 l -4.263,5.6548 -122.417,0 -122.178,-162.12818 -122.208,162.12818 -127.3353,0 z"
                    id="glyph3256" />
            <glyph
                    glyph-name="y"
                    unicode="y"
                    horiz-adv-x="600"
                    d="m 660.43649,736.2042 c 1.554,-8.9968 2.344,-241.74708 2.344,-251.18778 0,-89.2292 -72.333,-161.5625 -161.563,-161.5625 -89.229,0 -161.5624,72.3333 -161.5624,161.5625 0,9.4407 0.821,242.21478 2.375,251.21158 l -95.563,1.5315 c -1.147,-9.9169 -1.75,-245.04938 -1.75,-255.27408 0,-143.667 116.458,-257.0413 260.1254,-257.0413 59.579,0 114.483,16.9376 158.344,50.635 -0.387,-38.9523 -0.388,-76.042 -1.312,-113.5312 -2.34,-89.19857 -72.334,-161.56252 -161.563,-161.56252 -89.229,0 -161.5624,72.33325 -161.5624,161.56252 0,3.5281 0.152,-6.9891 0.375,-3.5175 l -95.157,0.7787 c -0.08,-2.6494 -0.156,7.9386 -0.156,5.27 0,-143.66702 116.458,-260.12502 260.1254,-260.12502 135.347,0 246.542,103.3725 258.969,235.46882 1.881,44.0047 1.935,82.0237 1.906,123.7187 l 0,209.125 c 0.107,3.0619 0.188,6.1309 0.188,9.2188 0,3.0247 -0.09,6.0314 -0.188,9.0312 -0.244,7.1367 -1.594,245.07468 -1.594,245.07468 z"
                    id="glyph3258" />
            <glyph
                    glyph-name="z"
                    unicode="z"
                    horiz-adv-x="600"
                    d="m 295.14858,750.14318 0,-93.154 c 109.8952,-0.1775 211.7122,-0.303 312.1882,-0.3899 C 503.18578,556.8608 402.01078,459.8416 295.14858,357.3127 l 0,-128.27411 1.532,-1.4697 0,-2.3993 405.9682,0 0,93.57391 c -102.062,0.076 -203.3,0.1366 -309.437,0.15 l 309.437,296.9771 0,134.27258 -407.5002,0 z"
                    id="glyph3260" />
            <glyph
                    glyph-name="space"
                    unicode=" "
                    d=" "
                    id="glyph3208" />
            <glyph
                    glyph-name="A"
                    unicode="A"
                    horiz-adv-x="600"
                    d="m 502.18699,740.07168 c -143.667,0 -260.125,-116.45788 -260.125,-260.12497 0,-127.2635 91.396,-233.1865 212.125,-255.7188 l 96,0 c 40.9692,7.6476 78.5523,24.8881 110.3438,49.3125 l 0,-49.3125 101.625,0 0,246.5 c 0.1067,3.0619 0.1875,6.1309 0.1875,9.2188 0,3.0247 -0.085,6.0314 -0.1875,9.0312 -4.7631,139.48209 -119.3265,251.09377 -259.9688,251.09377 z m -3.625,-96.03128 c 89.2293,0 161.5625,-72.3332 161.5625,-161.56249 0,-89.2292 -72.3332,-161.5625 -161.5625,-161.5625 -89.2292,0 -161.5625,72.3333 -161.5625,161.5625 0,89.22929 72.3333,161.56249 161.5625,161.56249 z"
                    id="glyph3210" />
            <glyph
                    glyph-name="B"
                    unicode="B"
                    horiz-adv-x="600"
                    d="m 229.03359,982.71704 0,-489.49998 c -0.1067,-3.0619 -0.1875,-6.1309 -0.1875,-9.2188 0,-3.0247 0.085,-6.0314 0.1875,-9.0312 4.7631,-139.482 119.3265,-251.0938 259.9688,-251.0938 143.667,0 260.12513,116.458 260.12513,260.125 0,143.667 -116.45813,260.15628 -260.12513,260.15628 -59.579,0 -114.4824,-20.0526 -158.3438,-53.75 l 0,292.3125 -101.625,0 z m 263.5938,-339.68748 c 89.2292,0 161.5626,-72.3333 161.5626,-161.5625 0,-89.2293 -72.3334,-161.5625 -161.5626,-161.5625 -89.2293,0 -161.5625,72.3332 -161.5625,161.5625 0,89.2292 72.3332,161.5625 161.5625,161.5625 z"
                    id="glyph3212" />
            <glyph
                    glyph-name="C"
                    unicode="C"
                    horiz-adv-x="600"
                    d="m 549.65061,744.49301 c -143.667,0 -260.1562,-116.48918 -260.1562,-260.15618 0,-143.6671 116.4892,-260.12497 260.1562,-260.12497 51.9791,0 100.4025,15.26917 141.0312,41.53117 l 0,131.0625 c -28.4887,-45.9381 -79.3761,-76.5625 -137.4062,-76.5625 -89.2292,0 -161.5625,72.3333 -161.5625,161.5625 0,89.2293 72.3333,161.5625 161.5625,161.5625 58.0301,0 108.9175,-30.5931 137.4062,-76.5312 l 0,136.15618 c -40.6287,26.2673 -89.0521,41.5 -141.0312,41.5 z"
                    id="glyph3214" />
            <glyph
                    glyph-name="D"
                    unicode="D"
                    horiz-adv-x="600"
                    d="m 762.15583,983.81836 0,-489.49998 c 0.1067,-3.0619 0.1875,-6.1309 0.1875,-9.2188 0,-3.0247 -0.085,-6.0314 -0.1875,-9.0312 -4.7631,-139.482 -119.32658,-251.09382 -259.96888,-251.09382 -143.667,0 -260.125,116.45802 -260.125,260.12502 0,143.667 116.458,260.15628 260.125,260.15628 59.579,0 114.4824,-20.0526 158.3438,-53.75 l 0,292.3125 101.62508,0 z M 498.56195,644.13088 c -89.2292,0 -161.5625,-72.3333 -161.5625,-161.5625 0,-89.2293 72.3333,-161.5625 161.5625,-161.5625 89.2293,0 161.5625,72.3332 161.5625,161.5625 0,89.2292 -72.3332,161.5625 -161.5625,161.5625 z"
                    id="glyph3216" />
            <glyph
                    glyph-name="E"
                    unicode="E"
                    horiz-adv-x="600"
                    d="m 501.11722,744.49301 c -143.667,0 -260.1563,-116.48918 -260.1563,-260.15618 0,-143.667 116.4893,-260.125 260.1563,-260.125 115.8426,0 213.9826,75.7298 247.6563,180.375 l -102.125,0 c -27.3875,-50.2498 -80.6438,-84.3438 -141.9063,-84.3438 -88.4489,0 -160.2814,71.067 -161.5312,159.2188 l 278.4687,0 44.5938,0 94.9062,0 c 0.03,1.6216 0.062,3.2462 0.062,4.875 0,143.667 -116.458,260.15618 -260.125,260.15618 z m 3.625,-101.12498 c 58.6466,0 110.0038,-31.246 138.3125,-78 l -276.5937,0 c 28.3088,46.7535 79.635,78 138.2812,78 z"
                    id="glyph3218" />
            <glyph
                    glyph-name="F"
                    unicode="F"
                    horiz-adv-x="600"
                    d="m 539.59339,983.81836 c -140.6423,0 -255.2057,-111.6119 -259.9688,-251.0938 -0.1025,-2.9998 -0.1875,-6.0064 -0.1875,-9.0312 0,-3.0879 0.081,-6.1569 0.1875,-9.2188 l 0,-115.99998 -74.8437,0 0,-102 74.8437,0 0,-271.50004 101.625,0 0,226.00004 -0.375,0 c 0.073,5.8582 0.072,23.4309 0.031,45.5 l 284.2188,0 0,102 -284.4375,0 c -0.081,67.08998 0.04,131.28128 1,131.28128 1.8715,87.6046 73.4776,158.0312 161.5312,158.0312 88.0534,0 159.6284,-70.4267 161.5,-158.0312 l 94.90628,0 c -3.2202,140.8675 -118.38988,254.0625 -260.03128,254.0625 z"
                    id="glyph3220" />
            <glyph
                    glyph-name="G"
                    unicode="G"
                    horiz-adv-x="600"
                    d="m 499.77799,745.0936 c -143.667,0 -260.1562,-116.48918 -260.1562,-260.15618 0,-143.667 116.4892,-260.125 260.1562,-260.125 62.6235,0 120.0765,22.1369 164.96877,59 -2.4759,-9.4242 1.6612,-27.6533 -3.3125,-58.75 -4.6398,-29.0088 -30.096,-50.3274 -53.50617,-67.4608 -26.7184,-19.5545 -59.6659,-31.1017 -95.3063,-31.1017 -39.2829,0 -75.2868,14.0304 -103.2813,37.3437 l -130.3125,0 c 43.6684,-82.35197 130.2702,-138.79457 229.9688,-138.46887 144.18337,0.4711 241.95007,93.25219 250.46857,199.68767 7.0098,87.5849 0,244.9687 0,244.9687 0.2793,4.9385 0.4375,9.8979 0.4375,14.9063 0,143.667 -116.4579,260.15618 -260.12487,260.15618 z m 3.625,-101.12498 c 87.1957,0 158.24377,-69.085 161.43747,-155.5 l -0.094,0 0,-14.375 c -4.3271,-85.3654 -74.90287,-153.25 -161.34367,-153.25 -89.2293,0 -161.5625,72.3332 -161.5625,161.5625 0,89.2292 72.3332,161.5625 161.5625,161.5625 z"
                    id="glyph3222" />
            <glyph
                    glyph-name="H"
                    unicode="H"
                    horiz-adv-x="600"
                    d="m 232.86885,1002.6521 c -0.4675,-276.71749 -0.5938,-505.08347 -0.5938,-776.68752 l 100.8125,0 c -0.05,85.43665 1.3276,174.71205 1.2188,258.25005 0,89.2293 72.3332,161.5625 161.5625,161.5625 85.7752,0 155.9156,-66.8432 161.2188,-151.2813 -1.2103,-87.6291 -0.5937,-178.276 -0.5937,-266.96875 l 95.81247,0 c -0.5364,92.17125 0,183.74195 0,266.96875 l -0.25,0 c -6.6847,137.7099 -120.44527,247.31248 -259.81257,247.31248 -59.9486,0 -115.1679,-20.3033 -159.1563,-54.375 l 0,315.21879 z"
                    id="glyph3224" />
            <glyph
                    glyph-name="I"
                    unicode="I"
                    horiz-adv-x="600"
                    d="m 499.55442,796.50283 c -25.8055,0 -46.7187,-20.9131 -46.7187,-46.7187 0,-25.8056 20.9131,-46.7187 46.7187,-46.7187 25.8055,0 46.7188,20.9131 46.7188,46.7187 0,25.8056 -20.9133,46.7187 -46.7188,46.7187 z m -46.125,-139.5937 c -0.1964,-4.5893 -0.3373,-9.18308 -0.4374,-13.81248 -0.1025,-4.7369 -0.1876,-9.4425 -0.1876,-14.2188 0,-4.876 0.081,-9.7588 0.1876,-14.5937 l 0,-389.2187 96.4062,0 0,431.84368 -95.9688,0 z"
                    id="glyph3226" />
            <glyph
                    glyph-name="J"
                    unicode="J"
                    horiz-adv-x="600"
                    d="m 698.15562,829.10947 c -26.6753,0 -48.3125,-21.6371 -48.3125,-48.3124 0,-26.6755 21.6372,-48.2813 48.3125,-48.2813 26.6754,0 48.2812,21.6058 48.2812,48.2813 0,26.6753 -21.6058,48.3124 -48.2812,48.3124 z m -46.9062,-137.3437 c -0.4314,-57.60998 -0.2624,4.4166 -1.4063,-79.18748 -1.1438,-83.6041 -3.1925,-290.6034 -4.0625,-422.4375 0.1183,-89.22921 -72.3332,-161.56257 -161.5625,-161.56257 -77.9759,0 -143.0455,55.2375 -158.2187,128.71887 l -95.875,0 C 247.38462,30.36762 356.17722,-67.453 487.84312,-67.453 c 140.6423,0 255.2056,111.61172 259.9687,251.09379 0.084,167.7689 0,338.8476 0,507.74998 l -96.5624,0.375 z"
                    id="glyph3228" />
            <glyph
                    glyph-name="K"
                    unicode="K"
                    horiz-adv-x="600"
                    d="m 241.42108,1002.9334 c -0.4675,-276.71753 -0.5938,-505.08351 -0.5938,-776.68747 l 99.7813,0 0,217.56246 51.1875,51 73.5625,-112.9375 -0.1875,-0.125 101.625,-156.06246 128.5,0.5 -229.0938,331.74996 203.4375,213.81248 -0.8437,0.8437 -127.7813,-1.0937 -200.4062,-194.31248 0,425.75001 -99.1875,0 z"
                    id="glyph3230" />
            <glyph
                    glyph-name="L"
                    unicode="L"
                    horiz-adv-x="600"
                    d="m 450.66428,1002.6521 c -0.4675,-276.71749 -0.5937,-505.08347 -0.5937,-776.68748 l 97.65621,0 0,776.68748 -97.06251,0 z"
                    id="glyph3232" />
            <glyph
                    glyph-name="M"
                    unicode="M"
                    d="m 712.86695,741.37609 c -87.3863,0 -164.67603,-43.0971 -211.84373,-109.18748 -47.1954,65.85448 -124.39273,108.78128 -211.59383,108.78128 -140.6423,0 -255.205602,-111.61168 -259.968702,-251.09378 -0.1025,-2.9998 -0.1875,-6.0065 -0.1875,-9.0312 0,-3.0879 0.081,-6.1569 0.1875,-9.2188 l 0,-246.5 100.812502,0 c -0.05,85.4366 1.3275,174.712 1.2187,258.25 0,89.2293 72.3332,161.5625 161.5625,161.5625 82.9871,0 151.37263,-62.5574 160.53133,-143.0937 -0.3003,-3.8322 -0.5551,-7.6854 -0.6875,-11.5625 -0.1025,-2.9998 -0.1875,-6.0066 -0.1875,-9.0313 0,-3.0879 0.081,-6.1568 0.1875,-9.2187 l 0,-246.5 100.8125,0 c -0.05,85.4366 1.3275,174.712 1.2187,258.25 0,89.2293 72.33323,161.5625 161.56253,161.5625 85.77522,0 155.91562,-66.8433 161.21882,-151.2813 -1.2103,-87.6292 -0.5938,-178.2759 -0.5938,-266.9687 l 95.8125,0 c -0.5364,92.1713 0,183.7419 0,266.9687 l -0.25,0 c -6.6847,137.7098 -120.4453,247.31248 -259.81252,247.31248 z"
                    id="glyph3234"
                    horiz-adv-x="900"/>
            <glyph
                    glyph-name="N"
                    unicode="N"
                    horiz-adv-x="600"
                    d="m 501.14821,740.07162 c -140.64227,0 -255.20567,-111.61158 -259.96877,-251.09368 -0.1025,-2.9998 -0.1875,-6.0066 -0.1875,-9.0313 0,-3.0879 0.081,-6.1568 0.1875,-9.2187 l 0,-246.5 100.8125,0 c -0.05,85.4365 1.3276,174.712 1.2188,258.25 0,89.2293 72.33317,161.5625 161.56247,161.5625 85.7752,0 155.9155,-66.8432 161.2187,-151.2813 -1.2103,-87.6291 -0.5937,-178.276 -0.5937,-266.9687 l 95.81248,0 c -0.5364,92.1712 0,183.7419 0,266.9687 l -0.25,0 c -6.6847,137.7099 -120.44528,247.31248 -259.81248,247.31248 z"
                    id="glyph3236" />
            <glyph
                    glyph-name="O"
                    unicode="O"
                    horiz-adv-x="600"
                    d="m 504.42093,731.1739 c -139.3501,0 -252.3438,-112.99368 -252.3438,-252.34368 0,-139.3501 112.9937,-252.3125 252.3438,-252.3125 139.35012,0 252.31255,112.9624 252.31255,252.3125 0,139.35 -112.96243,252.34368 -252.31255,252.34368 z m -0.7813,-77.87498 c 96.3408,0 174.43752,-78.1279 174.43752,-174.4687 0,-96.3408 -78.09672,-174.4375 -174.43752,-174.4375 -96.3408,0 -174.4375,78.0967 -174.4375,174.4375 0,96.3408 78.0967,174.4687 174.4375,174.4687 z"
                    id="glyph3238" />
            <glyph
                    glyph-name="P"
                    unicode="P"
                    horiz-adv-x="600"
                    d="m 234.54022,-12.9109 0,489.50001 c -0.1067,3.0619 -0.1875,6.1309 -0.1875,9.2188 0,3.0247 0.085,6.0314 0.1875,9.0312 4.7631,139.482 119.3265,251.09377 259.9688,251.09377 143.66705,0 260.12505,-116.45797 260.12505,-260.12497 0,-143.667 -116.458,-260.1563 -260.12505,-260.1563 -59.579,0 -114.4824,20.0526 -158.3438,53.75 l 0,-292.31251 -101.625,0 z m 263.5938,339.68751 c 89.22925,0 161.56255,72.3333 161.56255,161.5625 0,89.2293 -72.3333,161.5625 -161.56255,161.5625 -89.2293,0 -161.5625,-72.3332 -161.5625,-161.5625 0,-89.2292 72.3332,-161.5625 161.5625,-161.5625 z"
                    id="glyph3240" />
            <glyph
                    glyph-name="Q"
                    unicode="Q"
                    horiz-adv-x="600"
                    d="m 758.85176,-14.0122 0,489.49999 c 0.1067,3.0619 0.1875,6.1309 0.1875,9.2188 0,3.0247 -0.085,6.0314 -0.1875,9.0312 -4.7631,139.482 -119.32639,251.09378 -259.96869,251.09378 -143.667,0 -260.125,-116.45798 -260.125,-260.12498 0,-143.667 116.458,-260.1563 260.125,-260.1563 59.579,0 114.4824,20.0526 158.3438,53.75 l 0,-292.31249 101.62489,0 z M 495.25807,325.67529 c -89.2292,0 -161.5625,72.3333 -161.5625,161.5625 0,89.2293 72.3333,161.5625 161.5625,161.5625 89.2293,0 161.5625,-72.3332 161.5625,-161.5625 0,-89.2292 -72.3332,-161.5625 -161.5625,-161.5625 z"
                    id="glyph3242" />
            <glyph
                    glyph-name="R"
                    unicode="R"
                    horiz-adv-x="600"
                    d="m 497.72316,741.17294 c -140.6423,0 -255.2056,-111.61158 -259.9687,-251.09368 -0.022,-90.923 0.01,-185.9948 0,-264.74999 l 100.8125,0 c -3.0029,85.20779 -0.9709,174.77659 1.2187,258.24999 2.3398,89.1986 72.3332,161.5625 161.5625,161.5625 89.2292,0 161.5625,-72.3332 161.5625,-161.5625 0,-3.528 -0.1523,-7.0284 -0.375,-10.5 l 95.1563,0 c 0.08,2.6494 0.1562,5.3 0.1562,7.9687 0,143.6671 -116.458,260.12498 -260.125,260.12498 z"
                    id="glyph3244" />
            <glyph
                    glyph-name="S"
                    unicode="S"
                    horiz-adv-x="600"
                    d="m 501.84333,717.71171 c -111.9518,0 -210.6366,-66.68668 -210.6366,-150.82758 0,-84.1412 116.3305,-127.5783 206.8355,-127.5783 89.2855,0 107.3621,-48.9762 107.3621,-73.7545 0,-35.5483 -25.758,-72.5947 -95.2897,-72.5947 -83.8259,0 -96.3258,44.1476 -96.3258,78.9367 l -112.4795,0 c 0.015,-0.092 -0.015,-0.1831 0,-0.2746 3.7115,-81.69 92.9846,-147.0573 202.5796,-147.0573 111.952,0 202.7017,68.2057 202.7017,152.3467 -9.1453,79.5205 -68.6193,130.1972 -201.1664,130.1972 -46.7522,0 -117.4282,25.6994 -117.4282,58.9825 0,66.7602 56.2281,83.2287 111.0227,83.2287 46.4168,0 101.7849,-28.3178 104.2611,-78.9368 l 101.1434,0 c -0.015,0.092 0.015,0.1831 0,0.2746 -3.7116,81.6901 -92.9845,147.05738 -202.5799,147.05738 z"
                    id="glyph3246" />
            <glyph
                    glyph-name="T"
                    unicode="T"
                    horiz-adv-x="600"
                    d="m 450.10426,790.10542 c -0.1139,-49.0585 -0.2361,-95.9356 -0.3126,-141.7812 -54.6195,0.057 -109.5613,0.062 -168.5312,0.062 l 0,-97.65628 168.4375,0 c -0.1272,-106.59 -0.1875,-211.116 -0.1875,-325.875 l 97.6562,0 0,325.875 147.3438,0 0,97.06258 c -51.6973,0.1641 -99.8804,0.2856 -147.3438,0.375 l 0,141.9374 -97.0624,0 z"
                    id="glyph3248" />
            <glyph
                    glyph-name="U"
                    unicode="U"
                    horiz-adv-x="600"
                    d="m 502.15514,224.22794 c 140.643,0 255.206,111.6116 259.969,251.0937 0.103,2.9998 0.188,6.0066 0.188,9.0313 0,3.0879 -0.08,6.1568 -0.188,9.2187 l 0,246.49998 -100.812,0 c 0.05,-85.43648 -1.328,-174.71198 -1.219,-258.24998 0,-89.2293 -72.333,-161.5625 -161.563,-161.5625 -85.775,0 -155.915,66.8432 -161.2182,151.2813 1.2103,87.6291 0.5937,178.276 0.5937,266.96868 l -95.8125,0 c 0.5364,-92.17118 0,-183.74188 0,-266.96868 l 0.25,0 c 6.6847,-137.7099 120.4453,-247.3125 259.812,-247.3125 z"
                    id="glyph3250" />
            <glyph
                    glyph-name="V"
                    unicode="V"
                    horiz-adv-x="600"
                    d="m 343.93851,738.21907 -101.4463,1.2222 c 166.6803,-325.19978 164.4213,-333.61468 258.2783,-514.58298 63.76,124.4887 163.679,337.8334 252.33197,513.62988 l -87.65997,0.2017 c -71.173,-140.58458 -94.109,-170.27068 -160.161,-301.17718 z"
                    id="glyph3252" />
            <glyph
                    glyph-name="W"
                    unicode="W"
                    d="m 288.23395,225.12611 c 87.387,0 164.676,43.0971 211.844,109.1875 47.195,-65.8545 124.3933,-108.7813 211.5943,-108.7813 140.64195,0 255.20495,111.6117 259.96895,251.0938 0.102,2.9998 0.187,6.0065 0.187,9.0312 0,3.0879 -0.08,6.1569 -0.187,9.2188 l 0,246.49998 -100.813,0 c 0.05,-85.43658 -1.327,-174.71198 -1.219,-258.24998 0,-89.2293 -72.333,-161.5625 -161.56195,-161.5625 -82.987,0 -151.3733,62.5574 -160.5313,143.0937 0.3,3.8322 0.555,7.6854 0.687,11.5625 0.103,2.9998 0.188,6.0066 0.188,9.0313 0,3.0879 -0.08,6.1568 -0.188,9.2187 l 0,246.49998 -100.812,0 c 0.05,-85.43658 -1.328,-174.71198 -1.219,-258.24998 0,-89.2293 -72.333,-161.5625 -161.563,-161.5625 -85.775,0 -155.915,66.8433 -161.218,151.2813 1.21,87.6292 0.593,178.2759 0.593,266.96868 l -95.812197,0 c 0.536,-92.17128 0,-183.74188 0,-266.96868 l 0.25,0 c 6.685,-137.7098 120.445197,-247.3125 259.812197,-247.3125 z"
                    id="glyph3254"
                    horiz-adv-x="900"/>
            <glyph
                    glyph-name="X"
                    unicode="X"
                    horiz-adv-x="600"
                    d="m 251.69385,726.38584 -1.788,-2.3726 c 65.464,-87.20138 125.8503,-167.54688 185.5773,-246.94898 l -187.0383,-248.1352 3.189,-4.2312 125.3383,0 c 42.23,56.0456 83.609,110.9618 124.265,164.9754 40.268,-53.4963 82.427,-109.4485 124.265,-164.9754 l 120.42,0 5.633,7.4737 -184.594,244.8927 c 58.945,78.3632 118.556,157.6463 183.134,243.66678 l -4.263,5.6548 -122.417,0 -122.178,-162.12818 -122.208,162.12818 -127.3353,0 z"
                    id="glyph3256" />
            <glyph
                    glyph-name="Y"
                    unicode="Y"
                    horiz-adv-x="600"
                    d="m 660.43649,736.2042 c 1.554,-8.9968 2.344,-241.74708 2.344,-251.18778 0,-89.2292 -72.333,-161.5625 -161.563,-161.5625 -89.229,0 -161.5624,72.3333 -161.5624,161.5625 0,9.4407 0.821,242.21478 2.375,251.21158 l -95.563,1.5315 c -1.147,-9.9169 -1.75,-245.04938 -1.75,-255.27408 0,-143.667 116.458,-257.0413 260.1254,-257.0413 59.579,0 114.483,16.9376 158.344,50.635 -0.387,-38.9523 -0.388,-76.042 -1.312,-113.5312 -2.34,-89.19857 -72.334,-161.56252 -161.563,-161.56252 -89.229,0 -161.5624,72.33325 -161.5624,161.56252 0,3.5281 0.152,-6.9891 0.375,-3.5175 l -95.157,0.7787 c -0.08,-2.6494 -0.156,7.9386 -0.156,5.27 0,-143.66702 116.458,-260.12502 260.1254,-260.12502 135.347,0 246.542,103.3725 258.969,235.46882 1.881,44.0047 1.935,82.0237 1.906,123.7187 l 0,209.125 c 0.107,3.0619 0.188,6.1309 0.188,9.2188 0,3.0247 -0.09,6.0314 -0.188,9.0312 -0.244,7.1367 -1.594,245.07468 -1.594,245.07468 z"
                    id="glyph3258" />
            <glyph
                    glyph-name="Z"
                    unicode="Z"
                    horiz-adv-x="600"
                    d="m 295.14858,750.14318 0,-93.154 c 109.8952,-0.1775 211.7122,-0.303 312.1882,-0.3899 C 503.18578,556.8608 402.01078,459.8416 295.14858,357.3127 l 0,-128.27411 1.532,-1.4697 0,-2.3993 405.9682,0 0,93.57391 c -102.062,0.076 -203.3,0.1366 -309.437,0.15 l 309.437,296.9771 0,134.27258 -407.5002,0 z"
                    id="glyph3260" />
        </font>
</defs>
</svg>
